<?xml version="1.0" encoding="UTF-8"?>
<svg id="Camada_1" xmlns="http://www.w3.org/2000/svg" version="1.1" xmlns:xlink="http://www.w3.org/1999/xlink" viewBox="0 0 1500 1060">
  <!-- Generator: Adobe Illustrator 29.6.1, SVG Export Plug-In . SVG Version: 2.1.1 Build 9)  -->
  <defs>
    <style>
      .st0, .st1 {
        fill: #a6a8aa;
      }

      .st0, .st2, .st3 {
        fill-rule: evenodd;
      }

      .st4 {
        fill: url(#Degradado_sin_nombre_223);
      }

      .st5 {
        fill: url(#Degradado_sin_nombre_247);
      }

      .st6 {
        fill: url(#Degradado_sin_nombre_242);
      }

      .st7 {
        fill: url(#Degradado_sin_nombre_235);
      }

      .st8 {
        fill: url(#Degradado_sin_nombre_24);
      }

      .st9, .st2 {
        fill: none;
        stroke: #000;
        stroke-miterlimit: 33.9;
        stroke-width: .9px;
      }

      .st10 {
        fill: url(#Degradado_sin_nombre_217);
      }

      .st11 {
        fill: url(#Degradado_sin_nombre_232);
      }

      .st12 {
        fill: url(#Degradado_sin_nombre_28);
      }

      .st13 {
        fill: url(#Degradado_sin_nombre_231);
      }

      .st14 {
        fill: url(#Degradado_sin_nombre_229);
      }

      .st15 {
        fill: url(#Degradado_sin_nombre_246);
      }

      .st16 {
        fill: url(#Degradado_sin_nombre_210);
      }

      .st17 {
        fill: url(#Degradado_sin_nombre_225);
      }

      .st18 {
        fill: url(#Degradado_sin_nombre_243);
      }

      .st19 {
        fill: url(#Degradado_sin_nombre_219);
      }

      .st20 {
        fill: url(#Degradado_sin_nombre_26);
      }

      .st21 {
        fill: url(#Degradado_sin_nombre_228);
      }

      .st22 {
        fill: url(#Degradado_sin_nombre_25);
      }

      .st23 {
        fill: url(#Degradado_sin_nombre_227);
      }

      .st24 {
        fill: url(#Degradado_sin_nombre_244);
      }

      .st25 {
        fill: url(#Degradado_sin_nombre_230);
      }

      .st26 {
        fill: url(#Degradado_sin_nombre_216);
      }

      .st27 {
        fill: url(#Degradado_sin_nombre_212);
      }

      .st28 {
        fill: url(#Degradado_sin_nombre_234);
      }

      .st29 {
        fill: url(#Degradado_sin_nombre_240);
      }

      .st30 {
        fill: url(#Degradado_sin_nombre_2);
      }

      .st31 {
        fill: #424243;
      }

      .st32 {
        fill: url(#Degradado_sin_nombre_248);
      }

      .st33 {
        fill: url(#Degradado_sin_nombre_238);
      }

      .st34 {
        fill: url(#Degradado_sin_nombre_237);
      }

      .st35 {
        fill: url(#Degradado_sin_nombre_224);
      }

      .st36 {
        fill: url(#Degradado_sin_nombre_211);
      }

      .st37 {
        fill: url(#Degradado_sin_nombre_245);
      }

      .st38 {
        fill: url(#Degradado_sin_nombre_236);
      }

      .st39 {
        fill: url(#Degradado_sin_nombre_226);
      }

      .st40 {
        opacity: .2;
      }

      .st41 {
        fill: url(#Degradado_sin_nombre_214);
      }

      .st42 {
        fill: url(#Degradado_sin_nombre_23);
      }

      .st43 {
        fill: url(#Degradado_sin_nombre_213);
      }

      .st44 {
        fill: url(#Degradado_sin_nombre_21);
      }

      .st45 {
        fill: url(#Degradado_sin_nombre_218);
      }

      .st46 {
        fill: url(#Degradado_sin_nombre_215);
      }

      .st47 {
        fill: url(#Degradado_sin_nombre_222);
      }

      .st48 {
        fill: url(#Degradado_sin_nombre_233);
      }

      .st49 {
        fill: url(#Degradado_sin_nombre_241);
      }

      .st50 {
        fill: url(#Degradado_sin_nombre_22);
      }

      .st51 {
        fill: url(#Degradado_sin_nombre_220);
      }

      .st52 {
        fill: url(#Degradado_sin_nombre_239);
      }

      .st53 {
        fill: url(#Degradado_sin_nombre_221);
      }

      .st54 {
        fill: url(#Degradado_sin_nombre_27);
      }

      .st55 {
        fill: url(#Degradado_sin_nombre_29);
      }
    </style>
    <linearGradient id="Degradado_sin_nombre_2" data-name="Degradado sin nombre 2" x1="1250" y1="36.4" x2="1335.1" y2="121.5" gradientUnits="userSpaceOnUse">
      <stop offset="0" stop-color="#a98d62"/>
      <stop offset=".3" stop-color="#866b4a"/>
      <stop offset=".4" stop-color="#b28f63"/>
      <stop offset=".6" stop-color="#d9ae79"/>
      <stop offset=".6" stop-color="#e8bb82"/>
      <stop offset=".7" stop-color="#d6ac77"/>
      <stop offset=".9" stop-color="#a9875e"/>
      <stop offset="1" stop-color="#866b4a"/>
    </linearGradient>
    <linearGradient id="Degradado_sin_nombre_21" data-name="Degradado sin nombre 2" x1="1326.5" y1="29.8" x2="1395.2" y2="98.4" xlink:href="#Degradado_sin_nombre_2"/>
    <linearGradient id="Degradado_sin_nombre_22" data-name="Degradado sin nombre 2" x1="1396.8" y1="30.6" x2="1467.3" y2="101.1" xlink:href="#Degradado_sin_nombre_2"/>
    <linearGradient id="Degradado_sin_nombre_23" data-name="Degradado sin nombre 2" x1="1399.5" y1="102.7" x2="1468.2" y2="171.4" xlink:href="#Degradado_sin_nombre_2"/>
    <linearGradient id="Degradado_sin_nombre_24" data-name="Degradado sin nombre 2" x1="1376.4" y1="162.8" x2="1461.6" y2="247.9" xlink:href="#Degradado_sin_nombre_2"/>
    <linearGradient id="Degradado_sin_nombre_25" data-name="Degradado sin nombre 2" x1="1389.1" y1="100.8" x2="1397.2" y2="108.9" xlink:href="#Degradado_sin_nombre_2"/>
    <linearGradient id="Degradado_sin_nombre_26" data-name="Degradado sin nombre 2" x1="179.5" y1="50.2" x2="236.9" y2="107.6" xlink:href="#Degradado_sin_nombre_2"/>
    <linearGradient id="Degradado_sin_nombre_27" data-name="Degradado sin nombre 2" x1="120" y1="44.2" x2="159.7" y2="84" xlink:href="#Degradado_sin_nombre_2"/>
    <linearGradient id="Degradado_sin_nombre_28" data-name="Degradado sin nombre 2" x1="37.9" y1="35.1" x2="99.5" y2="96.7" xlink:href="#Degradado_sin_nombre_2"/>
    <linearGradient id="Degradado_sin_nombre_29" data-name="Degradado sin nombre 2" x1="47.1" y1="117.2" x2="86.8" y2="156.9" xlink:href="#Degradado_sin_nombre_2"/>
    <linearGradient id="Degradado_sin_nombre_210" data-name="Degradado sin nombre 2" x1="53" y1="176.7" x2="110.5" y2="234.1" xlink:href="#Degradado_sin_nombre_2"/>
    <linearGradient id="Degradado_sin_nombre_211" data-name="Degradado sin nombre 2" x1="87.3" y1="84.5" x2="128" y2="125.2" xlink:href="#Degradado_sin_nombre_2"/>
    <linearGradient id="Degradado_sin_nombre_212" data-name="Degradado sin nombre 2" x1="165.6" y1="935.3" x2="250.8" y2="1020.4" xlink:href="#Degradado_sin_nombre_2"/>
    <linearGradient id="Degradado_sin_nombre_213" data-name="Degradado sin nombre 2" x1="105.5" y1="958.3" x2="174.2" y2="1027" xlink:href="#Degradado_sin_nombre_2"/>
    <linearGradient id="Degradado_sin_nombre_214" data-name="Degradado sin nombre 2" x1="33.4" y1="955.6" x2="104" y2="1026.2" xlink:href="#Degradado_sin_nombre_2"/>
    <linearGradient id="Degradado_sin_nombre_215" data-name="Degradado sin nombre 2" x1="32.6" y1="885.4" x2="101.3" y2="954" xlink:href="#Degradado_sin_nombre_2"/>
    <linearGradient id="Degradado_sin_nombre_216" data-name="Degradado sin nombre 2" x1="39.2" y1="808.8" x2="124.3" y2="893.9" xlink:href="#Degradado_sin_nombre_2"/>
    <linearGradient id="Degradado_sin_nombre_217" data-name="Degradado sin nombre 2" x1="103.6" y1="947.9" x2="111.7" y2="956" xlink:href="#Degradado_sin_nombre_2"/>
    <linearGradient id="Degradado_sin_nombre_218" data-name="Degradado sin nombre 2" x1="1263.8" y1="949.1" x2="1321.3" y2="1006.5" xlink:href="#Degradado_sin_nombre_2"/>
    <linearGradient id="Degradado_sin_nombre_219" data-name="Degradado sin nombre 2" x1="1341" y1="972.8" x2="1380.8" y2="1012.5" xlink:href="#Degradado_sin_nombre_2"/>
    <linearGradient id="Degradado_sin_nombre_220" data-name="Degradado sin nombre 2" x1="1401.3" y1="960.1" x2="1462.9" y2="1021.7" xlink:href="#Degradado_sin_nombre_2"/>
    <linearGradient id="Degradado_sin_nombre_221" data-name="Degradado sin nombre 2" x1="1414" y1="899.8" x2="1453.7" y2="939.6" xlink:href="#Degradado_sin_nombre_2"/>
    <linearGradient id="Degradado_sin_nombre_222" data-name="Degradado sin nombre 2" x1="1390.3" y1="822.7" x2="1447.7" y2="880.1" xlink:href="#Degradado_sin_nombre_2"/>
    <linearGradient id="Degradado_sin_nombre_223" data-name="Degradado sin nombre 2" x1="1372.8" y1="931.6" x2="1413.5" y2="972.3" xlink:href="#Degradado_sin_nombre_2"/>
    <linearGradient id="Degradado_sin_nombre_224" data-name="Degradado sin nombre 2" x1="904.2" y1="-29.1" x2="1093.5" y2="160.1" xlink:href="#Degradado_sin_nombre_2"/>
    <linearGradient id="Degradado_sin_nombre_225" data-name="Degradado sin nombre 2" x1="928" y1="-16.1" x2="1131.6" y2="187.5" xlink:href="#Degradado_sin_nombre_2"/>
    <linearGradient id="Degradado_sin_nombre_226" data-name="Degradado sin nombre 2" x1="407.7" y1="-27.8" x2="596.1" y2="160.6" xlink:href="#Degradado_sin_nombre_2"/>
    <linearGradient id="Degradado_sin_nombre_227" data-name="Degradado sin nombre 2" x1="370" y1="-15.2" x2="571.9" y2="186.7" xlink:href="#Degradado_sin_nombre_2"/>
    <linearGradient id="Degradado_sin_nombre_228" data-name="Degradado sin nombre 2" x1="723.2" y1="955.1" x2="777.5" y2="1009.5" xlink:href="#Degradado_sin_nombre_2"/>
    <linearGradient id="Degradado_sin_nombre_229" data-name="Degradado sin nombre 2" x1="407.3" y1="898.4" x2="596.5" y2="1087.6" xlink:href="#Degradado_sin_nombre_2"/>
    <linearGradient id="Degradado_sin_nombre_230" data-name="Degradado sin nombre 2" x1="369.6" y1="872.3" x2="572.3" y2="1075" xlink:href="#Degradado_sin_nombre_2"/>
    <linearGradient id="Degradado_sin_nombre_231" data-name="Degradado sin nombre 2" x1="690" y1="953" x2="709.7" y2="972.7" xlink:href="#Degradado_sin_nombre_2"/>
    <linearGradient id="Degradado_sin_nombre_232" data-name="Degradado sin nombre 2" x1="904.2" y1="898.4" x2="1093.5" y2="1087.6" xlink:href="#Degradado_sin_nombre_2"/>
    <linearGradient id="Degradado_sin_nombre_233" data-name="Degradado sin nombre 2" x1="928.4" y1="872.3" x2="1131.2" y2="1075" xlink:href="#Degradado_sin_nombre_2"/>
    <linearGradient id="Degradado_sin_nombre_234" data-name="Degradado sin nombre 2" x1="784.1" y1="946.1" x2="817.7" y2="979.7" xlink:href="#Degradado_sin_nombre_2"/>
    <linearGradient id="Degradado_sin_nombre_235" data-name="Degradado sin nombre 2" x1="1393.5" y1="501.2" x2="1447.9" y2="555.5" xlink:href="#Degradado_sin_nombre_2"/>
    <linearGradient id="Degradado_sin_nombre_236" data-name="Degradado sin nombre 2" x1="1385.9" y1="633.1" x2="1476.9" y2="724" xlink:href="#Degradado_sin_nombre_2"/>
    <linearGradient id="Degradado_sin_nombre_237" data-name="Degradado sin nombre 2" x1="1359.8" y1="657.3" x2="1464.3" y2="761.8" xlink:href="#Degradado_sin_nombre_2"/>
    <linearGradient id="Degradado_sin_nombre_238" data-name="Degradado sin nombre 2" x1="1384.5" y1="562.1" x2="1418.1" y2="595.7" xlink:href="#Degradado_sin_nombre_2"/>
    <linearGradient id="Degradado_sin_nombre_239" data-name="Degradado sin nombre 2" x1="1385.9" y1="332.7" x2="1476.9" y2="423.6" xlink:href="#Degradado_sin_nombre_2"/>
    <linearGradient id="Degradado_sin_nombre_240" data-name="Degradado sin nombre 2" x1="1359.8" y1="295" x2="1464.3" y2="399.5" xlink:href="#Degradado_sin_nombre_2"/>
    <linearGradient id="Degradado_sin_nombre_241" data-name="Degradado sin nombre 2" x1="1391.4" y1="468" x2="1411.1" y2="487.7" xlink:href="#Degradado_sin_nombre_2"/>
    <linearGradient id="Degradado_sin_nombre_242" data-name="Degradado sin nombre 2" x1="52.9" y1="501.2" x2="107.2" y2="555.5" xlink:href="#Degradado_sin_nombre_2"/>
    <linearGradient id="Degradado_sin_nombre_243" data-name="Degradado sin nombre 2" x1="23.9" y1="332.7" x2="114.8" y2="423.7" xlink:href="#Degradado_sin_nombre_2"/>
    <linearGradient id="Degradado_sin_nombre_244" data-name="Degradado sin nombre 2" x1="36.5" y1="295" x2="141" y2="399.5" xlink:href="#Degradado_sin_nombre_2"/>
    <linearGradient id="Degradado_sin_nombre_245" data-name="Degradado sin nombre 2" x1="82.7" y1="461.1" x2="116.3" y2="494.7" xlink:href="#Degradado_sin_nombre_2"/>
    <linearGradient id="Degradado_sin_nombre_246" data-name="Degradado sin nombre 2" x1="23.9" y1="633.1" x2="114.9" y2="724" xlink:href="#Degradado_sin_nombre_2"/>
    <linearGradient id="Degradado_sin_nombre_247" data-name="Degradado sin nombre 2" x1="36.5" y1="657.3" x2="141" y2="761.8" xlink:href="#Degradado_sin_nombre_2"/>
    <linearGradient id="Degradado_sin_nombre_248" data-name="Degradado sin nombre 2" x1="89.6" y1="569" x2="109.4" y2="588.8" xlink:href="#Degradado_sin_nombre_2"/>
  </defs>
  <g>
    <g>
      <path class="st30" d="M1233.2,74.6c8.8,1.6,13.4-6.5,32.6-16.5,19.2-10,42.8,6.2,42.8,6.2,0,0-20.8-5-31.9-.9-11.1,4.1-10,16.5-6.6,20,3.3,3.5,9.5,0,9.2-4.7-.3-4.7,10.4-13.5,24.8-11.4,7.3,1,14.4,5.1,18.9,9.8,3.2,3.4,12.3,9.2,17.8,11.6,7.5,3.3,23.1,4.2,23.1,4.2,0,0-13.5-3.1-19.3-5.8-5.8-2.7-12-6.4-16.2-10-4.2-3.7-6.7-7.5-10.3-10.9-5.3-4.9-12.5-10.4-20.3-14.4-13.1-6.7-39-6.9-58.9,0-19.9,7-14.4,21.2-5.6,22.8Z"/>
      <path class="st44" d="M1369.7,90.9c14.7.8,30.3-3.1,35.8-5.9,5.5-2.8,9.6-6.5,9.6-6.5,0,0-18.6,7.4-32.1,2-13.5-5.4-18.3-18.3-15.7-22.3,2.6-4-1-10-5.6-8.7-4.6,1.3-11.8,11.6-4.2,20.7,7.5,9.1,28.1,15.2,28.1,15.2,0,0-28.5,2.2-40.2-16-11.7-18.2-11.6-27.6-20-30.6-8.4-3-20.3,6.6-6.6,22.6,13.7,16,36.3,28.8,51,29.5Z"/>
      <path class="st50" d="M1400.2,79.2c8.7-1.5,14.9-4.2,16.5-4.2,1.5,0,2.2,1,2.3,2.9,0,.3,0,.7-.1,1.2.5,0,.9-.1,1.2-.1,2,0,2.9.7,2.9,2.3,0,1.5-2.6,7.8-4.2,16.5-1.5,8.7,4.1,27.8,12.6,24.3,3.4-1.4.9-7.6-3.6-12.1-4.4-4.4-6.1-6.7-5.1-13.8,1-7.6,10.5-14.6,19.9-14.6,9.3,0,17,7.3,17,16.6,0,6.9-4.8,11.3-11.2,11.3-2.9,0-6.3-2-6.4-4.8,0-1.5,2.4-1.4,4.1-2.4,1.8-1,3.6-3.4,3.6-5.1,0-3.4-3-7-8.3-7-3.5,0-8.7,1.7-8.7,10,0,8.2,9.7,14.1,15.9,13.7,6.1-.5,17.5-8.7,19.1-15.7,1.5-7-1.3-15.2-6.5-20.3-5.2-5.2-12.8-6.5-17.9-5.6-5.1.9-10.8,6-13.6,6-1,0-1.8-.5-1.8-1.6,0-2.9,6.9-10.5,14.4-12.6,7.5-2.1,14.6,3,17.4,3,3.7,0,7.6-1.7,6.6-5.3-1-3.6-4.2-4.2-6.9-4.2-1.8,0-9.3,2.8-11,2.8-3.1,0-4.4-1.1-4.4-2.1,0-1,12.9-14.5,18.3-10.5,8.7,6.4,2.4-11.4.7-12.4-1-1.6-18.8-8-12.4.7,4,5.5-9.5,18.4-10.5,18.3-1,0-2.1-1.4-2.1-4.4,0-1.7,2.8-9.2,2.8-11,0-2.7-.6-5.9-4.2-6.9-3.6-1-5.3,2.9-5.3,6.6,0,2.8,5.1,9.9,3,17.4-2.1,7.5-9.7,14.4-12.6,14.4-1,0-1.6-.9-1.6-1.8,0-2.8,5.1-8.5,6-13.6.9-5.1-.4-12.7-5.6-17.9-5.2-5.2-13.4-8-20.3-6.5-7,1.5-15.2,12.9-15.6,19.1-.5,6.1,5.5,15.9,13.7,15.9s10-5.2,10-8.7c0-5.3-3.7-8.3-7-8.3-1.7,0-4.1,1.8-5.1,3.6-1,1.7-.9,4.1-2.4,4.1-2.8,0-4.8-3.4-4.8-6.4,0-6.4,4.4-11.2,11.3-11.2,9.3,0,16.6,7.7,16.6,17,0,9.4-7,18.9-14.6,19.9-7.1,1-9.4-.7-13.8-5.1-4.4-4.4-10.7-7-12.1-3.6-3.5,8.5,15.6,14.1,24.3,12.6Z"/>
      <path class="st42" d="M1412.9,92.4c-2.8,5.5-6.7,21.1-5.9,35.8.8,14.7,13.5,37.3,29.5,51,16,13.7,25.6,1.8,22.6-6.6-3-8.4-12.4-8.3-30.6-20-18.2-11.7-16-40.2-16-40.2,0,0,6.1,20.6,15.2,28.1,9.1,7.5,19.3.4,20.7-4.2,1.4-4.6-4.7-8.2-8.7-5.6-4,2.6-16.9-2.2-22.3-15.7-5.4-13.5,2-32.1,2-32.1,0,0-3.7,4.1-6.5,9.6Z"/>
      <path class="st8" d="M1423.3,264.7c1.6,8.8,15.8,14.3,22.8-5.6,7-19.9,6.8-45.8,0-58.9-3.9-7.7-9.5-15-14.4-20.3-3.4-3.7-7.2-6.1-10.9-10.3-3.7-4.2-7.3-10.4-10-16.2-2.7-5.8-5.8-19.3-5.8-19.3,0,0,.9,15.5,4.1,23.1,2.4,5.5,8.2,14.6,11.6,17.8,4.7,4.5,8.8,11.7,9.8,18.9,2.1,14.4-6.7,25-11.4,24.8-4.7-.3-8.2,5.9-4.7,9.2,3.5,3.3,15.9,4.4,20-6.6,4.1-11.1-.9-31.9-.9-31.9,0,0,16.2,23.6,6.2,42.8-10,19.2-18.1,23.8-16.5,32.6Z"/>
      <path class="st22" d="M1372.7,125.2c2.2,2.2,8.8-.7,20.1-12,11.2-11.2,20.7-28.8,20.7-28.8,0,0-17.5,9.4-28.8,20.7-11.2,11.2-14.2,17.8-12,20.1Z"/>
      <path class="st20" d="M172.4,76.9c-4.2,3.7-10.4,7.3-16.2,10-5.8,2.7-19.3,5.8-19.3,5.8,0,0,15.5-.9,23.1-4.2,5.5-2.4,14.6-8.2,17.8-11.6,4.5-4.7,11.7-8.8,18.9-9.8,14.4-2.1,25,6.7,24.8,11.4-.3,4.7,5.9,8.2,9.2,4.7,3.3-3.5,4.4-15.9-6.6-20-11.1-4.1-31.9.9-31.9.9,0,0,23.6-16.2,42.8-6.2,19.2,10,23.8,18.1,32.6,16.5,8.8-1.6,14.3-15.8-5.6-22.8-19.9-7-45.8-6.8-58.9,0-7.7,3.9-15,9.5-20.3,14.4-3.7,3.4-6.1,7.2-10.3,10.9Z"/>
      <path class="st54" d="M117.8,80.6c-13.5,5.4-32.1-2-32.1-2,0,0,4.1,3.7,9.6,6.5,5.5,2.8,21.1,6.7,35.8,5.9,14.7-.8,37.3-13.5,51-29.5,13.7-16,1.8-25.6-6.6-22.6-8.4,3-8.3,12.3-20,30.6-11.7,18.2-40.2,16-40.2,16,0,0,20.6-6.1,28.1-15.2,7.5-9.1.4-19.3-4.2-20.7-4.6-1.4-8.2,4.7-5.6,8.7,2.6,4-2.2,16.9-15.7,22.3Z"/>
      <path class="st12" d="M71.2,78.1c-2.8,0-8.5-5.1-13.6-6-5.1-.9-12.7.4-17.9,5.6-5.2,5.2-8,13.4-6.5,20.3,1.5,7,12.9,15.2,19.1,15.7,6.1.5,15.9-5.5,15.9-13.7,0-8.3-5.2-10-8.7-10-5.3,0-8.3,3.7-8.3,7,0,1.7,1.8,4.1,3.6,5.1,1.7,1,4.1.9,4.1,2.4,0,2.8-3.4,4.8-6.4,4.8-6.5,0-11.2-4.4-11.2-11.3,0-9.3,7.7-16.6,17-16.6,9.4,0,18.9,7,19.9,14.6,1,7.1-.7,9.4-5.1,13.8-4.4,4.4-7,10.7-3.6,12.1,8.5,3.5,14.1-15.6,12.6-24.3-1.5-8.7-4.2-14.9-4.2-16.5,0-1.5,1-2.2,2.9-2.3.3,0,.7,0,1.2.1,0-.5-.1-.9-.1-1.2,0-2,.7-2.9,2.3-2.9,1.5,0,7.8,2.6,16.5,4.2,8.7,1.5,27.8-4.1,24.3-12.6-1.4-3.4-7.6-.9-12.1,3.6-4.4,4.4-6.7,6.1-13.8,5.1-7.6-1-14.6-10.5-14.6-19.9,0-9.3,7.3-17,16.6-17,6.9,0,11.3,4.8,11.3,11.2,0,2.9-2,6.3-4.8,6.4-1.5,0-1.4-2.4-2.4-4.1-1-1.8-3.4-3.6-5.1-3.6-3.4,0-7,3-7,8.3,0,3.5,1.7,8.7,10,8.7s14.1-9.8,13.7-15.9c-.5-6.1-8.7-17.5-15.6-19.1-7-1.5-15.2,1.3-20.3,6.5-5.2,5.2-6.5,12.8-5.6,17.9.9,5.1,6,10.8,6,13.6,0,1-.5,1.8-1.6,1.8-2.9,0-10.5-6.9-12.6-14.4-2.1-7.5,3-14.6,3-17.4,0-3.7-1.7-7.6-5.3-6.6-3.6,1-4.2,4.2-4.2,6.9,0,1.8,2.8,9.3,2.8,11,0,3.1-1.1,4.4-2.1,4.4-1,0-14.5-12.9-10.5-18.3,6.4-8.7-11.4-2.4-12.4-.7-1.6,1-8,18.8.7,12.4,5.5-4,18.3,9.5,18.3,10.5,0,1-1.4,2.1-4.4,2.1-1.7,0-9.2-2.8-11-2.8-2.7,0-5.9.6-6.9,4.2-1,3.6,3,5.3,6.6,5.3,2.8,0,9.9-5.1,17.4-3,7.5,2.1,14.4,9.7,14.4,12.6,0,1-.8,1.6-1.8,1.6Z"/>
      <path class="st55" d="M72.2,152.6c-18.2,11.7-27.6,11.6-30.6,20-3,8.4,6.6,20.3,22.6,6.6,16-13.7,28.8-36.3,29.5-51,.8-14.7-3.1-30.3-5.9-35.8-2.8-5.5-6.5-9.6-6.5-9.6,0,0,7.4,18.6,2,32.1-5.4,13.5-18.3,18.3-22.3,15.7-4-2.6-10,1-8.7,5.6,1.4,4.6,11.6,11.8,20.7,4.2,9.1-7.5,15.2-28.1,15.2-28.1,0,0,2.2,28.5-16,40.2Z"/>
      <path class="st16" d="M79.8,175c3.4-3.2,9.2-12.3,11.6-17.8,3.3-7.5,4.1-23.1,4.1-23.1,0,0-3.1,13.5-5.8,19.3-2.7,5.8-6.4,12-10,16.2-3.7,4.2-7.5,6.7-10.9,10.3-4.9,5.3-10.4,12.5-14.4,20.3-6.7,13.1-6.9,39,0,58.9,7,19.9,21.2,14.4,22.8,5.6,1.6-8.8-6.5-13.4-16.5-32.6-10-19.2,6.2-42.8,6.2-42.8,0,0-5,20.8-.9,31.9,4.1,11,16.5,10,20,6.6,3.5-3.3,0-9.5-4.7-9.2-4.7.3-13.5-10.4-11.4-24.8,1-7.3,5.1-14.4,9.8-18.9Z"/>
      <path class="st36" d="M128,125.2c2.2-2.2-.7-8.8-12-20.1-11.2-11.2-28.8-20.7-28.8-20.7,0,0,9.4,17.5,20.7,28.8,11.2,11.2,17.8,14.2,20.1,12Z"/>
      <path class="st27" d="M267.6,982.1c-8.8-1.6-13.4,6.5-32.6,16.5-19.2,10-42.8-6.2-42.8-6.2,0,0,20.8,5,31.9.9,11.1-4.1,10-16.5,6.6-20-3.3-3.5-9.5,0-9.2,4.7.3,4.7-10.4,13.5-24.8,11.4-7.3-1-14.4-5.1-18.9-9.8-3.2-3.4-12.3-9.2-17.8-11.6-7.5-3.3-23.1-4.2-23.1-4.2,0,0,13.5,3.1,19.3,5.8,5.8,2.7,12,6.4,16.2,10,4.2,3.7,6.7,7.5,10.3,10.9,5.3,4.9,12.5,10.4,20.3,14.4,13.1,6.7,39,6.9,58.9,0,19.9-7,14.4-21.2,5.6-22.8Z"/>
      <path class="st43" d="M131,965.8c-14.7-.8-30.3,3.1-35.8,5.9-5.5,2.8-9.6,6.5-9.6,6.5,0,0,18.6-7.4,32.1-2,13.5,5.4,18.3,18.3,15.7,22.3-2.6,4,1,10,5.6,8.7,4.6-1.4,11.8-11.6,4.2-20.7-7.5-9.1-28.1-15.2-28.1-15.2,0,0,28.5-2.2,40.2,16,11.7,18.2,11.6,27.6,20,30.6,8.4,3,20.3-6.6,6.6-22.6-13.7-16-36.3-28.8-51-29.5Z"/>
      <path class="st41" d="M100.5,977.6c-8.7,1.5-14.9,4.2-16.5,4.2-1.5,0-2.2-1-2.3-2.9,0-.3,0-.7.1-1.2-.5,0-.9.1-1.2.1-2,0-2.9-.7-2.9-2.3,0-1.5,2.6-7.8,4.2-16.5,1.5-8.7-4.1-27.8-12.6-24.3-3.4,1.4-.9,7.6,3.6,12.1,4.4,4.4,6.1,6.7,5.1,13.8-1,7.6-10.5,14.6-19.9,14.6-9.3,0-17-7.3-17-16.6,0-6.9,4.8-11.3,11.2-11.3,2.9,0,6.3,2,6.4,4.8,0,1.5-2.4,1.4-4.1,2.4-1.8,1-3.6,3.4-3.6,5.1,0,3.4,3,7,8.3,7,3.5,0,8.7-1.7,8.7-10,0-8.2-9.7-14.1-15.9-13.7-6.1.5-17.5,8.7-19.1,15.7-1.5,7,1.3,15.2,6.5,20.3,5.2,5.2,12.8,6.5,17.9,5.6,5.1-.9,10.8-6,13.6-6,1,0,1.8.5,1.8,1.6,0,2.9-6.9,10.5-14.4,12.6-7.5,2.1-14.6-3-17.4-3-3.7,0-7.6,1.7-6.6,5.3,1,3.6,4.2,4.2,6.9,4.2,1.8,0,9.3-2.8,11-2.8,3.1,0,4.4,1.1,4.4,2.1,0,1-12.9,14.5-18.3,10.5-8.7-6.4-2.4,11.4-.7,12.4,1,1.6,18.8,8,12.4-.7-4-5.5,9.5-18.4,10.5-18.3,1,0,2.1,1.4,2.1,4.4,0,1.7-2.8,9.2-2.8,11,0,2.7.6,5.9,4.2,6.9,3.6,1,5.3-2.9,5.3-6.6,0-2.8-5.1-9.9-3-17.4,2.1-7.5,9.7-14.4,12.6-14.4,1,0,1.6.9,1.6,1.8,0,2.8-5.1,8.5-6,13.6-.9,5.1.4,12.7,5.6,17.9,5.2,5.2,13.4,8,20.3,6.5,7-1.5,15.2-12.9,15.6-19.1.5-6.1-5.5-15.9-13.7-15.9s-10,5.2-10,8.7c0,5.3,3.7,8.3,7,8.3,1.7,0,4.1-1.8,5.1-3.6,1-1.7.9-4.1,2.4-4.1,2.8,0,4.8,3.4,4.8,6.4,0,6.4-4.4,11.2-11.3,11.2-9.3,0-16.6-7.7-16.6-17,0-9.4,7-18.9,14.6-19.9,7.1-1,9.4.7,13.8,5.1,4.4,4.4,10.7,7,12.1,3.6,3.5-8.5-15.6-14.1-24.3-12.6Z"/>
      <path class="st46" d="M87.9,964.4c2.8-5.5,6.7-21.1,5.9-35.8-.8-14.7-13.5-37.3-29.5-51-16-13.7-25.6-1.8-22.6,6.6,3,8.4,12.4,8.3,30.6,20,18.2,11.7,16,40.2,16,40.2,0,0-6.1-20.6-15.2-28.1-9.1-7.5-19.3-.4-20.7,4.2-1.3,4.6,4.7,8.2,8.7,5.6,4-2.6,16.9,2.2,22.3,15.7,5.4,13.5-2,32.1-2,32.1,0,0,3.7-4.1,6.5-9.6Z"/>
      <path class="st26" d="M68.9,876.8c3.4,3.7,7.2,6.1,10.9,10.3,3.7,4.2,7.3,10.4,10,16.2,2.7,5.8,5.8,19.3,5.8,19.3,0,0-.9-15.5-4.1-23.1-2.4-5.5-8.2-14.6-11.6-17.8-4.7-4.5-8.8-11.7-9.8-18.9-2.1-14.4,6.7-25,11.4-24.8,4.7.3,8.2-5.9,4.7-9.2-3.5-3.3-15.9-4.4-20,6.6-4.1,11.1.9,31.9.9,31.9,0,0-16.2-23.6-6.2-42.8,10-19.2,18.1-23.8,16.5-32.6-1.6-8.8-15.8-14.3-22.8,5.6-7,19.9-6.8,45.8,0,58.9,3.9,7.7,9.5,15,14.4,20.3Z"/>
      <path class="st10" d="M128,931.6c-2.2-2.2-8.8.7-20.1,12-11.2,11.2-20.7,28.8-20.7,28.8,0,0,17.5-9.4,28.8-20.7,11.2-11.2,14.2-17.8,12-20.1Z"/>
      <path class="st45" d="M1328.3,979.8c4.2-3.7,10.4-7.3,16.2-10,5.8-2.7,19.3-5.8,19.3-5.8,0,0-15.5.9-23.1,4.2-5.5,2.4-14.6,8.2-17.8,11.6-4.5,4.7-11.7,8.8-18.9,9.8-14.4,2.1-25-6.7-24.8-11.4.3-4.7-5.9-8.2-9.2-4.7-3.3,3.5-4.4,15.9,6.6,20,11.1,4.1,31.9-.9,31.9-.9,0,0-23.6,16.2-42.8,6.2-19.2-10-23.8-18.1-32.6-16.5-8.8,1.6-14.3,15.8,5.6,22.8,19.9,7,45.8,6.8,58.9,0,7.7-3.9,15-9.5,20.3-14.4,3.7-3.4,6.1-7.2,10.3-10.9Z"/>
      <path class="st19" d="M1383,976.1c13.5-5.4,32.1,2,32.1,2,0,0-4.1-3.7-9.6-6.5-5.5-2.8-21.1-6.7-35.8-5.9-14.7.8-37.3,13.5-51,29.5-13.7,16-1.8,25.6,6.6,22.6,8.4-3,8.3-12.3,20-30.6,11.7-18.2,40.2-16,40.2-16,0,0-20.6,6.1-28.1,15.2-7.5,9.1-.4,19.3,4.2,20.7,4.6,1.3,8.2-4.7,5.6-8.7-2.6-4,2.2-16.9,15.7-22.3Z"/>
      <path class="st51" d="M1462.1,1009.2c-5.5,4-18.3-9.5-18.3-10.5,0-1,1.4-2.1,4.4-2.1,1.7,0,9.2,2.8,11,2.8,2.7,0,5.9-.6,6.9-4.2,1-3.6-3-5.3-6.6-5.3-2.8,0-9.9,5.1-17.4,3-7.5-2.1-14.4-9.7-14.4-12.6,0-1,.8-1.6,1.8-1.6,2.8,0,8.5,5.1,13.6,6,5.1.9,12.7-.4,17.9-5.6,5.2-5.2,8-13.4,6.5-20.3-1.5-7-12.9-15.2-19.1-15.7-6.1-.5-15.9,5.5-15.9,13.7,0,8.3,5.2,10,8.7,10,5.3,0,8.3-3.7,8.3-7,0-1.7-1.8-4.1-3.6-5.1-1.7-1-4.1-.9-4.1-2.4,0-2.8,3.4-4.8,6.4-4.8,6.5,0,11.2,4.4,11.2,11.3,0,9.3-7.7,16.6-17,16.6-9.4,0-18.9-7-19.9-14.6-1-7.1.7-9.4,5.1-13.8,4.4-4.4,7-10.7,3.6-12.1-8.5-3.5-14.1,15.6-12.6,24.3,1.5,8.7,4.2,14.9,4.2,16.5,0,1.5-1,2.2-2.9,2.3-.3,0-.7,0-1.2-.1,0,.5.1.9.1,1.2,0,2-.7,2.9-2.3,2.9-1.5,0-7.8-2.6-16.5-4.2-8.7-1.5-27.8,4.1-24.3,12.6,1.4,3.4,7.6.9,12.1-3.6,4.4-4.4,6.7-6.1,13.8-5.1,7.6,1,14.6,10.5,14.6,19.9,0,9.3-7.3,17-16.6,17-6.9,0-11.3-4.8-11.3-11.2,0-2.9,2-6.3,4.8-6.4,1.5,0,1.4,2.4,2.4,4.1,1,1.8,3.4,3.6,5.1,3.6,3.4,0,7-3,7-8.3,0-3.5-1.7-8.7-10-8.7s-14.1,9.8-13.7,15.9c.5,6.1,8.7,17.5,15.6,19.1,7,1.5,15.2-1.3,20.3-6.5,5.2-5.2,6.5-12.8,5.6-17.9-.9-5.1-6-10.8-6-13.6,0-1,.5-1.8,1.6-1.8,2.9,0,10.5,6.9,12.6,14.4,2.1,7.5-3,14.6-3,17.4,0,3.7,1.7,7.6,5.3,6.6,3.6-1,4.2-4.2,4.2-6.9,0-1.8-2.8-9.3-2.8-11,0-3.1,1.1-4.4,2.1-4.4,1,0,14.5,12.9,10.5,18.3-6.4,8.7,11.4,2.4,12.4.7,1.6-1,8-18.8-.7-12.4Z"/>
      <path class="st53" d="M1428.5,904.1c18.2-11.7,27.6-11.6,30.6-20,3-8.4-6.6-20.3-22.6-6.6-16,13.7-28.8,36.3-29.5,51-.8,14.7,3.1,30.3,5.9,35.8,2.8,5.5,6.5,9.6,6.5,9.6,0,0-7.4-18.6-2-32.1,5.4-13.5,18.3-18.3,22.3-15.7,4,2.6,10-1,8.7-5.6-1.4-4.6-11.6-11.8-20.7-4.2-9.1,7.5-15.2,28.1-15.2,28.1,0,0-2.2-28.5,16-40.2Z"/>
      <path class="st47" d="M1421,887.1c3.7-4.2,7.5-6.7,10.9-10.3,4.9-5.3,10.4-12.5,14.4-20.3,6.7-13.1,6.9-39,0-58.9-7-19.9-21.2-14.4-22.8-5.6-1.6,8.8,6.5,13.4,16.5,32.6,10,19.2-6.2,42.8-6.2,42.8,0,0,5-20.8.9-31.9-4.1-11.1-16.5-10-20-6.6-3.5,3.3,0,9.5,4.7,9.2,4.7-.3,13.5,10.4,11.4,24.8-1,7.3-5.1,14.4-9.8,18.9-3.4,3.2-9.2,12.3-11.6,17.8-3.3,7.5-4.1,23.1-4.1,23.1,0,0,3.1-13.5,5.8-19.3,2.7-5.8,6.4-12,10-16.2Z"/>
      <path class="st4" d="M1413.5,972.3s-9.4-17.5-20.7-28.8c-11.2-11.2-17.8-14.2-20.1-12-2.2,2.2.7,8.8,12,20.1,11.2,11.2,28.8,20.7,28.8,20.7Z"/>
    </g>
    <g>
      <g>
        <g>
          <path class="st35" d="M1186.5,65.5c0,2-1.7,3.7-3.7,3.7h-368c-2,0-3.7-1.7-3.7-3.7h0c0-2,1.7-3.7,3.7-3.7h368c2,0,3.7,1.7,3.7,3.7h0Z"/>
          <path class="st17" d="M1231,86.6c0,2-1.7,3.7-3.7,3.7l-395-1.7c-2,0-3.7-1.7-3.7-3.7h0c0-2,1.7-3.7,3.7-3.7l395,1.7c2,0,3.7,1.7,3.7,3.7h0Z"/>
        </g>
        <g>
          <path class="st39" d="M314.2,67.2c0,2,1.7,3.7,3.7,3.7l368-1.7c2,0,3.7-1.7,3.7-3.7h0c0-2-1.7-3.7-3.7-3.7l-368,1.7c-2,0-3.7,1.7-3.7,3.7h0Z"/>
          <path class="st23" d="M269.7,86.6c0,2,1.7,3.7,3.7,3.7l395-1.7c2,0,3.7-1.7,3.7-3.7h0c0-2-1.7-3.7-3.7-3.7l-395,1.7c-2,0-3.7,1.7-3.7,3.7h0Z"/>
        </g>
      </g>
      <path class="st21" d="M712.6,988.6c3.3,3.9,12.6,6.1,17.3,1.3,4.9-4.9,2.8-8.9.7-11-3.1-3.1-7-2.7-9-.7-1,1-1.3,3.5-.8,5.1.4,1.6,1.9,2.9,1,3.8-1.7,1.7-4.8.8-6.6-.9-3.8-3.8-4-9.2,0-13.2,5.5-5.5,14.3-5.2,19.7.2,5.5,5.5,7,15.2,3.1,20.3-3.6,4.8-5.9,5.1-11.1,5.1s-10.4,2.2-9.2,5c2.9,7,17.5-.9,21.7-6.9,4.2-6,6.3-11.2,7.2-12.1.8-.8,1.7-.7,2.7.1-2,5.7-6.2,18.3-6.2,21.4s3.2,7.2,7.2,7.2,7.2-3.2,7.2-7.2-4.2-15.6-6.2-21.4c1-.8,1.9-.9,2.7,0,.9.9,3,6.1,7.2,12.1,4.2,6,18.7,13.9,21.7,6.9,1.2-2.8-4-5-9.2-5s-7.5-.3-11.1-5.1c-3.9-5.1-2.4-14.7,3.1-20.3,5.5-5.4,14.3-5.7,19.7-.2,4,4,3.8,9.4,0,13.2-1.7,1.7-4.9,2.6-6.6.9-.9-.9.6-2.2,1-3.8.5-1.6.1-4.1-.8-5.1-2-2-5.9-2.4-9,.7-2.1,2-4.1,6.1.7,11,4.8,4.8,14,2.6,17.3-1.3,3.3-3.9,5.2-15.4,2-20.4-3.2-5-9.6-8.2-15.8-8.1-6.1,0-11.3,3.7-13.8,7.2-2.5,3.5-2.8,9.9-4.5,11.5-.6.6-1.4.8-2,.2-1.7-1.7-2.1-10.2,1-15.9,3.2-5.6,10.3-6.8,12-8.5,2.2-2.1,3.5-5.5.8-7-2.7-1.6-5,0-6.5,1.6-1.1,1.1-3.8,7.1-4.8,8.2-1.8,1.8-3.3,1.9-3.9,1.4-.6-.6-1-16.1,4.6-16.9,8.8-1.4-5.3-8.1-6.9-7.7-1.5-.4-15.7,6.4-6.9,7.7,5.6.9,5.2,16.4,4.6,16.9-.6.6-2,.4-3.9-1.4-1-1-3.7-7.1-4.8-8.2-1.6-1.6-3.8-3.1-6.5-1.6-2.7,1.5-1.4,4.9.7,7,1.7,1.7,8.8,2.9,12,8.5,3.2,5.6,2.7,14.1,1,15.9-.6.6-1.4.4-2-.2-1.7-1.7-2-8-4.5-11.5-2.5-3.5-7.7-7.2-13.8-7.2-6.1,0-12.6,3.2-15.8,8.1-3.2,5-1.3,16.5,2,20.4Z"/>
      <g>
        <g>
          <path class="st14" d="M314.2,993c0-2,1.7-3.7,3.7-3.7h368c2,0,3.7,1.7,3.7,3.7h0c0,2-1.7,3.7-3.7,3.7h-368c-2,0-3.7-1.7-3.7-3.7h0Z"/>
          <path class="st25" d="M269.7,973.6c0-2,1.7-3.7,3.7-3.7h395c2,0,3.7,1.7,3.7,3.7h0c0,2-1.7,3.7-3.7,3.7h-395c-2,0-3.7-1.7-3.7-3.7h0Z"/>
          <path class="st13" d="M726.5,955.9s-13.1-2.6-21.7,3.8c-8.7,6.4-8.8,16-9.2,18.7-.4,2.7-9.2,6.9-13.3.1-4.1-6.8,0-24.3,13.1-27.3,18.1-4.1,31.1,4.7,31.1,4.7Z"/>
        </g>
        <g>
          <path class="st11" d="M1186.5,993c0-2-1.7-3.7-3.7-3.7h-368c-2,0-3.7,1.7-3.7,3.7h0c0,2,1.7,3.7,3.7,3.7h368c2,0,3.7-1.7,3.7-3.7h0Z"/>
          <path class="st48" d="M1231,973.6c0-2-1.7-3.7-3.7-3.7h-395c-2,0-3.7,1.7-3.7,3.7h0c0,2,1.7,3.7,3.7,3.7h395c2,0,3.7-1.7,3.7-3.7h0Z"/>
          <path class="st28" d="M774.2,955.9s13.1-2.6,21.7,3.8c8.7,6.4,8.8,16,9.2,18.7.4,2.7,9.2,6.9,13.3.1,4.1-6.8,0-24.3-13.1-27.3-18.1-4.1-31.1,4.7-31.1,4.7Z"/>
        </g>
      </g>
    </g>
    <g>
      <g>
        <path class="st7" d="M1444.4,535.5c3.9,0,7.2-3.2,7.2-7.2s-3.2-7.2-7.2-7.2-15.6,4.2-21.4,6.2c-.8-1-.9-1.9,0-2.7.9-.9,6.1-3,12.1-7.2,6-4.2,13.9-18.7,6.9-21.7-2.8-1.2-5,4-5,9.2s-.3,7.5-5.1,11.1c-5.1,3.9-14.7,2.4-20.3-3.1-5.4-5.5-5.7-14.3-.2-19.7,4-4.1,9.4-3.8,13.2,0,1.7,1.7,2.6,4.9.9,6.6-.9.9-2.2-.6-3.8-1-1.6-.5-4.1-.1-5.1.8-2,2-2.4,5.9.7,9,2,2.1,6.1,4.1,11-.7,4.8-4.8,2.6-14-1.3-17.4-3.9-3.3-15.4-5.2-20.4-2-5,3.2-8.2,9.6-8.1,15.8,0,6.1,3.7,11.3,7.2,13.8,3.5,2.5,9.9,2.8,11.5,4.5.6.6.8,1.4.2,2-1.7,1.7-10.2,2.1-15.9-1-5.6-3.2-6.8-10.3-8.5-12-2.1-2.1-5.5-3.5-7-.7-1.6,2.7,0,5,1.6,6.5,1.1,1.1,7.1,3.8,8.2,4.8,1.8,1.8,1.9,3.3,1.4,3.9-.6.6-16.1,1-16.9-4.6-1.4-8.8-8.1,5.3-7.7,6.9-.4,1.5,6.4,15.7,7.7,6.9.9-5.6,16.4-5.2,16.9-4.6.6.6.4,2-1.4,3.9-1,1-7.1,3.7-8.2,4.8-1.6,1.6-3.1,3.8-1.6,6.5,1.5,2.7,4.9,1.4,7-.7,1.7-1.7,2.9-8.8,8.5-12,5.6-3.2,14.1-2.7,15.9-1,.6.6.4,1.4-.2,2-1.7,1.7-8,2-11.5,4.5-3.5,2.5-7.2,7.7-7.2,13.8,0,6.1,3.2,12.6,8.1,15.8,5,3.2,16.5,1.3,20.4-2,3.9-3.3,6.1-12.6,1.3-17.4-4.9-4.9-8.9-2.8-11-.7-3.1,3.1-2.7,7-.7,9,1,1,3.5,1.3,5.1.8,1.6-.4,2.9-1.9,3.8-1,1.7,1.7.8,4.8-.9,6.6-3.8,3.8-9.2,4-13.2,0-5.5-5.5-5.2-14.3.2-19.7,5.5-5.5,15.2-6.9,20.3-3.1,4.8,3.6,5.1,5.9,5.1,11.1s2.2,10.4,5,9.2c7-2.9-.9-17.5-6.9-21.7-6-4.2-11.2-6.3-12.1-7.2-.8-.8-.7-1.7.1-2.7,5.7,2,18.3,6.2,21.4,6.2Z"/>
        <path class="st38" d="M1431.4,589.2c-2,0-3.7,1.7-3.7,3.7v171.4c0,2,1.7,3.7,3.7,3.7s3.7-1.7,3.7-3.7v-171.4c0-2-1.7-3.7-3.7-3.7Z"/>
        <path class="st34" d="M1412,606.6c-2,0-3.7,1.7-3.7,3.7v198.5c0,2,1.7,3.7,3.7,3.7s3.7-1.7,3.7-3.7v-198.5c0-2-1.7-3.7-3.7-3.7Z"/>
        <path class="st33" d="M1416.8,583.2c-2.7-.4-12.3-.6-18.7-9.2-6.4-8.7-3.8-21.7-3.8-21.7,0,0-8.8,13-4.7,31.1,3,13.2,20.5,17.2,27.3,13.1,6.8-4.1,2.6-12.9-.1-13.3Z"/>
        <path class="st52" d="M1431.4,467.6c2,0,3.7-1.7,3.7-3.7v-171.4c0-2-1.7-3.7-3.7-3.7s-3.7,1.7-3.7,3.7v171.4c0,2,1.7,3.7,3.7,3.7Z"/>
        <path class="st29" d="M1412,450.2c2,0,3.7-1.7,3.7-3.7v-198.5c0-2-1.7-3.7-3.7-3.7s-3.7,1.7-3.7,3.7v198.5c0,2,1.7,3.7,3.7,3.7Z"/>
        <path class="st49" d="M1398.1,482.8c6.4-8.7,16-8.8,18.7-9.2,2.7-.4,6.9-9.2.1-13.3-6.8-4.1-24.3,0-27.3,13.1-4.1,18.1,4.7,31.1,4.7,31.1,0,0-2.6-13.1,3.8-21.7Z"/>
      </g>
      <g>
        <path class="st6" d="M56.3,521.2c-3.9,0-7.2,3.2-7.2,7.2s3.2,7.2,7.2,7.2,15.6-4.2,21.4-6.2c.8,1,.9,1.9,0,2.7-.9.9-6.1,3-12.1,7.2-6,4.2-13.9,18.7-6.9,21.7,2.8,1.2,5-4,5-9.2s.3-7.5,5.1-11.1c5.1-3.9,14.7-2.4,20.3,3.1,5.4,5.5,5.7,14.3.2,19.7-4.1,4.1-9.4,3.8-13.2,0-1.7-1.7-2.6-4.9-.9-6.6.9-.9,2.2.6,3.8,1,1.6.5,4.1.1,5.1-.8,2-2,2.4-5.9-.7-9-2-2.1-6.1-4.1-11,.7-4.8,4.8-2.6,14,1.3,17.4,3.9,3.3,15.4,5.2,20.4,2,5-3.2,8.2-9.6,8.1-15.8,0-6.1-3.7-11.3-7.2-13.8-3.5-2.5-9.9-2.8-11.5-4.5-.6-.6-.8-1.4-.2-2,1.7-1.7,10.2-2.1,15.9,1,5.6,3.2,6.8,10.3,8.5,12,2.1,2.1,5.5,3.5,7,.7,1.6-2.7,0-5-1.6-6.5-1.1-1.1-7.1-3.8-8.2-4.8-1.8-1.8-1.9-3.3-1.4-3.9.6-.6,16.1-1,16.9,4.6,1.3,8.8,8.1-5.3,7.7-6.9.4-1.5-6.4-15.7-7.7-6.9-.9,5.6-16.4,5.2-16.9,4.6-.6-.6-.4-2,1.4-3.9,1-1,7.1-3.7,8.2-4.8,1.6-1.6,3.1-3.8,1.6-6.5-1.5-2.7-4.9-1.4-7,.7-1.7,1.7-2.9,8.8-8.5,12-5.6,3.2-14.1,2.7-15.9,1-.6-.6-.4-1.4.2-2,1.7-1.7,8-2,11.5-4.5,3.5-2.5,7.2-7.7,7.2-13.8,0-6.1-3.2-12.6-8.1-15.8-5-3.2-16.5-1.3-20.4,2-3.9,3.3-6.1,12.6-1.3,17.4,4.9,4.9,8.9,2.8,11,.7,3.1-3.1,2.7-7,.7-9-1-1-3.5-1.3-5.1-.8-1.6.4-2.9,1.9-3.8,1-1.7-1.7-.8-4.8.9-6.6,3.8-3.8,9.2-4,13.2,0,5.5,5.5,5.2,14.3-.2,19.7-5.5,5.5-15.2,6.9-20.3,3.1-4.8-3.6-5.1-5.9-5.1-11.1s-2.2-10.4-5-9.2c-7,2.9.9,17.5,6.9,21.7,6,4.2,11.2,6.3,12.1,7.2.8.8.7,1.7-.1,2.7-5.7-2-18.3-6.2-21.4-6.2Z"/>
        <path class="st18" d="M69.4,467.6c2,0,3.7-1.7,3.7-3.7v-171.4c0-2-1.7-3.7-3.7-3.7s-3.7,1.7-3.7,3.7v171.4c0,2,1.7,3.7,3.7,3.7Z"/>
        <path class="st24" d="M88.7,450.2c2,0,3.7-1.7,3.7-3.7v-198.5c0-2-1.7-3.7-3.7-3.7s-3.7,1.7-3.7,3.7v198.5c0,2,1.7,3.7,3.7,3.7Z"/>
        <path class="st37" d="M84,473.6c2.7.4,12.3.6,18.7,9.2,6.4,8.7,3.8,21.7,3.8,21.7,0,0,8.8-13,4.7-31.1-3-13.2-20.5-17.2-27.3-13.1-6.8,4.1-2.6,12.9.1,13.3Z"/>
        <path class="st15" d="M69.4,589.2c-2,0-3.7,1.7-3.7,3.7v171.4c0,2,1.7,3.7,3.7,3.7s3.7-1.7,3.7-3.7v-171.4c0-2-1.7-3.7-3.7-3.7Z"/>
        <path class="st5" d="M88.7,606.6c-2,0-3.7,1.7-3.7,3.7v198.5c0,2,1.7,3.7,3.7,3.7s3.7-1.7,3.7-3.7v-198.5c0-2-1.7-3.7-3.7-3.7Z"/>
        <path class="st32" d="M102.6,574c-6.4,8.7-16,8.8-18.7,9.2-2.7.4-6.9,9.2-.1,13.3,6.8,4.1,24.3,0,27.3-13.1,4.1-18.1-4.7-31.1-4.7-31.1,0,0,2.6,13.1-3.8,21.7Z"/>
      </g>
    </g>
  </g>
  <g>
    <g>
      <path class="st1" d="M751,114l-11.8-19.6v15.8h3.1v11.5h-20.3v-12h2.3v-28.7h-2.3v-12.4h15.1l12.7,22.3,13.1-21.8h17v12h-3.2v29.2h3.1v11.5h-20.1v-12h2.4v-13.8s-11.1,18.1-11.1,18.1Z"/>
      <path class="st31" d="M779.9,121.8h-20.5v-12.4h2.4v-12.9l-10.9,17.8v-.3c-.1,0-11.6-19.1-11.6-19.1v14.9h3.1v12h-20.7v-12.4h2.3v-28.4h-2.3v-12.8h15.4c0,0,12.5,22.1,12.5,22.1l12.9-21.6h17.3v12.3h-3.2v28.8h3.1v12h0ZM759.9,121.5h19.7v-11.2h-3.1v-29.6h3.2v-11.6h-16.7l-13.2,22-12.8-22.4h-14.8v12.1h2.3v29.6l-2.3-.4v11.7h20v-11.2h-3.1v-16.6l12,19.9,11.2-18.4v14.7h-2.4v11.7-.2Z"/>
    </g>
    <path class="st31" d="M711,97.8h-9.2l-5-5v-9.2l5-5.1h13.8l5,5.1v6.1h-8.6v-3.1l-1-1h-4.6l-1,1v3.1l1,1h9.2l5,5.1v9.1l-5,5h-13.8l-5-5v-6h8.6v2.9l1,1h4.6l1-1v-3l-1-1h0Z"/>
    <path class="st31" d="M749.6,114.1l-11.5-19.1v13.7h3.1v11.9h-20.8v-11.9h3.1v-28.9h-3.1v-11.9h16.9l12.2,20.3,12.2-20.3h16.8v12h-3.1v28.9h3.3v11.9h-20.8v-11.9h3.1v-13.7l-11.5,19.1h0Z"/>
    <path class="st31" d="M802.7,92.5v12.4l-5.1,5h-13.9l-5.1-5v-21.3l5.1-5.1h13.9l5.1,5.1v7h-8.7v-3.9l-1-1h-4.6l-1,1v15.2l1,1h4.6l1-1v-2.9h-2.4v-6.4h11.1,0Z"/>
    <g>
      <polygon class="st0" points="749.7 44.4 752.2 51.8 760.4 51.8 753.7 56.3 756.3 63.7 749.7 59.1 743.1 63.7 745.6 56.3 739 51.8 747.2 51.8 749.7 44.4"/>
      <path class="st31" d="M756.7,64.2l-7-4.8-7,4.8,2.7-7.8-7-4.8h8.6l2.6-7.8,2.6,7.8h8.6l-7,4.8,2.7,7.8h0ZM739.7,52l6.2,4.3-2.4,7,6.2-4.3,6.2,4.3-2.4-7,6.2-4.3h-7.7l-2.3-7-2.3,7h-7.7.1Z"/>
    </g>
    <g>
      <polygon class="st0" points="771.1 52.2 772.6 56.6 777.4 56.6 773.5 59.2 775 63.7 771.1 61 767.2 63.7 768.7 59.2 764.8 56.6 769.6 56.6 771.1 52.2"/>
      <path class="st31" d="M775.4,64.2l-4.3-3-4.3,3,1.6-4.8-4.3-3h5.3l1.6-4.8,1.6,4.8h5.3l-4.3,3,1.6,4.8h0ZM765.5,56.8l3.5,2.4-1.4,3.9,3.5-2.4,3.5,2.4-1.4-3.9,3.5-2.4h-4.3l-1.4-3.9-1.4,3.9h-4.3.1Z"/>
    </g>
    <g>
      <polygon class="st0" points="787.3 57 788.2 59.5 790.9 59.5 788.7 61.1 789.6 63.7 787.3 62 785 63.7 785.9 61.1 783.6 59.5 786.5 59.5 787.3 57"/>
      <path class="st31" d="M789.9,64.2l-2.7-1.8-2.7,1.8,1-3-2.7-1.8h3.3l1-3,1,3h3.3l-2.7,1.8,1,3h.1ZM784.3,59.7l1.8,1.3-.7,2.1,1.8-1.3,1.8,1.3-.7-2.1,1.8-1.3h-2.3l-.7-2.1-.7,2.1h-2.3Z"/>
    </g>
    <g>
      <polygon class="st0" points="728.1 52.3 726.6 56.6 721.8 56.6 725.7 59.3 724.2 63.7 728.1 61 732 63.7 730.5 59.3 734.3 56.6 729.6 56.6 728.1 52.3"/>
      <path class="st31" d="M723.8,64.2l1.6-4.8-4.3-3h5.3l1.6-4.8,1.6,4.8h5.3l-4.3,2.9,1.6,4.8-4.3-3-4.3,3h0ZM728.1,60.7l3.5,2.4-1.4-3.9,3.5-2.4h-4.3l-1.4-3.9-1.4,3.9h-4.3l3.5,2.3-1.4,3.9,3.5-2.4h0Z"/>
    </g>
    <g>
      <polygon class="st0" points="711.9 57 711.1 59.5 708.3 59.5 710.6 61.1 709.7 63.7 711.9 62 714.2 63.7 713.3 61.1 715.6 59.5 712.8 59.5 711.9 57"/>
      <path class="st31" d="M714.6,64.2l-2.7-1.8-2.7,1.8,1-3-2.7-1.8h3.3l1-3,1,3h3.3l-2.7,1.8,1,3h.1ZM708.9,59.7l1.8,1.3-.7,2.1,1.8-1.3,1.8,1.3-.7-2.1,1.8-1.3h-2.3l-.7-2.1-.7,2.1s-2.3,0-2.3,0Z"/>
    </g>
  </g>
  <g class="st40">
    <g>
      <path class="st1" d="M754.4,637.9l-41.6-69.1v55.6h10.8v40.6h-71.6v-42.3h8v-101.2h-8v-43.8h53.1l44.8,78.4,46.1-76.6h59.8v42.1h-11.3v102.9h11v40.6h-70.6v-42.3h8.5v-48.6s-39.1,63.8-39.1,63.8Z"/>
      <path class="st31" d="M856,665.7h-72.1v-43.6h8.5v-45.6l-38.3,62.6-.5-1-40.3-67.1v52.6h10.8v42.1h-72.9v-43.6h8v-99.9h-8v-45.1h54.3c0,.3,44.1,77.6,44.1,77.6l45.6-75.9h60.8v43.3h-11.3v101.4h11v42.1h.3ZM785.4,664.5h69.4v-39.3h-11v-104.2h11.3v-40.8h-58.8l-46.3,77.4-45.1-78.9h-52.1v42.6h8v104.2l-8-1.5v41.1h70.4v-39.3h-11v-58.3l42.3,70.1,39.6-64.9v51.6h-8.5v41.1-.8Z"/>
    </g>
    <path class="st31" d="M613.4,581.1h-32.6l-17.5-17.5v-32.6l17.5-17.8h48.6l17.5,17.8v21.5h-30.3v-10.8l-3.5-3.5h-16l-3.5,3.5v11l3.5,3.5h32.3l17.5,17.8v32l-17.5,17.5h-48.6l-17.5-17.5v-21.3h30.3v10.3l3.5,3.5h16l3.5-3.5v-10.5l-3.5-3.5h.3Z"/>
    <path class="st31" d="M749.3,638.4l-40.6-67.1v48.1h11v41.8h-73.4v-41.8h11v-101.7h-11v-41.8h59.6l43.1,71.6,43.1-71.6h59.1v42.1h-11v101.7h11.8v41.8h-73.4v-41.8h11v-48.1l-40.6,67.1.3-.3Z"/>
    <path class="st31" d="M936.1,562.3v43.6l-17.8,17.5h-49.1l-17.8-17.5v-74.9l17.8-17.8h49.1l17.8,17.8v24.5h-30.5v-13.8l-3.5-3.5h-16.3l-3.5,3.5v53.6l3.5,3.5h16.3l3.5-3.5v-10.3h-8.5v-22.5h39.1v-.3Z"/>
    <g>
      <polygon class="st0" points="749.6 393.3 758.4 419.1 787.2 419.1 763.9 435.1 772.9 460.9 749.6 444.9 726.6 460.9 735.3 435.1 712 419.1 740.8 419.1 749.6 393.3"/>
      <path class="st31" d="M774.1,462.6l-24.5-17-24.5,17,9.5-27.3-24.5-17h30.3l9.3-27.3,9.3,27.3h30.3l-24.5,16.8,9.5,27.3v.3ZM714.3,419.8l21.8,15-8.5,24.5,21.8-15.3,21.8,15.3-8.5-24.5,21.8-15h-27l-8.3-24.5-8.3,24.5h-27,.5Z"/>
    </g>
    <g>
      <polygon class="st0" points="825 420.6 830.2 436.1 847.2 436.1 833.5 445.4 838.7 460.9 825 451.4 811.2 460.9 816.4 445.4 802.7 436.1 819.7 436.1 825 420.6"/>
      <path class="st31" d="M840.2,462.6l-15-10.5-15.3,10.5,5.8-17-15.3-10.5h18.8l5.8-16.8,5.8,16.8h18.8l-15.3,10.5,5.8,17h.3ZM805.2,436.9l12.3,8.5-4.8,13.8,12.3-8.5,12.3,8.5-4.8-13.8,12.3-8.5h-15.3l-4.8-13.8-4.8,13.8h-15.3.5Z"/>
    </g>
    <g>
      <polygon class="st0" points="882 437.4 885.1 446.4 894.8 446.4 886.8 451.9 890.1 460.9 882 455.1 874 460.9 877 451.9 869 446.4 879 446.4 882 437.4"/>
      <path class="st31" d="M891.3,462.6l-9.5-6.5-9.5,6.5,3.5-10.5-9.5-6.5h11.8l3.5-10.5,3.5,10.5h11.8l-9.5,6.5,3.5,10.5h.5ZM871.5,447.1l6.5,4.5-2.5,7.3,6.5-4.5,6.5,4.5-2.5-7.3,6.5-4.5h-8l-2.5-7.3-2.5,7.5h-8v-.3Z"/>
    </g>
    <g>
      <polygon class="st0" points="673.5 421.1 668.5 436.1 651.4 436.1 665.2 445.6 660 460.9 673.5 451.4 687.2 460.9 682 445.6 695.5 436.1 678.7 436.1 673.5 421.1"/>
      <path class="st31" d="M658.5,462.6l5.8-16.8-15-10.5h18.8l5.8-16.8,5.8,16.8h18.8l-15.3,10.3,5.8,16.8-15-10.5-15,10.5-.3.3ZM673.5,450.6l12.3,8.5-4.8-13.8,12.3-8.5h-15l-4.8-13.8-4.8,13.8h-15l12.3,8.3-4.8,13.8,12.3-8.5v.3Z"/>
    </g>
    <g>
      <polygon class="st0" points="616.6 437.4 613.6 446.4 603.9 446.4 611.9 451.9 608.9 460.9 616.6 455.1 624.7 460.9 621.6 451.9 629.7 446.4 619.9 446.4 616.6 437.4"/>
      <path class="st31" d="M626.2,462.6l-9.5-6.5-9.5,6.5,3.5-10.5-9.5-6.5h11.8l3.5-10.5,3.5,10.5h11.8l-9.5,6.5,3.5,10.5h.5ZM606.1,447.1l6.5,4.5-2.5,7.3,6.5-4.5,6.5,4.5-2.5-7.3,6.5-4.5h-8l-2.5-7.3-2.5,7.3s-8,0-8,0Z"/>
    </g>
  </g>
  <g id="BRASIL">
    <path class="st2" d="M266.3,193.2c32.2,0,58.5,26.3,58.5,58.5s-26.3,58.5-58.5,58.5-58.5-26.3-58.5-58.5,26.3-58.5,58.5-58.5h0Z"/>
    <path class="st3" d="M284.3,228.1l.8,2.1h2.3c0,.1-1.7,1.6-1.7,1.6l.6,2.2-1.9-1.2-1.9,1.2.6-2.2-1.7-1.4h2.3c0-.1.8-2.3.8-2.3h0ZM280.1,245.8l.6,1.5h1.6c0,.1-1.3,1.1-1.3,1.1l.4,1.6-1.4-.9-1.4.9.4-1.6-1.3-1h1.6c0-.1.6-1.6.6-1.6h0ZM218.8,238.9l.8,2.1h2.3c0,.1-1.7,1.6-1.7,1.6l.6,2.2-1.9-1.2-1.9,1.2.6-2.2-1.7-1.4h2.3c0-.1.8-2.3.8-2.3h0ZM243.5,251.4l.7,1.8h1.9c0,.1-1.5,1.3-1.5,1.3l.5,1.9-1.6-1-1.6,1,.5-1.9-1.5-1.2h1.9c0-.1.7-1.9.7-1.9ZM228.9,260.9l.5,1.1h1.2c0,0-.9.9-.9.9l.3,1.2-1-.7-1,.7.3-1.2-.9-.8h1.2c0,0,.5-1.2.5-1.2h0ZM223.6,263.2l.8,2.1h2.3c0,.1-1.7,1.6-1.7,1.6l.6,2.2-1.9-1.2-1.9,1.2.6-2.2-1.7-1.5h2.3c0-.1.8-2.3.8-2.3ZM217.4,268.8l.7,1.8h1.9c0,.1-1.5,1.3-1.5,1.3l.5,1.9-1.6-1-1.6,1,.5-1.9-1.5-1.2h1.9c0-.1.7-1.9.7-1.9h0ZM235.4,269.3l.7,1.8h1.9c0,.1-1.5,1.3-1.5,1.3l.5,1.9-1.6-1-1.6,1,.5-1.9-1.5-1.2h1.9c0-.1.7-1.9.7-1.9h0ZM233.3,275.8l.6,1.5h1.6c0,.1-1.3,1.1-1.3,1.1l.4,1.6-1.4-.9-1.4.9.4-1.6-1.3-1h1.6c0-.1.6-1.6.6-1.6h0ZM241.8,280.9l.8,2.1h2.3c0,.1-1.7,1.6-1.7,1.6l.6,2.2-1.9-1.2-1.9,1.2.6-2.2-1.7-1.5h2.3c0-.1.8-2.3.8-2.3h0ZM266.7,297l.3.8h.9c0,0-.7.6-.7.6l.2.8-.7-.5-.7.5.2-.8-.7-.6h.9c0,0,.3-.9.3-.9h0ZM266.8,259.3l.7,1.8h1.9c0,.1-1.5,1.3-1.5,1.3l.5,1.9-1.6-1-1.6,1,.5-1.9-1.5-1.2h1.9c0-.1.7-1.9.7-1.9ZM272.2,264.3l.7,1.8h1.9c0,.1-1.5,1.3-1.5,1.3l.5,1.9-1.6-1-1.6,1,.5-1.9-1.5-1.2h1.9c0-.1.7-1.9.7-1.9ZM263,269l.5,1.1h1.2c0,0-.9.9-.9.9l.3,1.2-1-.7-1,.7.3-1.2-.9-.8h1.2c0,0,.5-1.2.5-1.2ZM258.7,265.3l.6,1.5h1.6c0,.1-1.3,1.1-1.3,1.1l.4,1.6-1.4-.9-1.4.9.4-1.6-1.3-1h1.6c0-.1.6-1.6.6-1.6h0ZM266.5,275.8l.8,2.1h2.3c0,.1-1.7,1.6-1.7,1.6l.6,2.2-1.9-1.2-1.9,1.2.6-2.2-1.7-1.4h2.3c0-.1.8-2.3.8-2.3h0ZM278.6,282.7l.6,1.5h1.6c0,.1-1.3,1.1-1.3,1.1l.4,1.6-1.4-.9-1.4.9.4-1.6-1.3-1h1.6c0-.1.6-1.6.6-1.6h0ZM283.4,289.5l.7,1.8h1.9c0,.1-1.5,1.3-1.5,1.3l.5,1.9-1.6-1-1.6,1,.5-1.9-1.5-1.2h1.9c0-.1.7-1.9.7-1.9ZM288.7,284.2l.6,1.5h1.6c0,.1-1.3,1.1-1.3,1.1l.4,1.6-1.4-.9-1.4.9.4-1.6-1.3-1h1.6c0-.1.6-1.6.6-1.6h0ZM295.7,294.7l.6,1.5h1.6c0,.1-1.3,1.1-1.3,1.1l.4,1.6-1.4-.9-1.4.9.4-1.6-1.3-1h1.6c0-.1.6-1.6.6-1.6h0ZM295.8,288.1l.7,1.8h1.9c0,.1-1.5,1.3-1.5,1.3l.5,1.9-1.6-1-1.6,1,.5-1.9-1.5-1.2h1.9c0-.1.7-1.9.7-1.9ZM295.6,282.8l.6,1.5h1.6c0,.1-1.3,1.1-1.3,1.1l.4,1.6-1.4-.9-1.4.9.4-1.6-1.3-1h1.6c0-.1.6-1.6.6-1.6h0ZM301.4,282.9l.6,1.5h1.6c0,.1-1.3,1.1-1.3,1.1l.4,1.6-1.4-.9-1.4.9.4-1.6-1.3-1h1.6c0-.1.6-1.6.6-1.6h0ZM306.9,280l.7,1.8h1.9c0,.1-1.5,1.3-1.5,1.3l.5,1.9-1.6-1-1.6,1,.5-1.9-1.5-1.2h1.9c0-.1.7-1.9.7-1.9ZM309.6,275.3l.7,1.8h1.9c0,.1-1.5,1.3-1.5,1.3l.5,1.9-1.6-1-1.6,1,.5-1.9-1.5-1.2h1.9c0-.1.7-1.9.7-1.9ZM307.3,269.1l.8,2.1h2.3c0,.1-1.7,1.6-1.7,1.6l.6,2.2-1.9-1.2-1.9,1.2.6-2.2-1.7-1.5h2.3c0-.1.8-2.3.8-2.3h0ZM315.9,270.5l.6,1.5h1.6c0,.1-1.3,1.1-1.3,1.1l.4,1.6-1.4-.9-1.4.9.4-1.6-1.3-1h1.6c0-.1.6-1.6.6-1.6Z"/>
    <path class="st2" d="M231.4,233.6c34.8,0,66.6,12.8,91.2,33.9.8-2.9,1.4-5.8,1.8-8.8-25.4-20.6-57.8-33-93-33s-12.1.4-18,1.1c-1.3,2.7-2.3,5.5-3.2,8.4,7-1.1,14.1-1.6,21.2-1.6h0Z"/>
    <path class="st3" d="M216.3,230.6c0,.6.2,1,.5,1.3.3.3.6.4,1.1.4.5,0,.8-.2,1-.6s.3-.8.3-1.4c0-.6-.2-1-.5-1.3-.3-.3-.7-.4-1.1-.4-.5,0-.8.2-1,.6-.2.3-.3.8-.3,1.4h0ZM215.2,230.7c0-.8,0-1.5.5-2.1.4-.5,1-.8,1.8-.9.8,0,1.4.1,1.9.6.5.5.8,1.1.9,1.9,0,.8-.1,1.5-.5,2.1s-1,.8-1.8.9c-.8,0-1.4-.1-1.9-.6-.5-.5-.8-1.1-.9-1.9h0ZM223.7,229.7h1.3c.3,0,.5-.1.6-.2.1-.1.2-.3.2-.5,0-.2,0-.4-.2-.5-.1-.1-.3-.2-.6-.2h-1.3s0,1.4,0,1.4h0ZM222.8,232.7l-.2-5.2h2.5c.6-.1,1,0,1.3.2.3.2.4.6.4,1.1,0,.3,0,.6-.2.8-.1.2-.3.4-.6.5.2,0,.4.2.5.4.1.2.2.4.2.8v.6s0,0,0,0c0,.3,0,.5.2.6v.2s-1.2,0-1.2,0c0,0,0-.2,0-.3,0-.1,0-.3,0-.4v-.5c0-.3-.1-.5-.2-.6-.1-.1-.3-.2-.6-.2h-1.1s0,2.1,0,2.1h-1.1s0,0,0,0ZM230.5,231.5h.9c.5,0,.9,0,1.1-.4.2-.3.3-.7.4-1.3,0-.6,0-1-.3-1.3-.2-.3-.5-.4-1-.4h-1s0,3.3,0,3.3ZM229.4,232.4v-5.2c0,0,2.1,0,2.1,0,.8,0,1.4.2,1.8.7.4.4.6,1.1.6,2,0,.5,0,.9-.2,1.3-.1.3-.4.6-.6.9-.2.2-.5.3-.7.3-.3,0-.6,0-1.1,0h-1.8s0,0,0,0ZM236,232.5l.3-5.2,3.8.2v.9s-2.8-.1-2.8-.1v1.1c0,0,2.4.1,2.4.1v.9s-2.5-.1-2.5-.1v1.3c0,0,2.8.2,2.8.2v1c0,0-4-.2-4-.2h0ZM242.1,232.9l.6-5.2,1.6.2.6,4.1,1.4-3.8,1.6.2-.6,5.2h-1c0-.1.4-4.3.4-4.3l-1.5,4.1h-1.1c0-.1-.6-4.4-.6-4.4l-.4,4.2h-1q0-.1,0-.1ZM256,234.7l1.1-5.1,3.7.8-.2.9-2.7-.6-.2,1.1,2.4.5-.2.9-2.4-.5-.3,1.3,2.8.6-.2.9-3.8-.8h0ZM269.8,235l1,.3c.3,0,.5,0,.6,0,.2,0,.3-.3.3-.5,0-.2,0-.4,0-.6,0-.2-.3-.3-.5-.3l-1.1-.3-.4,1.5ZM269.5,235.9l-.5,1.8-1-.3,1.4-5,2.2.6c.5.1.9.4,1.1.7.2.3.2.8,0,1.3-.1.5-.4.9-.7,1.1-.3.2-.8.2-1.3.1l-1.3-.3h0ZM275.8,236.7l1.2.4c.3,0,.5,0,.6,0,.2,0,.3-.2.3-.4,0-.2,0-.4,0-.5,0-.1-.2-.3-.5-.3l-1.3-.4-.4,1.3ZM273.9,239.2l1.5-5,2.4.7c.5.2.9.4,1.1.7.2.3.2.7,0,1.2,0,.3-.2.5-.4.7-.2.2-.4.3-.7.2.2.1.3.3.4.5s0,.4,0,.8l-.2.6h0c0,.3,0,.5,0,.6v.2s-1.2-.3-1.2-.3c0,0,0-.2,0-.3,0-.1,0-.2,0-.4v-.5c.2-.3.2-.5.2-.7,0-.1-.2-.3-.5-.3l-1.1-.3-.6,1.9-1-.3h0ZM281.9,239.2c-.2.5-.2,1,0,1.4s.4.7.8.8c.4.2.8.1,1.2,0s.6-.6.8-1.1c.2-.5.2-1,0-1.4-.1-.4-.4-.7-.9-.8-.4-.2-.8-.1-1.2,0-.3.2-.6.6-.8,1.1h0ZM280.8,238.8c.3-.8.7-1.3,1.3-1.6.6-.3,1.3-.3,2,0s1.2.7,1.5,1.3c.3.6.3,1.3,0,2.1-.3.8-.7,1.3-1.3,1.6-.6.3-1.3.3-2,0s-1.2-.7-1.5-1.3c-.3-.6-.2-1.3,0-2.1h0ZM290.5,244.9c-.3.2-.5.2-.8.3-.3,0-.6,0-.9-.2-.7-.3-1.1-.7-1.3-1.4s-.2-1.3.2-2.1c.3-.8.8-1.3,1.4-1.6.6-.3,1.3-.3,2,0,.6.3,1,.6,1.3,1.1s.3.9.2,1.5l-1-.4c0-.3,0-.5-.1-.7s-.4-.4-.7-.5c-.4-.2-.8-.2-1.1,0-.4.2-.6.6-.9,1.1-.2.5-.3,1-.2,1.4.1.4.4.7.8.9.3.1.6.2.9,0,.3,0,.5-.3.7-.6l-1.1-.5.3-.8,2,.8-1.1,2.6-.7-.3v-.6q.1,0,.1,0ZM295.4,244.8l1.1.6c.2.1.5.2.6.1.2,0,.3-.2.4-.4,0-.2.1-.4,0-.5,0-.2-.2-.3-.4-.4l-1.2-.6-.6,1.2h0ZM293.2,247l2.3-4.7,2.3,1.1c.5.3.8.5,1,.9.1.3,0,.7-.1,1.2-.1.3-.3.5-.5.6-.2.1-.5.2-.7.1.2.2.3.4.3.5,0,.2,0,.4-.2.8l-.3.6s0,0,0,0c-.1.3-.2.5,0,.6h0c0,.1-1.1-.4-1.1-.4,0,0,0-.2,0-.3,0-.1,0-.2.1-.4l.2-.5c.1-.3.2-.5.1-.7,0-.2-.2-.3-.5-.4l-1-.5-.9,1.8-1-.5h0ZM299,250l2.5-4.6,3.3,1.8-.4.8-2.4-1.3-.5,1,2.2,1.2-.4.8-2.2-1.2-.7,1.2,2.5,1.4-.5.8-3.4-1.9h0ZM304.9,251.6l.9.5c-.1.3-.1.5,0,.7,0,.2.3.4.6.6.3.2.5.2.7.2.2,0,.3-.1.5-.3.2-.3,0-.7-.8-1.4h0s0,0,0-.1c-.4-.3-.6-.6-.7-.8,0-.2-.1-.4-.1-.6,0-.2,0-.4.2-.7.3-.4.6-.7,1-.7.4,0,.9,0,1.5.4.5.3.9.7,1,1.1s0,.9-.2,1.3l-.9-.5c.1-.2.1-.4,0-.6,0-.2-.3-.4-.5-.6-.2-.1-.5-.2-.6-.2-.2,0-.3.1-.4.3-.1.2,0,.6.4,1,.3.3.6.6.9.9.1.1.2.3.3.4.1.2.2.4.2.6,0,.2,0,.4-.2.7-.3.5-.7.7-1.1.8s-1,0-1.6-.4c-.6-.3-.9-.7-1.1-1.2-.2-.5-.1-.9.2-1.4h0ZM310.4,255l.9.6c-.1.3-.1.5,0,.7,0,.2.3.4.6.6.3.2.5.3.7.3.2,0,.3,0,.5-.3.2-.3,0-.7-.7-1.4,0,0,0,0,0,0,0,0,0,0,0,0-.3-.4-.6-.7-.7-.9,0-.2-.1-.4,0-.6,0-.2.1-.4.3-.7.3-.4.6-.6,1.1-.7.4,0,.9.1,1.5.5.5.3.8.7.9,1.2s0,.9-.2,1.3l-.9-.6c.1-.2.2-.4,0-.6s-.2-.4-.5-.6c-.2-.2-.4-.2-.6-.2s-.3,0-.5.3c-.2.2,0,.6.4,1l.3.3c.3.3.4.5.5.6.1.1.2.3.2.4.1.2.2.4.1.7,0,.2-.1.5-.3.7-.3.5-.7.7-1.2.7-.5,0-1-.1-1.5-.5-.5-.4-.9-.8-1-1.2-.1-.5,0-.9.2-1.4h0ZM317,258.5c-.3.5-.5.9-.5,1.3s.2.7.6,1c.4.3.8.4,1.1.3.4,0,.8-.4,1.1-.8.3-.5.5-.9.5-1.3s-.2-.8-.6-1c-.4-.3-.7-.4-1.1-.3-.4,0-.8.4-1.1.8h0ZM316.2,257.9c.5-.7,1.1-1.1,1.8-1.2.7-.1,1.3,0,1.9.5.6.5,1,1,1,1.7,0,.7-.1,1.3-.7,2-.5.7-1.1,1.1-1.8,1.2-.7.1-1.3,0-1.9-.5-.6-.5-1-1-1-1.7,0-.7.2-1.3.7-2h0Z"/>
    <path class="st9" d="M265.2,174.8c42.4,0,77,34.6,77,77s-34.6,77-77,77-77-34.6-77-77,34.6-77,77-77h0Z"/>
    <path class="st3" d="M219.5,301.4l-1.8-1.8c-.4-.4-.8-.6-1.1-.6-.3,0-.7.1-1,.5-.3.3-.5.7-.5,1s.2.7.6,1.1l1.9,1.9,2-2h0ZM225.2,298.7l-7.5,7.5-3.6-3.6c-.8-.8-1.3-1.6-1.3-2.3,0-.7.3-1.5,1-2.2.5-.5.9-.7,1.4-.9.5-.1,1,0,1.5.2-.2-.4-.3-.8-.2-1.2,0-.4.4-.8.9-1.3l.8-.9h0c.4-.5.6-.9.5-1.1l.2-.2,1.7,1.7c0,.2-.2.4-.3.5-.2.2-.3.4-.5.6l-.8.8c-.4.5-.7.9-.7,1.2,0,.3.2.7.6,1.1l1.6,1.6,2.9-2.9,1.5,1.5ZM217.6,290.6l-8.7,6.1-4.4-6.3,1.5-1.1,3.2,4.5,1.8-1.3-2.9-4.1,1.5-1,2.9,4.1,2.2-1.6-3.3-4.7,1.6-1.1,4.6,6.5h0ZM205.8,282.7l-.9-1.9c-.3-.5-.5-.8-.9-1-.3-.1-.7,0-1.2.2-.5.2-.7.5-.9.8-.1.3,0,.7.2,1.2l1,2,2.8-1.4h0ZM207.5,281.8l3.4-1.7,1,2-9.5,4.7-2.1-4.2c-.5-1-.6-1.9-.3-2.7.3-.8.9-1.4,1.9-1.9,1-.5,1.9-.6,2.6-.4.8.2,1.4.8,1.9,1.8l1.2,2.4h0ZM197.1,275.5l-.6-2.1,6.4-1.7c.8-.2,1.3-.5,1.6-.9s.3-1,.1-1.6c-.2-.7-.5-1.2-1-1.4-.4-.2-1.1-.2-1.9,0l-6.4,1.7-.6-2.1,6.6-1.8c1.3-.3,2.3-.3,3.2.3.9.5,1.5,1.4,1.8,2.8.4,1.3.3,2.4-.2,3.3-.5.9-1.3,1.5-2.6,1.8l-6.7,1.8h0ZM192,270.3l3.2,1.5.3,1-2.9-.7-.5-1.8ZM202.5,259.9l-.2-2.6c0-.6-.2-1-.4-1.3-.2-.3-.6-.4-1.1-.3-.5,0-.8.2-1,.5-.2.3-.3.7-.2,1.4l.2,2.6,2.8-.2h0ZM197.9,260.3l-.2-2.5c0-.5-.2-.9-.4-1.2-.2-.2-.5-.3-.9-.3-.4,0-.7.2-.8.4-.2.3-.2.7-.2,1.2l.2,2.5,2.3-.2ZM204.6,261.9l-10.6.8-.4-5c0-1.1,0-1.9.5-2.5.4-.6,1.1-.9,1.9-1,.5,0,1,0,1.4.2.4.2.7.5.9.9.2-.6.5-1,.9-1.3.4-.3.9-.5,1.5-.5,1,0,1.8.2,2.5.8.6.6,1,1.6,1.1,2.8l.4,4.8h0ZM203.9,250.8l-10.6-.9.2-2.2,8.6.7.4-5.2,2,.2-.6,7.3h0ZM204.8,241.6l-10.4-2,.4-2.1,10.4,2-.4,2.1ZM205.2,226.7c1.1.5,1.9,1.2,2.3,2.2s.4,2.2,0,3.5c-.5,1.5-1.4,2.5-2.6,3-1.2.5-2.6.5-4.3,0-1.7-.6-2.9-1.4-3.5-2.6s-.7-2.5-.1-4.1c.4-1.3,1.1-2.2,2-2.7.9-.5,1.9-.6,3.1-.3l-.7,2c-.6-.1-1.1,0-1.5.3-.4.3-.7.7-1,1.4-.3.9-.3,1.7.2,2.4.4.7,1.2,1.2,2.3,1.6,1.1.4,2,.4,2.8.2.8-.3,1.3-.8,1.6-1.7.2-.6.2-1.2,0-1.7-.2-.5-.6-.9-1.1-1.2l.7-2h0ZM203.9,218.2l3.3,3.4,1.4-2.6-4.7-.8ZM201.4,218.3l1.2-2.2,11.2,1.6-1.1,2-2.3-.4-1.9,3.6,1.6,1.6-1.1,2-7.6-8.3ZM224.5,205.2l-6.4-8.4,5.9-4.5,1.1,1.5-4.2,3.2,1.5,1.9,3.7-2.8,1.1,1.5-3.7,2.8,2.7,3.6-1.7,1.3h0ZM232.2,199.4l-5.2-9.3,6.7-3.8.9,1.6-4.8,2.7,1.1,2,4.4-2.5.9,1.6-4.4,2.5,1.3,2.4,5.1-2.8,1,1.7-7,3.9h0ZM242.8,191.8l1.7-.5c1-.3,1.6-.8,1.8-1.4.3-.6.2-1.5-.2-2.7-.4-1.1-.8-1.9-1.4-2.3-.6-.4-1.3-.5-2.1-.2l-1.9.6,2.1,6.5h0ZM241.4,194.2l-3.3-10.1,3.9-1.3c1.5-.5,2.8-.5,3.9.1,1,.6,1.8,1.7,2.4,3.4.3.9.4,1.8.4,2.6,0,.8-.3,1.5-.7,2.1-.3.5-.7.8-1.1,1.1-.5.3-1.2.6-2.1.9l-3.4,1.1h0ZM252.4,190.8l-1.9-10.4,7.6-1.4.3,1.8-5.5,1,.4,2.2,5-.9.3,1.8-5,.9.5,2.7,5.7-1,.3,1.9-7.8,1.4h0ZM265.1,183.3h2.6c.6,0,1,0,1.2-.2.3-.2.4-.6.4-1.1,0-.5-.1-.8-.3-1.1-.2-.2-.6-.4-1.1-.4h-2.7c0,0,0,2.7,0,2.7h0ZM262.7,189.2l.3-10.6,5.1.2c1.2,0,2,.3,2.5.8.5.5.8,1.3.8,2.3,0,.6-.2,1.2-.5,1.6-.3.4-.7.7-1.2.8.5.2.8.4,1,.8.2.3.3.9.3,1.6v1.3s0,0,0,0c0,.6.1,1,.4,1.2v.3s-2.4,0-2.4,0c0-.2-.1-.4-.2-.6,0-.3,0-.5,0-.8v-1.1c0-.7-.1-1.1-.3-1.3-.2-.2-.6-.4-1.2-.4h-2.3c0,0-.1,4-.1,4h-2.2q0,0,0,0ZM279.4,182l-2.2,4.2,2.9.5-.7-4.7h0ZM278.5,179.7l2.5.4,2,11.1-2.3-.4-.3-2.3-4-.7-1.1,2-2.3-.4,5.5-9.8h0ZM286.3,192.7l2.7-8.3-3-1,.6-1.8,8,2.6-.6,1.8-3-1-2.7,8.3-2.1-.7h0ZM293.2,195.6l4.8-9.5,1.9,1-4.8,9.5-1.9-1ZM300,199.4l2.5-10.9,2.1,1.3-2.3,7.9,6.1-5.5,2,1.3-8.7,7.1-1.8-1.1ZM314.7,200.1l-4.2,2.2,2.1,2,2.1-4.3h0ZM315.3,197.7l1.8,1.7-4.6,10.3-1.7-1.6,1-2.1-3-2.8-2,1.1-1.7-1.6,10.1-5h0ZM322.5,220.5l.8,1.6c.5.9,1,1.4,1.7,1.6.7.2,1.5,0,2.6-.6,1.1-.5,1.7-1.1,2-1.8.3-.6.2-1.3-.2-2.1l-.9-1.8-6.1,3.1h0ZM319.8,219.5l9.4-4.8,1.9,3.7c.7,1.4.9,2.7.5,3.8-.4,1.1-1.4,2.1-3,2.9-.9.4-1.7.7-2.5.8-.8,0-1.5,0-2.2-.3-.5-.2-.9-.5-1.3-.9-.4-.4-.8-1-1.2-1.9l-1.6-3.2h0ZM330.3,230.1c-1.1.3-1.9.8-2.4,1.5-.5.7-.6,1.5-.3,2.4.3.9.8,1.5,1.5,1.8s1.7.3,2.8,0c1.1-.3,1.9-.8,2.4-1.5s.6-1.5.3-2.4c-.3-.9-.8-1.5-1.5-1.8s-1.7-.3-2.8,0h0ZM329.7,227.9c1.6-.5,3.1-.4,4.3.2,1.2.6,2.1,1.7,2.5,3.2.4,1.5.3,2.9-.4,4.1s-1.9,2-3.5,2.5c-1.6.5-3.1.4-4.3-.2-1.2-.6-2.1-1.7-2.5-3.2-.4-1.5-.3-2.9.4-4,.7-1.2,1.9-2,3.5-2.5h0ZM330.5,254.2l-.2,2.6c0,.6,0,1.1.2,1.4.2.3.5.5,1,.5.5,0,.9,0,1.1-.3s.4-.7.4-1.3l.2-2.6-2.8-.2h0ZM335.1,254.5l-.2,2.5c0,.5,0,.9.2,1.2.2.3.5.4.8.4.4,0,.7,0,.9-.3.2-.2.3-.6.3-1.2l.2-2.5h-2.3q0-.1,0-.1ZM328.7,252l10.6.7-.3,5c0,1.1-.4,1.9-.9,2.4-.5.5-1.2.8-2,.7-.5,0-1-.2-1.3-.4-.3-.2-.6-.6-.8-1-.3.5-.6.9-1,1.2-.4.2-1,.3-1.6.3-1,0-1.8-.5-2.3-1.2-.5-.7-.7-1.7-.7-2.9l.3-4.8h0ZM332.8,267.3l-.7,2.5c-.1.5-.1,1,0,1.3.2.3.5.5.9.6.4.1.8,0,1.1-.1.3-.2.5-.5.6-1l.7-2.6-2.7-.7ZM327.6,263.7l10.3,2.7-1.3,5c-.3,1.1-.8,1.9-1.4,2.3-.6.4-1.4.5-2.4.2-.6-.2-1.1-.4-1.5-.8-.3-.4-.5-.8-.6-1.4-.3.4-.6.7-1,.8-.4.1-.9,0-1.6,0l-1.2-.3h0c-.6-.2-1-.1-1.2,0h-.3c0,0,.6-2.4.6-2.4.2,0,.4,0,.6,0,.2,0,.5,0,.8.1l1.1.3c.6.1,1.1.1,1.4,0,.3-.2.5-.5.6-1.1l.6-2.2-4-1.1.6-2.1h0ZM330,282.6l-3.4-3.3-1.3,2.6,4.7.7ZM332.4,282.4l-1.1,2.2-11.2-1.4,1-2,2.3.3,1.9-3.7-1.6-1.6,1-2.1,7.8,8.1h0ZM321.6,286.9l-1.2,1.8c-.5-.3-1-.3-1.5-.2s-.9.5-1.3,1.2c-.4.5-.5,1-.5,1.4,0,.4.2.7.5,1,.5.4,1.5,0,2.9-1.4,0,0,0,0,0,0,0,0,0,0,.2-.2.7-.7,1.3-1.1,1.8-1.3.4-.2.9-.2,1.3-.2.4,0,.9.3,1.3.6.8.6,1.3,1.3,1.3,2.2s-.3,1.9-1.1,3c-.7,1-1.5,1.6-2.4,1.9-.9.2-1.8,0-2.7-.5l1.2-1.7c.4.3.9.3,1.3.2.4-.1.8-.5,1.2-1,.3-.5.5-.9.5-1.3,0-.4-.2-.7-.5-.9-.5-.3-1.1,0-2.1.8l-.6.5c-.4.4-.9.7-1.3,1.1-.3.2-.5.4-.8.5-.4.2-.9.3-1.3.3-.4,0-.9-.2-1.4-.5-.9-.6-1.4-1.4-1.5-2.4s.3-2,1-3.1c.8-1.1,1.6-1.8,2.6-2,.9-.3,1.9-.1,2.9.5h0ZM311.6,294.3l7.7,7.3-1.5,1.6-7.7-7.3,1.5-1.6ZM307.4,298.5l6.6,8.3-1.7,1.3-5.3-6.8-4.1,3.2-1.2-1.5,5.8-4.6h0Z"/>
  </g>
</svg>