<?xml version="1.0" encoding="UTF-8"?>
<svg id="Camada_1" xmlns="http://www.w3.org/2000/svg" version="1.1" viewBox="0 0 1500 1060">
  <!-- Generator: Adobe Illustrator 29.6.1, SVG Export Plug-In . SVG Version: 2.1.1 Build 9)  -->
  <defs>
    <style>
      .st0, .st1 {
        fill: none;
        stroke: #000;
        stroke-miterlimit: 33.9;
        stroke-width: .9px;
      }

      .st2 {
        fill: #fd0;
      }

      .st2, .st1, .st3, .st4, .st5 {
        fill-rule: evenodd;
      }

      .st6 {
        opacity: .1;
      }

      .st3 {
        fill: #00aeef;
      }

      .st7 {
        fill: #ccad77;
      }

      .st8 {
        fill: #082533;
      }

      .st5 {
        fill: #ed1c24;
      }
    </style>
  </defs>
  <g>
    <g>
      <g>
        <g>
          <g>
            <g>
              <path class="st7" d="M280.8,91.5s-23.4,4.5-39.4-7.6c-16-12-17.5-40.1,3.1-51.1,20.7-11,37.1,4.2,35.3,17.7-1.8,13.5-15.4,12.8-19.4,7.4-3.9-5.4,2.9-10,6-6.3,3.1,3.7,10.2,1.4,9.9-4.2-.3-5.6-13.7-18.3-28.7-12.7-14.9,5.6-16.6,22-14.9,29.6,1.7,7.6,12.6,30.7,47.9,27.1Z"/>
              <path class="st7" d="M280,85.7s-21.1,4.5-35.6-8c-14.5-12.5-11-29.3-2.9-30.6,8.1-1.3,8,3.3,6.3,6.7-1.7,3.4-5.8,12.3.4,19.8,6.2,7.5,18.2,13.5,31.8,12.2Z"/>
              <path class="st7" d="M206.8,23.1s12.8,2.9,16.5,12.2-3.1,27.3,4.3,37.9c-9-8.2-17.9-17.1-16.3-27.9,1.6-10.8-.4-17.1-4.5-22.2Z"/>
              <path class="st7" d="M215.1,61.9s-16.3-19-13.9-31c2.4-12-11.2-10.4-12.2-1.9-1,8.6,8.6,21.8,26.1,32.9Z"/>
              <path class="st7" d="M296.2,95.1s-32,8.1-52.4-2.1c-20.4-10.2-33-29-47.1-23.8-10.7,3.9-6.8,14.1-3.7,17.3-2.3-10.5,13.7-10.5,22.1-3.5,11.1,9.2,36.5,31.2,81.1,12.1Z"/>
              <path class="st7" d="M195.9,88.1s7.6-8.6,14-2.6c6.4,6,31.6,22.5,53.4,18.3-9.4,7.2-53,2-67.4-15.7Z"/>
              <path class="st7" d="M238.8,84.8s-26.7-20.5-34.8-26.2c-8.1-5.7-28.3-15.7-43.4-5.3-15.1,10.4-5.5,28.3,7.9,26.3-4.1-1.6-7.7-6.1-6.1-11.3,1.6-5.2,4.8-6.7,4.8,1.1,4.3-5.1,15.6-10.4,19.9-5.5-9.8,2.9-14.3,8-13.9,12.3,11.6-11.5,25.2-13.4,39.9-5.9,14.7,7.5,23,15.4,25.6,14.5Z"/>
              <path class="st7" d="M227.6,106s-20.8-.3-30.8-11.7c-10-11.4-18.9-15.1-30.2-12.3,7.2,4.2,15.4,14.1,23.8,20.2,8.4,6,33.8,4.7,37.2,3.8Z"/>
              <path class="st7" d="M166.6,46.9s-19.1,6.7-18.1,19.8c1,13.1,10.2,13,10.2,18.2s-8.6,8.1-12.6,0c-3.9-8.1-7.5-33.1,20.5-38.1Z"/>
              <path class="st7" d="M143.5,60s-30.9,17.3-23.5,38.3c3.3,7.5,13.9,2.6,12.6-4.3-1.4-6.9-5.9-17.1,10.9-34Z"/>
              <path class="st7" d="M141.4,66.8s-9.6,20.7,0,34.5,21.2.3,16.5-3.9c-4.7-4.1-22.2-4.9-16.5-30.6Z"/>
              <path class="st7" d="M123.9,73.1s-19.6,26.9-46.5,17.8c7.1-7.8,9.8-12.3,17.5-11.3,7.7,1,17,1.6,29.1-6.5Z"/>
              <path class="st7" d="M197.1,51.9s-21-14.7-38.1-6c-17.1,8.6-36.7,34.8-58.3,28.5-21.6-6.3-25.2-21.5-23.3-36.4,1.9-14.9,18.9-19.8,24.4-15.8,5.5,4,2.4,15.5-5,13.9-7.3-1.6-14.4,5-14.1,14.1.3,9.2,22.8,19.9,31.9,12.8,9.2-7.1,32.2-27,44.4-24.1-4-3.1-16.6-7.3-20.5-4.7,9.7-6,31.9-6.9,58.6,17.5Z"/>
              <path class="st7" d="M143.5,36.2s-12.1,1.5-19.5,12.6c-7.5,11-21.6,14.4-30.2,8.7-8.6-5.8-3.1-15.2,3.1-15.3,6.3-.1,4.1,6.2,3.1,8.2-.9,2.1,5.5,5.6,13.1-1.6,7.6-7.2,17.6-12.8,30.4-12.6Z"/>
            </g>
            <path class="st7" d="M297.1,75.4s-12-9.3-20.2-8.7c-8.2.6-23.8-1.2-25.3-8.1-1.8,9,7.5,25.9,20.4,22.4,13-3.5,17.1-8.4,25.1-5.6Z"/>
          </g>
          <g>
            <g>
              <path class="st7" d="M487.1,91.5s-23.4,4.5-39.4-7.6c-16-12-17.5-40.1,3.1-51.1s37.1,4.2,35.3,17.7c-1.8,13.5-15.4,12.8-19.4,7.4-3.9-5.4,2.9-10,6-6.3,3.1,3.7,10.2,1.4,9.9-4.2-.3-5.6-13.7-18.3-28.7-12.7-14.9,5.6-16.6,22-14.9,29.6,1.7,7.6,12.6,30.7,47.9,27.1Z"/>
              <path class="st7" d="M486.3,85.7s-21.1,4.5-35.6-8c-14.5-12.5-11-29.3-2.9-30.6,8.1-1.3,8,3.3,6.3,6.7-1.7,3.4-5.8,12.3.4,19.8,6.2,7.5,18.2,13.5,31.8,12.2Z"/>
              <path class="st7" d="M413.1,23.1s12.8,2.9,16.5,12.2c3.7,9.2-3.1,27.3,4.3,37.9-9-8.2-17.9-17.1-16.3-27.9,1.6-10.8-.4-17.1-4.5-22.2Z"/>
              <path class="st7" d="M421.4,61.9s-16.3-19-13.9-31c2.4-12-11.2-10.4-12.2-1.9-1,8.6,8.6,21.8,26.1,32.9Z"/>
              <path class="st7" d="M502.5,95.1s-32,8.1-52.4-2.1c-20.4-10.2-33.1-29-47.1-23.8-10.7,3.9-6.8,14.1-3.7,17.3-2.3-10.5,13.7-10.5,22.1-3.5,11.1,9.2,36.5,31.2,81.1,12.1Z"/>
              <path class="st7" d="M402.3,88.1s7.6-8.6,14-2.6c6.4,6,31.6,22.5,53.4,18.3-9.4,7.2-53,2-67.4-15.7Z"/>
              <path class="st7" d="M445.1,84.8s-26.7-20.5-34.8-26.2c-8-5.7-28.3-15.7-43.4-5.3-15.1,10.4-5.5,28.3,7.9,26.3-4.1-1.6-7.7-6.1-6.1-11.3,1.6-5.2,4.8-6.7,4.8,1.1,4.3-5.1,15.6-10.4,19.9-5.5-9.8,2.9-14.3,8-13.9,12.3,11.6-11.5,25.2-13.4,39.9-5.9,14.7,7.5,23,15.4,25.6,14.5Z"/>
              <path class="st7" d="M433.9,106s-20.8-.3-30.8-11.7c-9.9-11.4-18.8-15.1-30.2-12.3,7.2,4.2,15.4,14.1,23.8,20.2,8.4,6,33.8,4.7,37.2,3.8Z"/>
              <path class="st7" d="M372.9,46.9s-19.1,6.7-18.1,19.8c1,13.1,10.2,13,10.2,18.2s-8.6,8.1-12.6,0c-3.9-8.1-7.5-33.1,20.5-38.1Z"/>
              <path class="st7" d="M349.8,60s-30.9,17.3-23.5,38.3c3.3,7.5,13.9,2.6,12.6-4.3-1.4-6.9-5.9-17.1,10.9-34Z"/>
              <path class="st7" d="M347.7,66.8s-9.6,20.7,0,34.5,21.2.3,16.5-3.9c-4.7-4.1-22.2-4.9-16.5-30.6Z"/>
              <path class="st7" d="M330.3,73.1s-19.6,26.9-46.5,17.8c7.1-7.8,9.8-12.3,17.5-11.3,7.7,1,17,1.6,29.1-6.5Z"/>
              <path class="st7" d="M403.4,51.9s-21-14.7-38.1-6c-17.1,8.6-36.7,34.8-58.3,28.5-21.6-6.3-25.2-21.5-23.3-36.4,1.9-14.9,18.9-19.8,24.4-15.8,5.5,4,2.4,15.5-5,13.9-7.3-1.6-14.4,5-14.1,14.1.3,9.2,22.8,19.9,31.9,12.8,9.2-7.1,32.2-27,44.4-24.1-4-3.1-16.6-7.3-20.5-4.7,9.7-6,31.9-6.9,58.7,17.5Z"/>
              <path class="st7" d="M349.8,36.2s-12.1,1.5-19.5,12.6c-7.5,11-21.6,14.4-30.2,8.7-8.6-5.8-3.1-15.2,3.1-15.3,6.3-.1,4.1,6.2,3.1,8.2-.9,2.1,5.5,5.6,13.1-1.6,7.6-7.2,17.6-12.8,30.4-12.6Z"/>
            </g>
            <path class="st7" d="M503.5,75.4s-12-9.3-20.2-8.7c-8.2.6-23.8-1.2-25.3-8.1-1.8,9,7.5,25.9,20.4,22.4,13-3.5,17.1-8.4,25.1-5.6Z"/>
          </g>
          <g>
            <path class="st7" d="M608.6,88.1s7.6-8.6,14-2.6c6.4,6,31.6,22.5,53.4,18.3-9.4,7.2-53,2-67.4-15.7Z"/>
            <path class="st7" d="M640.3,106s-20.8-.3-30.8-11.7c-9.9-11.4-18.8-15.1-30.2-12.3,7.2,4.2,15.4,14.1,23.8,20.2,8.4,6,33.8,4.7,37.2,3.8Z"/>
            <path class="st7" d="M579.3,46.9s-19.1,6.7-18.1,19.8c1,13.1,10.2,13,10.2,18.2s-8.6,8.1-12.6,0c-3.9-8.1-7.5-33.1,20.5-38.1Z"/>
            <path class="st7" d="M556.1,60s-30.9,17.3-23.5,38.3c3.3,7.5,13.9,2.6,12.6-4.3-1.4-6.9-5.9-17.1,10.9-34Z"/>
            <path class="st7" d="M554.1,66.8s-9.6,20.7,0,34.5,21.2.3,16.5-3.9c-4.7-4.1-22.2-4.9-16.5-30.6Z"/>
            <path class="st7" d="M536.6,73.1s-19.6,26.9-46.5,17.8c7.1-7.8,9.8-12.3,17.5-11.3,7.7,1,17,1.6,29.1-6.5Z"/>
            <path class="st7" d="M609.8,51.9s-21-14.7-38.1-6c-17.1,8.6-36.7,34.8-58.3,28.5-21.6-6.3-25.2-21.5-23.3-36.4,1.9-14.9,18.9-19.8,24.4-15.8,5.5,4,2.4,15.5-5,13.9-7.3-1.6-14.4,5-14.1,14.1.3,9.2,22.8,19.9,31.9,12.8,9.2-7.1,32.1-27,44.3-24.1-4-3.1-16.6-7.3-20.5-4.7,9.7-6,31.9-6.9,58.6,17.5Z"/>
            <path class="st7" d="M556.1,36.2s-12.1,1.5-19.5,12.6c-7.5,11-21.6,14.4-30.2,8.7-8.6-5.8-3.1-15.2,3.1-15.3,6.3-.1,4.1,6.2,3.1,8.2-.9,2.1,5.5,5.6,13.1-1.6,7.6-7.2,17.6-12.8,30.4-12.6Z"/>
          </g>
        </g>
        <g>
          <g>
            <g>
              <path class="st7" d="M1219,91.5s23.4,4.5,39.4-7.6c16-12,17.5-40.1-3.1-51.1-20.7-11-37.1,4.2-35.3,17.7,1.8,13.5,15.4,12.8,19.4,7.4,3.9-5.4-2.9-10-6-6.3-3.1,3.7-10.2,1.4-10-4.2.3-5.6,13.7-18.3,28.7-12.7,14.9,5.6,16.6,22,14.9,29.6-1.7,7.6-12.6,30.7-47.9,27.1Z"/>
              <path class="st7" d="M1219.8,85.7s21.1,4.5,35.6-8c14.5-12.5,11-29.3,2.9-30.6-8.1-1.3-8,3.3-6.3,6.7,1.7,3.4,5.8,12.3-.4,19.8-6.2,7.5-18.2,13.5-31.8,12.2Z"/>
              <path class="st7" d="M1293,23.1s-12.8,2.9-16.5,12.2c-3.7,9.2,3.1,27.3-4.3,37.9,9-8.2,17.9-17.1,16.3-27.9-1.6-10.8.4-17.1,4.5-22.2Z"/>
              <path class="st7" d="M1284.7,61.9s16.3-19,13.9-31c-2.4-12,11.2-10.4,12.2-1.9,1,8.6-8.6,21.8-26.1,32.9Z"/>
              <path class="st7" d="M1203.6,95.1s32,8.1,52.4-2.1c20.4-10.2,33-29,47.1-23.8,10.7,3.9,6.8,14.1,3.7,17.3,2.3-10.5-13.7-10.5-22.1-3.5-11.1,9.2-36.5,31.2-81.1,12.1Z"/>
              <path class="st7" d="M1303.8,88.1s-7.6-8.6-14-2.6c-6.4,6-31.6,22.5-53.4,18.3,9.4,7.2,53,2,67.4-15.7Z"/>
              <path class="st7" d="M1261,84.8s26.7-20.5,34.8-26.2c8.1-5.7,28.3-15.7,43.4-5.3,15.1,10.4,5.5,28.3-7.9,26.3,4.1-1.6,7.7-6.1,6.1-11.3-1.6-5.2-4.8-6.7-4.8,1.1-4.3-5.1-15.6-10.4-19.9-5.5,9.8,2.9,14.3,8,13.9,12.3-11.6-11.5-25.2-13.4-39.9-5.9-14.7,7.5-23,15.4-25.6,14.5Z"/>
              <path class="st7" d="M1272.2,106s20.8-.3,30.8-11.7c10-11.4,18.8-15.1,30.2-12.3-7.2,4.2-15.4,14.1-23.8,20.2-8.4,6-33.8,4.7-37.2,3.8Z"/>
              <path class="st7" d="M1333.2,46.9s19.1,6.7,18.1,19.8c-1,13.1-10.2,13-10.2,18.2s8.6,8.1,12.6,0c3.9-8.1,7.5-33.1-20.5-38.1Z"/>
              <path class="st7" d="M1356.3,60s30.9,17.3,23.5,38.3c-3.3,7.5-13.9,2.6-12.6-4.3,1.4-6.9,5.9-17.1-10.9-34Z"/>
              <path class="st7" d="M1358.4,66.8s9.6,20.7,0,34.5c-9.6,13.8-21.2.3-16.5-3.9,4.7-4.1,22.2-4.9,16.5-30.6Z"/>
              <path class="st7" d="M1375.8,73.1s19.6,26.9,46.5,17.8c-7.1-7.8-9.8-12.3-17.5-11.3-7.7,1-17,1.6-29.1-6.5Z"/>
              <path class="st7" d="M1302.7,51.9s21-14.7,38.1-6c17.1,8.6,36.7,34.8,58.3,28.5,21.6-6.3,25.2-21.5,23.3-36.4-1.9-14.9-18.9-19.8-24.4-15.8-5.5,4-2.4,15.5,5,13.9,7.3-1.6,14.4,5,14.1,14.1-.3,9.2-22.8,19.9-31.9,12.8-9.2-7.1-32.2-27-44.3-24.1,4-3.1,16.6-7.3,20.5-4.7-9.7-6-31.9-6.9-58.7,17.5Z"/>
              <path class="st7" d="M1356.3,36.2s12.1,1.5,19.5,12.6c7.5,11,21.6,14.4,30.2,8.7,8.6-5.8,3.1-15.2-3.1-15.3-6.3-.1-4.1,6.2-3.1,8.2.9,2.1-5.5,5.6-13.1-1.6-7.6-7.2-17.6-12.8-30.4-12.6Z"/>
            </g>
            <path class="st7" d="M1202.6,75.4s12-9.3,20.2-8.7c8.2.6,23.8-1.2,25.3-8.1,1.8,9-7.5,25.9-20.4,22.4-13-3.5-17.1-8.4-25.1-5.6Z"/>
          </g>
          <g>
            <g>
              <path class="st7" d="M1012.7,91.5s23.4,4.5,39.4-7.6c16-12,17.5-40.1-3.1-51.1-20.7-11-37.1,4.2-35.3,17.7,1.8,13.5,15.4,12.8,19.4,7.4,3.9-5.4-2.9-10-6-6.3-3.1,3.7-10.2,1.4-9.9-4.2.3-5.6,13.7-18.3,28.7-12.7,14.9,5.6,16.6,22,14.9,29.6-1.7,7.6-12.6,30.7-47.9,27.1Z"/>
              <path class="st7" d="M1013.5,85.7s21.1,4.5,35.6-8c14.5-12.5,11-29.3,2.9-30.6-8.1-1.3-8,3.3-6.3,6.7,1.7,3.4,5.8,12.3-.4,19.8-6.2,7.5-18.2,13.5-31.8,12.2Z"/>
              <path class="st7" d="M1086.7,23.1s-12.8,2.9-16.5,12.2c-3.7,9.2,3.1,27.3-4.3,37.9,9-8.2,17.9-17.1,16.3-27.9-1.6-10.8.4-17.1,4.5-22.2Z"/>
              <path class="st7" d="M1078.4,61.9s16.3-19,13.9-31c-2.4-12,11.2-10.4,12.2-1.9,1,8.6-8.6,21.8-26.1,32.9Z"/>
              <path class="st7" d="M997.3,95.1s32,8.1,52.4-2.1c20.4-10.2,33.1-29,47.1-23.8,10.7,3.9,6.8,14.1,3.7,17.3,2.3-10.5-13.7-10.5-22.1-3.5-11.1,9.2-36.5,31.2-81.1,12.1Z"/>
              <path class="st7" d="M1097.5,88.1s-7.6-8.6-14-2.6c-6.4,6-31.6,22.5-53.4,18.3,9.4,7.2,53,2,67.4-15.7Z"/>
              <path class="st7" d="M1054.6,84.8s26.7-20.5,34.8-26.2c8-5.7,28.3-15.7,43.4-5.3,15.1,10.4,5.5,28.3-7.9,26.3,4.1-1.6,7.7-6.1,6.1-11.3-1.6-5.2-4.8-6.7-4.8,1.1-4.3-5.1-15.6-10.4-19.9-5.5,9.8,2.9,14.3,8,13.9,12.3-11.6-11.5-25.2-13.4-39.9-5.9-14.7,7.5-23,15.4-25.6,14.5Z"/>
              <path class="st7" d="M1065.8,106s20.8-.3,30.8-11.7c10-11.4,18.9-15.1,30.2-12.3-7.2,4.2-15.4,14.1-23.8,20.2-8.4,6-33.8,4.7-37.2,3.8Z"/>
              <path class="st7" d="M1126.8,46.9s19.1,6.7,18.1,19.8c-1,13.1-10.2,13-10.2,18.2s8.6,8.1,12.6,0c3.9-8.1,7.5-33.1-20.5-38.1Z"/>
              <path class="st7" d="M1150,60s30.9,17.3,23.5,38.3c-3.3,7.5-13.9,2.6-12.6-4.3,1.4-6.9,5.9-17.1-10.9-34Z"/>
              <path class="st7" d="M1152,66.8s9.6,20.7,0,34.5c-9.6,13.8-21.2.3-16.5-3.9,4.7-4.1,22.2-4.9,16.5-30.6Z"/>
              <path class="st7" d="M1169.5,73.1s19.6,26.9,46.5,17.8c-7.1-7.8-9.8-12.3-17.5-11.3-7.7,1-17,1.6-29.1-6.5Z"/>
              <path class="st7" d="M1096.3,51.9s21-14.7,38.1-6c17.1,8.6,36.7,34.8,58.3,28.5,21.6-6.3,25.2-21.5,23.3-36.4-1.9-14.9-18.9-19.8-24.4-15.8-5.5,4-2.4,15.5,5,13.9,7.3-1.6,14.4,5,14.1,14.1-.3,9.2-22.8,19.9-31.9,12.8-9.2-7.1-32.2-27-44.4-24.1,4-3.1,16.6-7.3,20.5-4.7-9.7-6-31.9-6.9-58.7,17.5Z"/>
              <path class="st7" d="M1150,36.2s12.1,1.5,19.5,12.6c7.5,11,21.6,14.4,30.2,8.7,8.6-5.8,3.1-15.2-3.1-15.3-6.3-.1-4.1,6.2-3.1,8.2.9,2.1-5.5,5.6-13.1-1.6-7.6-7.2-17.6-12.8-30.4-12.6Z"/>
            </g>
            <path class="st7" d="M996.3,75.4s12-9.3,20.2-8.7c8.2.6,23.8-1.2,25.3-8.1,1.8,9-7.5,25.9-20.4,22.4-13-3.5-17.1-8.4-25.1-5.6Z"/>
          </g>
          <g>
            <path class="st7" d="M859.5,106s20.8-.3,30.8-11.7c10-11.4,18.9-15.1,30.2-12.3-7.2,4.2-15.4,14.1-23.8,20.2-8.4,6-33.8,4.7-37.2,3.8Z"/>
            <path class="st7" d="M920.5,46.9s19.1,6.7,18.1,19.8c-1,13.1-10.2,13-10.2,18.2s8.6,8.1,12.6,0c3.9-8.1,7.5-33.1-20.5-38.1Z"/>
            <path class="st7" d="M943.7,60s30.9,17.3,23.5,38.3c-3.3,7.5-13.9,2.6-12.6-4.3,1.4-6.9,5.9-17.1-10.9-34Z"/>
            <path class="st7" d="M945.7,66.8s9.6,20.7,0,34.5c-9.6,13.8-21.2.3-16.5-3.9,4.7-4.1,22.2-4.9,16.5-30.6Z"/>
            <path class="st7" d="M963.2,73.1s19.6,26.9,46.5,17.8c-7.1-7.8-9.8-12.3-17.5-11.3-7.7,1-17,1.6-29.1-6.5Z"/>
            <path class="st7" d="M890,51.9s21-14.7,38.1-6c17.1,8.6,36.7,34.8,58.3,28.5,21.6-6.3,25.2-21.5,23.3-36.4-1.9-14.9-18.9-19.8-24.4-15.8-5.5,4-2.4,15.5,5,13.9,7.3-1.6,14.4,5,14.1,14.1-.3,9.2-22.8,19.9-31.9,12.8-9.2-7.1-32.1-27-44.3-24.1,4-3.1,16.6-7.3,20.5-4.7-9.7-6-31.9-6.9-58.7,17.5Z"/>
            <path class="st7" d="M943.7,36.2s12.1,1.5,19.5,12.6c7.5,11,21.6,14.4,30.2,8.7,8.6-5.8,3.1-15.2-3.1-15.3-6.3-.1-4.1,6.2-3.1,8.2.9,2.1-5.5,5.6-13.1-1.6-7.6-7.2-17.6-12.8-30.4-12.6Z"/>
          </g>
        </g>
      </g>
      <g>
        <g>
          <g>
            <g>
              <g>
                <path class="st7" d="M1219,968.5s23.4-4.5,39.4,7.6c16,12,17.5,40.1-3.1,51.1-20.7,11-37.1-4.2-35.3-17.7,1.8-13.5,15.4-12.8,19.4-7.4,3.9,5.4-2.9,9.9-6,6.3-3.1-3.7-10.2-1.4-9.9,4.2.3,5.6,13.7,18.3,28.7,12.7,14.9-5.6,16.6-22,14.9-29.6-1.7-7.6-12.6-30.7-47.9-27.1Z"/>
                <path class="st7" d="M1219.8,974.3s21.1-4.5,35.6,8c14.5,12.5,11,29.3,2.9,30.6-8.1,1.3-8-3.3-6.3-6.7,1.7-3.4,5.8-12.3-.4-19.8-6.2-7.5-18.2-13.5-31.8-12.2Z"/>
                <path class="st7" d="M1293,1036.9s-12.8-2.9-16.5-12.2c-3.7-9.2,3.1-27.3-4.3-37.9,9,8.2,17.9,17.1,16.3,27.9-1.6,10.8.4,17.1,4.5,22.2Z"/>
                <path class="st7" d="M1284.7,998s16.3,19,13.9,31c-2.4,12,11.2,10.4,12.2,1.9,1-8.6-8.6-21.8-26.1-32.9Z"/>
                <path class="st7" d="M1203.6,964.9s32-8.1,52.4,2.1c20.4,10.2,33,29,47.1,23.8,10.7-3.9,6.8-14.1,3.7-17.3,2.3,10.5-13.7,10.5-22.1,3.5-11.1-9.2-36.5-31.2-81.1-12.2Z"/>
                <path class="st7" d="M1303.8,971.9s-7.6,8.6-14,2.6c-6.4-6-31.6-22.5-53.4-18.3,9.4-7.2,53-2,67.4,15.7Z"/>
                <path class="st7" d="M1261,975.1s26.7,20.5,34.8,26.2c8.1,5.7,28.3,15.7,43.4,5.3,15.1-10.4,5.5-28.3-7.9-26.3,4.1,1.6,7.7,6.1,6.1,11.3-1.6,5.2-4.8,6.7-4.8-1.1-4.3,5.1-15.6,10.4-19.9,5.5,9.8-2.9,14.3-8,13.9-12.3-11.6,11.5-25.2,13.4-39.9,5.9-14.7-7.5-23-15.4-25.6-14.5Z"/>
                <path class="st7" d="M1272.2,954s20.8.3,30.8,11.6c10,11.4,18.9,15.1,30.2,12.3-7.2-4.2-15.4-14.1-23.8-20.2-8.4-6-33.8-4.7-37.2-3.8Z"/>
                <path class="st7" d="M1333.2,1013.1s19.1-6.7,18.1-19.8c-1-13.1-10.2-13-10.2-18.2s8.6-8.1,12.6,0c3.9,8.1,7.5,33.1-20.5,38.1Z"/>
                <path class="st7" d="M1356.3,1000s30.9-17.3,23.5-38.3c-3.3-7.5-13.9-2.6-12.6,4.3,1.4,6.9,5.9,17.1-10.9,34Z"/>
                <path class="st7" d="M1358.4,993.1s9.6-20.7,0-34.5c-9.6-13.8-21.2-.3-16.5,3.9,4.7,4.1,22.2,4.9,16.5,30.6Z"/>
                <path class="st7" d="M1375.8,986.8s19.6-26.9,46.5-17.8c-7.1,7.8-9.8,12.3-17.5,11.3-7.7-1-17-1.6-29.1,6.5Z"/>
                <path class="st7" d="M1302.7,1008s21,14.7,38.1,6c17.1-8.6,36.7-34.8,58.3-28.5,21.6,6.3,25.2,21.5,23.3,36.4-1.9,14.9-18.9,19.8-24.4,15.8-5.5-4-2.4-15.5,5-13.9,7.3,1.6,14.4-5,14.1-14.1-.3-9.2-22.8-19.9-31.9-12.8-9.2,7.1-32.2,27-44.4,24.1,4,3.1,16.6,7.3,20.5,4.7-9.7,6-31.9,6.9-58.7-17.5Z"/>
                <path class="st7" d="M1356.3,1023.8s12.1-1.5,19.5-12.6c7.5-11,21.6-14.4,30.2-8.7,8.6,5.8,3.1,15.2-3.1,15.3-6.3.1-4.1-6.2-3.1-8.2.9-2.1-5.5-5.6-13.1,1.6-7.6,7.2-17.6,12.8-30.4,12.6Z"/>
              </g>
              <path class="st7" d="M1202.6,984.6s12,9.3,20.2,8.7c8.2-.6,23.8,1.2,25.3,8.1,1.8-9-7.5-25.9-20.4-22.4-13,3.5-17.1,8.4-25.1,5.6Z"/>
            </g>
            <g>
              <g>
                <path class="st7" d="M1012.7,968.5s23.4-4.5,39.4,7.6c16,12,17.5,40.1-3.1,51.1-20.7,11-37.1-4.2-35.3-17.7,1.8-13.5,15.4-12.8,19.4-7.4,3.9,5.4-2.9,9.9-6,6.3-3.1-3.7-10.2-1.4-9.9,4.2.3,5.6,13.7,18.3,28.7,12.7,14.9-5.6,16.6-22,14.9-29.6-1.7-7.6-12.6-30.7-47.9-27.1Z"/>
                <path class="st7" d="M1013.5,974.3s21.1-4.5,35.6,8c14.5,12.5,11,29.3,2.9,30.6-8.1,1.3-8-3.3-6.3-6.7,1.7-3.4,5.8-12.3-.4-19.8-6.2-7.5-18.2-13.5-31.8-12.2Z"/>
                <path class="st7" d="M1086.7,1036.9s-12.8-2.9-16.5-12.2c-3.7-9.2,3.1-27.3-4.3-37.9,9,8.2,17.9,17.1,16.3,27.9-1.6,10.8.4,17.1,4.5,22.2Z"/>
                <path class="st7" d="M1078.4,998s16.3,19,13.9,31c-2.4,12,11.2,10.4,12.2,1.9,1-8.6-8.6-21.8-26.1-32.9Z"/>
                <path class="st7" d="M997.3,964.9s32-8.1,52.4,2.1c20.4,10.2,33,29,47.1,23.8,10.7-3.9,6.8-14.1,3.7-17.3,2.3,10.5-13.7,10.5-22.1,3.5-11.1-9.2-36.5-31.2-81.1-12.2Z"/>
                <path class="st7" d="M1097.5,971.9s-7.6,8.6-14,2.6c-6.4-6-31.6-22.5-53.4-18.3,9.4-7.2,53-2,67.4,15.7Z"/>
                <path class="st7" d="M1054.6,975.1s26.7,20.5,34.8,26.2c8,5.7,28.3,15.7,43.4,5.3,15.1-10.4,5.5-28.3-7.9-26.3,4.1,1.6,7.7,6.1,6.1,11.3-1.6,5.2-4.8,6.7-4.8-1.1-4.3,5.1-15.6,10.4-19.9,5.5,9.8-2.9,14.3-8,13.9-12.3-11.6,11.5-25.2,13.4-39.9,5.9-14.7-7.5-23-15.4-25.6-14.5Z"/>
                <path class="st7" d="M1065.8,954s20.8.3,30.8,11.6c10,11.4,18.9,15.1,30.2,12.3-7.2-4.2-15.4-14.1-23.8-20.2-8.4-6-33.8-4.7-37.2-3.8Z"/>
                <path class="st7" d="M1126.8,1013.1s19.1-6.7,18.1-19.8c-1-13.1-10.2-13-10.2-18.2s8.6-8.1,12.6,0c3.9,8.1,7.5,33.1-20.5,38.1Z"/>
                <path class="st7" d="M1150,1000s30.9-17.3,23.5-38.3c-3.3-7.5-13.9-2.6-12.6,4.3,1.4,6.9,5.9,17.1-10.9,34Z"/>
                <path class="st7" d="M1152,993.1s9.6-20.7,0-34.5c-9.6-13.8-21.2-.3-16.5,3.9,4.7,4.1,22.2,4.9,16.5,30.6Z"/>
                <path class="st7" d="M1169.5,986.8s19.6-26.9,46.5-17.8c-7.1,7.8-9.8,12.3-17.5,11.3-7.7-1-17-1.6-29.1,6.5Z"/>
                <path class="st7" d="M1096.3,1008s21,14.7,38.1,6c17.1-8.6,36.7-34.8,58.3-28.5,21.6,6.3,25.2,21.5,23.3,36.4-1.9,14.9-18.9,19.8-24.4,15.8-5.5-4-2.4-15.5,5-13.9,7.3,1.6,14.4-5,14.1-14.1-.3-9.2-22.8-19.9-31.9-12.8-9.2,7.1-32.2,27-44.4,24.1,4,3.1,16.6,7.3,20.5,4.7-9.7,6-31.9,6.9-58.7-17.5Z"/>
                <path class="st7" d="M1150,1023.8s12.1-1.5,19.5-12.6c7.5-11,21.6-14.4,30.2-8.7,8.6,5.8,3.1,15.2-3.1,15.3-6.3.1-4.1-6.2-3.1-8.2.9-2.1-5.5-5.6-13.1,1.6-7.6,7.2-17.6,12.8-30.4,12.6Z"/>
              </g>
              <path class="st7" d="M996.3,984.6s12,9.3,20.2,8.7c8.2-.6,23.8,1.2,25.3,8.1,1.8-9-7.5-25.9-20.4-22.4-13,3.5-17.1,8.4-25.1,5.6Z"/>
            </g>
            <g>
              <g>
                <path class="st7" d="M806.4,968.5s23.4-4.5,39.4,7.6c16,12,17.5,40.1-3.1,51.1-20.7,11-37.1-4.2-35.3-17.7,1.8-13.5,15.4-12.8,19.4-7.4,3.9,5.4-2.9,9.9-6,6.3-3.1-3.7-10.2-1.4-9.9,4.2.3,5.6,13.7,18.3,28.7,12.7,14.9-5.6,16.6-22,14.9-29.6-1.7-7.6-12.6-30.7-47.9-27.1Z"/>
                <path class="st7" d="M807.2,974.3s21.1-4.5,35.6,8c14.5,12.5,11,29.3,2.9,30.6-8.1,1.3-8-3.3-6.3-6.7,1.7-3.4,5.8-12.3-.4-19.8-6.2-7.5-18.2-13.5-31.8-12.2Z"/>
                <path class="st7" d="M880.3,1036.9s-12.8-2.9-16.5-12.2c-3.7-9.2,3.1-27.3-4.3-37.9,9,8.2,17.9,17.1,16.3,27.9-1.6,10.8.4,17.1,4.5,22.2Z"/>
                <path class="st7" d="M872.1,998s16.3,19,13.9,31c-2.4,12,11.2,10.4,12.2,1.9,1-8.6-8.6-21.8-26.1-32.9Z"/>
                <path class="st7" d="M791,964.9s32-8.1,52.4,2.1c20.4,10.2,33.1,29,47.1,23.8,10.7-3.9,6.8-14.1,3.7-17.3,2.3,10.5-13.7,10.5-22.1,3.5-11.1-9.2-36.5-31.2-81.1-12.2Z"/>
                <path class="st7" d="M891.2,971.9s-7.6,8.6-14,2.6c-6.4-6-31.6-22.5-53.4-18.3,9.4-7.2,53-2,67.4,15.7Z"/>
                <path class="st7" d="M848.3,975.1s26.7,20.5,34.8,26.2c8,5.7,28.3,15.7,43.4,5.3,15.1-10.4,5.5-28.3-7.9-26.3,4.1,1.6,7.7,6.1,6.1,11.3-1.6,5.2-4.8,6.7-4.8-1.1-4.3,5.1-15.6,10.4-19.9,5.5,9.8-2.9,14.3-8,13.9-12.3-11.6,11.5-25.2,13.4-39.9,5.9-14.7-7.5-23-15.4-25.6-14.5Z"/>
                <path class="st7" d="M859.5,954s20.8.3,30.8,11.6c10,11.4,18.9,15.1,30.2,12.3-7.2-4.2-15.4-14.1-23.8-20.2-8.4-6-33.8-4.7-37.2-3.8Z"/>
                <path class="st7" d="M920.5,1013.1s19.1-6.7,18.1-19.8c-1-13.1-10.2-13-10.2-18.2s8.6-8.1,12.6,0c3.9,8.1,7.5,33.1-20.5,38.1Z"/>
                <path class="st7" d="M943.7,1000s30.9-17.3,23.5-38.3c-3.3-7.5-13.9-2.6-12.6,4.3,1.4,6.9,5.9,17.1-10.9,34Z"/>
                <path class="st7" d="M945.7,993.1s9.6-20.7,0-34.5-21.2-.3-16.5,3.9c4.7,4.1,22.2,4.9,16.5,30.6Z"/>
                <path class="st7" d="M963.2,986.8s19.6-26.9,46.5-17.8c-7.1,7.8-9.8,12.3-17.5,11.3-7.7-1-17-1.6-29.1,6.5Z"/>
                <path class="st7" d="M890,1008s21,14.7,38.1,6c17.1-8.6,36.7-34.8,58.3-28.5,21.6,6.3,25.2,21.5,23.3,36.4-1.9,14.9-18.9,19.8-24.4,15.8-5.5-4-2.4-15.5,5-13.9,7.3,1.6,14.4-5,14.1-14.1-.3-9.2-22.8-19.9-31.9-12.8-9.2,7.1-32.2,27-44.4,24.1,4,3.1,16.6,7.3,20.5,4.7-9.7,6-31.9,6.9-58.7-17.5Z"/>
                <path class="st7" d="M943.7,1023.8s12.1-1.5,19.5-12.6c7.5-11,21.6-14.4,30.2-8.7,8.6,5.8,3.1,15.2-3.1,15.3-6.3.1-4.1-6.2-3.1-8.2.9-2.1-5.5-5.6-13.1,1.6-7.6,7.2-17.6,12.8-30.4,12.6Z"/>
              </g>
              <path class="st7" d="M803.5,992.1c2.3.8,4.7,1.3,6.7,1.2,8.2-.6,23.8,1.2,25.3,8.1,1.8-9-7.5-25.9-20.4-22.4-6.1,1.7-10.3,3.6-13.8,5,1.2,2.5,1.9,5.3,2.1,8.2Z"/>
            </g>
          </g>
          <g>
            <g>
              <g>
                <path class="st7" d="M280.8,968.5s-23.4-4.5-39.4,7.6c-16,12-17.5,40.1,3.1,51.1,20.7,11,37.1-4.2,35.3-17.7-1.8-13.5-15.4-12.8-19.4-7.4-3.9,5.4,2.9,9.9,6,6.3,3.1-3.7,10.2-1.4,10,4.2-.3,5.6-13.8,18.3-28.7,12.7-14.9-5.6-16.6-22-14.9-29.6,1.7-7.6,12.6-30.7,47.9-27.1Z"/>
                <path class="st7" d="M280,974.3s-21.1-4.5-35.6,8c-14.5,12.5-11,29.3-2.9,30.6,8.1,1.3,8-3.3,6.3-6.7-1.7-3.4-5.8-12.3.4-19.8,6.2-7.5,18.2-13.5,31.8-12.2Z"/>
                <path class="st7" d="M206.8,1036.9s12.8-2.9,16.5-12.2c3.7-9.2-3.1-27.3,4.3-37.9-9,8.2-17.9,17.1-16.3,27.9,1.6,10.8-.4,17.1-4.5,22.2Z"/>
                <path class="st7" d="M215.1,998s-16.3,19-13.9,31c2.4,12-11.2,10.4-12.2,1.9-1-8.6,8.6-21.8,26.1-32.9Z"/>
                <path class="st7" d="M296.2,964.9s-32-8.1-52.4,2.1c-20.4,10.2-33,29-47.1,23.8-10.7-3.9-6.8-14.1-3.7-17.3-2.3,10.5,13.7,10.5,22.1,3.5,11.1-9.2,36.5-31.2,81.1-12.2Z"/>
                <path class="st7" d="M195.9,971.9s7.6,8.6,14,2.6c6.4-6,31.6-22.5,53.4-18.3-9.4-7.2-53-2-67.4,15.7Z"/>
                <path class="st7" d="M238.8,975.1s-26.7,20.5-34.8,26.2c-8,5.7-28.3,15.7-43.4,5.3-15.1-10.4-5.5-28.3,7.9-26.3-4.1,1.6-7.7,6.1-6.1,11.3,1.6,5.2,4.8,6.7,4.8-1.1,4.3,5.1,15.6,10.4,19.9,5.5-9.8-2.9-14.3-8-13.9-12.3,11.6,11.5,25.2,13.4,39.9,5.9,14.7-7.5,23-15.4,25.6-14.5Z"/>
                <path class="st7" d="M227.6,954s-20.8.3-30.8,11.6c-10,11.4-18.8,15.1-30.2,12.3,7.2-4.2,15.4-14.1,23.8-20.2,8.4-6,33.8-4.7,37.2-3.8Z"/>
                <path class="st7" d="M166.6,1013.1s-19.1-6.7-18.1-19.8c1-13.1,10.2-13,10.2-18.2s-8.6-8.1-12.6,0c-3.9,8.1-7.5,33.1,20.5,38.1Z"/>
                <path class="st7" d="M143.5,1000s-30.9-17.3-23.5-38.3c3.3-7.5,13.9-2.6,12.6,4.3-1.4,6.9-5.9,17.1,10.9,34Z"/>
                <path class="st7" d="M141.4,993.1s-9.6-20.7,0-34.5c9.6-13.8,21.2-.3,16.5,3.9-4.7,4.1-22.2,4.9-16.5,30.6Z"/>
                <path class="st7" d="M123.9,986.8s-19.6-26.9-46.5-17.8c7.1,7.8,9.8,12.3,17.5,11.3,7.7-1,17-1.6,29.1,6.5Z"/>
                <path class="st7" d="M197.1,1008s-21,14.7-38.1,6c-17.1-8.6-36.7-34.8-58.3-28.5-21.6,6.3-25.2,21.5-23.3,36.4,1.9,14.9,18.9,19.8,24.4,15.8,5.5-4,2.4-15.5-5-13.9-7.3,1.6-14.4-5-14.1-14.1.3-9.2,22.8-19.9,31.9-12.8,9.2,7.1,32.2,27,44.4,24.1-4,3.1-16.6,7.3-20.5,4.7,9.7,6,31.9,6.9,58.7-17.5Z"/>
                <path class="st7" d="M143.5,1023.8s-12.1-1.5-19.5-12.6c-7.5-11-21.6-14.4-30.2-8.7-8.6,5.8-3.1,15.2,3.1,15.3,6.3.1,4.1-6.2,3.1-8.2-.9-2.1,5.5-5.6,13.1,1.6,7.6,7.2,17.6,12.8,30.4,12.6Z"/>
              </g>
              <path class="st7" d="M297.1,984.6s-12,9.3-20.2,8.7c-8.2-.6-23.8,1.2-25.3,8.1-1.8-9,7.5-25.9,20.4-22.4,13,3.5,17.1,8.4,25.1,5.6Z"/>
            </g>
            <g>
              <g>
                <path class="st7" d="M487.1,968.5s-23.4-4.5-39.4,7.6c-16,12-17.5,40.1,3.1,51.1,20.7,11,37.1-4.2,35.3-17.7-1.8-13.5-15.4-12.8-19.4-7.4-3.9,5.4,2.9,9.9,6,6.3,3.1-3.7,10.2-1.4,9.9,4.2-.3,5.6-13.7,18.3-28.7,12.7-14.9-5.6-16.6-22-14.9-29.6,1.7-7.6,12.6-30.7,47.9-27.1Z"/>
                <path class="st7" d="M486.3,974.3s-21.1-4.5-35.6,8c-14.5,12.5-11,29.3-2.9,30.6,8.1,1.3,8-3.3,6.3-6.7-1.7-3.4-5.8-12.3.4-19.8,6.2-7.5,18.2-13.5,31.8-12.2Z"/>
                <path class="st7" d="M413.1,1036.9s12.8-2.9,16.5-12.2c3.7-9.2-3.1-27.3,4.3-37.9-9,8.2-17.9,17.1-16.3,27.9,1.6,10.8-.4,17.1-4.5,22.2Z"/>
                <path class="st7" d="M421.4,998s-16.3,19-13.9,31c2.4,12-11.2,10.4-12.2,1.9-1-8.6,8.6-21.8,26.1-32.9Z"/>
                <path class="st7" d="M502.5,964.9s-32-8.1-52.4,2.1c-20.4,10.2-33.1,29-47.1,23.8-10.7-3.9-6.8-14.1-3.7-17.3-2.3,10.5,13.7,10.5,22.1,3.5,11.1-9.2,36.5-31.2,81.1-12.2Z"/>
                <path class="st7" d="M402.3,971.9s7.6,8.6,14,2.6c6.4-6,31.6-22.5,53.4-18.3-9.4-7.2-53-2-67.4,15.7Z"/>
                <path class="st7" d="M445.1,975.1s-26.7,20.5-34.8,26.2c-8.1,5.7-28.3,15.7-43.4,5.3-15.1-10.4-5.5-28.3,7.9-26.3-4.1,1.6-7.7,6.1-6.1,11.3,1.6,5.2,4.8,6.7,4.8-1.1,4.3,5.1,15.6,10.4,19.9,5.5-9.8-2.9-14.3-8-13.9-12.3,11.6,11.5,25.2,13.4,39.9,5.9,14.7-7.5,23-15.4,25.6-14.5Z"/>
                <path class="st7" d="M433.9,954s-20.8.3-30.8,11.6c-10,11.4-18.9,15.1-30.2,12.3,7.2-4.2,15.4-14.1,23.8-20.2,8.4-6,33.8-4.7,37.2-3.8Z"/>
                <path class="st7" d="M372.9,1013.1s-19.1-6.7-18.1-19.8c1-13.1,10.2-13,10.2-18.2s-8.6-8.1-12.6,0c-3.9,8.1-7.5,33.1,20.5,38.1Z"/>
                <path class="st7" d="M349.8,1000s-30.9-17.3-23.5-38.3c3.3-7.5,13.9-2.6,12.6,4.3-1.4,6.9-5.9,17.1,10.9,34Z"/>
                <path class="st7" d="M347.7,993.1s-9.6-20.7,0-34.5c9.6-13.8,21.2-.3,16.5,3.9-4.7,4.1-22.2,4.9-16.5,30.6Z"/>
                <path class="st7" d="M330.3,986.8s-19.6-26.9-46.5-17.8c7.1,7.8,9.8,12.3,17.5,11.3,7.7-1,17-1.6,29.1,6.5Z"/>
                <path class="st7" d="M403.4,1008s-21,14.7-38.1,6c-17.1-8.6-36.7-34.8-58.3-28.5-21.6,6.3-25.2,21.5-23.3,36.4,1.9,14.9,18.9,19.8,24.4,15.8,5.5-4,2.4-15.5-5-13.9-7.3,1.6-14.4-5-14.1-14.1.3-9.2,22.8-19.9,31.9-12.8,9.2,7.1,32.2,27,44.4,24.1-4,3.1-16.6,7.3-20.5,4.7,9.7,6,31.9,6.9,58.7-17.5Z"/>
                <path class="st7" d="M349.8,1023.8s-12.1-1.5-19.5-12.6c-7.5-11-21.6-14.4-30.2-8.7-8.6,5.8-3.1,15.2,3.1,15.3,6.3.1,4.1-6.2,3.1-8.2-.9-2.1,5.5-5.6,13.1,1.6,7.6,7.2,17.6,12.8,30.4,12.6Z"/>
              </g>
              <path class="st7" d="M503.5,984.6s-12,9.3-20.2,8.7c-8.2-.6-23.8,1.2-25.3,8.1-1.8-9,7.5-25.9,20.4-22.4,13,3.5,17.1,8.4,25.1,5.6Z"/>
            </g>
            <g>
              <g>
                <path class="st7" d="M693.4,968.5s-23.4-4.5-39.4,7.6c-16,12-17.5,40.1,3.1,51.1,20.7,11,37.1-4.2,35.3-17.7-1.8-13.5-15.4-12.8-19.4-7.4-3.9,5.4,2.9,9.9,6,6.3,3.1-3.7,10.2-1.4,9.9,4.2-.3,5.6-13.7,18.3-28.7,12.7-14.9-5.6-16.6-22-14.9-29.6,1.7-7.6,12.6-30.7,47.9-27.1Z"/>
                <path class="st7" d="M692.6,974.3s-21.1-4.5-35.6,8c-14.5,12.5-11,29.3-2.9,30.6,8.1,1.3,8-3.3,6.3-6.7-1.7-3.4-5.8-12.3.4-19.8,6.2-7.5,18.2-13.5,31.8-12.2Z"/>
                <path class="st7" d="M619.5,1036.9s12.8-2.9,16.5-12.2c3.7-9.2-3.1-27.3,4.3-37.9-9,8.2-17.9,17.1-16.3,27.9,1.6,10.8-.4,17.1-4.5,22.2Z"/>
                <path class="st7" d="M627.7,998s-16.3,19-13.9,31c2.4,12-11.2,10.4-12.2,1.9-1-8.6,8.6-21.8,26.1-32.9Z"/>
                <path class="st7" d="M708.8,964.9s-32-8.1-52.4,2.1c-20.4,10.2-33.1,29-47.1,23.8-10.7-3.9-6.8-14.1-3.7-17.3-2.3,10.5,13.7,10.5,22.1,3.5,11.1-9.2,36.5-31.2,81.1-12.2Z"/>
                <path class="st7" d="M608.6,971.9s7.6,8.6,14,2.6c6.4-6,31.6-22.5,53.4-18.3-9.4-7.2-53-2-67.4,15.7Z"/>
                <path class="st7" d="M651.5,975.1s-26.7,20.5-34.8,26.2c-8,5.7-28.3,15.7-43.4,5.3-15.1-10.4-5.5-28.3,7.9-26.3-4.1,1.6-7.7,6.1-6.1,11.3s4.8,6.7,4.8-1.1c4.3,5.1,15.6,10.4,19.9,5.5-9.8-2.9-14.3-8-13.9-12.3,11.6,11.5,25.2,13.4,39.9,5.9,14.7-7.5,23-15.4,25.6-14.5Z"/>
                <path class="st7" d="M640.3,954s-20.8.3-30.8,11.6c-10,11.4-18.9,15.1-30.2,12.3,7.2-4.2,15.4-14.1,23.8-20.2,8.4-6,33.8-4.7,37.2-3.8Z"/>
                <path class="st7" d="M579.3,1013.1s-19.1-6.7-18.1-19.8c1-13.1,10.2-13,10.2-18.2s-8.6-8.1-12.6,0c-3.9,8.1-7.5,33.1,20.5,38.1Z"/>
                <path class="st7" d="M556.1,1000s-30.9-17.3-23.5-38.3c3.3-7.5,13.9-2.6,12.6,4.3-1.4,6.9-5.9,17.1,10.9,34Z"/>
                <path class="st7" d="M554.1,993.1s-9.6-20.7,0-34.5c9.6-13.8,21.2-.3,16.5,3.9-4.7,4.1-22.2,4.9-16.5,30.6Z"/>
                <path class="st7" d="M536.6,986.8s-19.6-26.9-46.5-17.8c7.1,7.8,9.8,12.3,17.5,11.3,7.7-1,17-1.6,29.1,6.5Z"/>
                <path class="st7" d="M609.8,1008s-21,14.7-38.1,6c-17.1-8.6-36.7-34.8-58.3-28.5-21.6,6.3-25.2,21.5-23.3,36.4,1.9,14.9,18.9,19.8,24.4,15.8,5.5-4,2.4-15.5-5-13.9-7.3,1.6-14.4-5-14.1-14.1.3-9.2,22.8-19.9,31.9-12.8,9.2,7.1,32.1,27,44.4,24.1-4,3.1-16.6,7.3-20.5,4.7,9.7,6,31.9,6.9,58.6-17.5Z"/>
                <path class="st7" d="M556.1,1023.8s-12.1-1.5-19.5-12.6c-7.5-11-21.6-14.4-30.2-8.7-8.6,5.8-3.1,15.2,3.1,15.3,6.3.1,4.1-6.2,3.1-8.2-.9-2.1,5.5-5.6,13.1,1.6,7.6,7.2,17.6,12.8,30.4,12.6Z"/>
              </g>
              <path class="st7" d="M664.2,1001.4c1.6-6.9,17.1-8.6,25.3-8.1,2.2.2,4.6-.4,6.9-1.2,0-.1,0-.2,0-.4,0-2.5,0-4.6,1.1-6.9.2-.4.4-.7.7-1-3.5-1.3-7.6-3.2-13.6-4.9-13-3.5-22.2,13.4-20.4,22.4Z"/>
            </g>
          </g>
        </g>
        <g>
          <g>
            <g>
              <path class="st7" d="M747,959.1s-23.4-4.5-39.4,7.6c-16,12-17.5,40.1,3.1,51.1,20.7,11,37.1-4.2,35.3-17.7-1.8-13.5-15.4-12.8-19.4-7.4-3.9,5.4,2.9,9.9,6,6.3,3.1-3.7,10.2-1.4,9.9,4.2-.3,5.6-13.7,18.3-28.7,12.7-14.9-5.6-16.6-22-14.9-29.6,1.7-7.6,12.6-30.7,47.9-27.1Z"/>
              <path class="st7" d="M746.2,964.9s-21.1-4.5-35.6,8c-14.5,12.5-11,29.3-2.9,30.6,8.1,1.3,8-3.3,6.3-6.7-1.7-3.4-5.8-12.3.4-19.8,6.2-7.5,18.2-13.5,31.8-12.2Z"/>
            </g>
            <path class="st7" d="M763.4,975.2s-12,9.3-20.2,8.7c-8.2-.6-23.8,1.2-25.3,8.1-1.8-9,7.5-25.9,20.4-22.4,13,3.5,17.1,8.4,25.1,5.6Z"/>
          </g>
          <g>
            <g>
              <path class="st7" d="M752.8,959.1s23.4-4.5,39.4,7.6c16,12,17.5,40.1-3.1,51.1-20.7,11-37.1-4.2-35.3-17.7,1.8-13.5,15.4-12.8,19.4-7.4,3.9,5.4-2.9,9.9-6,6.3-3.1-3.7-10.2-1.4-9.9,4.2.3,5.6,13.7,18.3,28.7,12.7,14.9-5.6,16.6-22,14.9-29.6-1.7-7.6-12.6-30.7-47.9-27.1Z"/>
              <path class="st7" d="M753.6,964.9s21.1-4.5,35.6,8c14.5,12.5,11,29.3,2.9,30.6-8.1,1.3-8-3.3-6.3-6.7,1.7-3.4,5.8-12.3-.4-19.8-6.2-7.5-18.2-13.5-31.8-12.2Z"/>
            </g>
            <path class="st7" d="M736.4,975.2s12,9.3,20.2,8.7c8.2-.6,23.8,1.2,25.3,8.1,1.8-9-7.5-25.9-20.4-22.4-13,3.5-17.1,8.4-25.1,5.6Z"/>
          </g>
        </g>
      </g>
      <g>
        <g>
          <g>
            <g>
              <path class="st7" d="M1421.8,301.4s-4.4-24.2,7.6-40.7c12-16.5,40.1-18.1,51.1,3.2,11,21.4-4.2,38.4-17.7,36.5-13.6-1.8-12.8-16-7.4-20,5.4-4.1,9.9,3,6.3,6.2-3.7,3.2-1.4,10.6,4.2,10.3,5.6-.3,18.3-14.2,12.7-29.6-5.6-15.4-22-17.2-29.6-15.4-7.6,1.8-30.7,13-27.1,49.5Z"/>
              <path class="st7" d="M1427.6,300.6s-4.5-21.8,8-36.8c12.5-15,29.3-11.4,30.6-3,1.3,8.4-3.3,8.3-6.7,6.5-3.4-1.8-12.3-6-19.8.4-7.5,6.4-13.5,18.8-12.2,32.9Z"/>
              <path class="st7" d="M1490.2,224.9s-2.9,13.2-12.2,17.1c-9.2,3.9-27.3-3.2-37.9,4.5,8.2-9.3,17.1-18.5,27.9-16.8,10.8,1.6,17.1-.4,22.2-4.7Z"/>
              <path class="st7" d="M1451.3,233.5s19.1-16.8,31-14.4c12,2.4,10.4-11.6,1.9-12.6-8.6-1-21.8,8.9-32.9,27Z"/>
              <path class="st7" d="M1418.2,317.3s-8.1-33.1,2.1-54.2c10.2-21.1,29-34.2,23.8-48.7-3.9-11.1-14.1-7-17.3-3.8,10.5-2.4,10.5,14.2,3.5,22.9-9.2,11.4-31.2,37.8-12.1,83.8Z"/>
              <path class="st7" d="M1425.2,213.7s8.6,7.9,2.6,14.5c-6,6.6-22.5,32.7-18.3,55.2-7.2-9.7-2-54.8,15.7-69.7Z"/>
              <path class="st7" d="M1428.4,258s20.5-27.6,26.2-35.9c5.7-8.3,15.7-29.2,5.3-44.9-10.4-15.6-28.3-5.7-26.3,8.1,1.6-4.3,6.1-7.9,11.3-6.3,5.2,1.6,6.7,5-1.1,5,5.1,4.5,10.4,16.1,5.5,20.6-2.9-10.1-8-14.8-12.3-14.3,11.5,12,13.4,26.1,5.9,41.3-7.5,15.2-15.4,23.8-14.5,26.5Z"/>
              <path class="st7" d="M1407.3,246.5s.3-21.5,11.7-31.8c11.4-10.3,15.1-19.5,12.3-31.3-4.2,7.4-14.1,16-20.2,24.6-6,8.7-4.7,35-3.8,38.4Z"/>
              <path class="st7" d="M1466.4,183.4s-6.7-19.8-19.8-18.7-13,10.6-18.2,10.6-8.1-8.9,0-13,33.1-7.8,38.1,21.2Z"/>
              <path class="st7" d="M1453.3,159.5s-17.3-32-38.3-24.2c-7.5,3.5-2.6,14.4,4.3,13,6.9-1.4,17.1-6.1,34,11.3Z"/>
              <path class="st7" d="M1446.4,157.3s-20.7-9.9-34.5,0c-13.8,9.9-.3,21.9,3.9,17.1,4.1-4.9,4.9-22.9,30.6-17.1Z"/>
              <path class="st7" d="M1440.1,139.3s-26.9-20.3-17.8-48.1c7.7,7.3,12.3,10.2,11.3,18.1-1,7.9-1.6,17.6,6.5,30Z"/>
              <path class="st7" d="M1461.3,214.9s14.7-21.7,6-39.4c-8.6-17.7-34.8-37.9-28.5-60.3,6.3-22.4,21.5-26,36.4-24.1,14.9,2,19.8,19.6,15.8,25.2-4,5.7-15.5,2.4-13.9-5.1,1.6-7.6-5-14.9-14.1-14.6-9.2.3-19.9,23.5-12.8,33,7.1,9.5,27,33.2,24.1,45.8,3.1-4.2,7.3-17.2,4.7-21.2,6,10,6.9,33-17.5,60.6Z"/>
              <path class="st7" d="M1477.1,159.5s-1.5-12.5-12.6-20.2c-11-7.7-14.4-22.3-8.7-31.3,5.8-8.9,15.2-3.2,15.3,3.2.1,6.5-6.2,4.2-8.3,3.2-2.1-.9-5.6,5.7,1.6,13.5,7.2,7.8,12.8,18.2,12.6,31.4Z"/>
            </g>
            <path class="st7" d="M1437.9,318.3s9.3-12.4,8.7-20.9c-.6-8.5,1.2-24.6,8.1-26.2-9-1.8-25.9,7.7-22.4,21.1,3.5,13.4,8.4,17.7,5.6,26Z"/>
          </g>
          <g>
            <g>
              <path class="st7" d="M1421.8,514.7s-4.4-24.2,7.6-40.7c12-16.5,40.1-18.1,51.1,3.2,11,21.4-4.2,38.4-17.7,36.5-13.6-1.8-12.8-16-7.4-20,5.4-4.1,9.9,3,6.3,6.2-3.7,3.2-1.4,10.6,4.2,10.3,5.6-.3,18.3-14.2,12.7-29.6-5.6-15.4-22-17.2-29.6-15.4-7.6,1.8-30.7,13-27.1,49.5Z"/>
              <path class="st7" d="M1427.6,513.9s-4.5-21.8,8-36.8c12.5-15,29.3-11.4,30.6-3,1.3,8.4-3.3,8.3-6.7,6.5-3.4-1.8-12.3-6-19.8.4-7.5,6.4-13.5,18.8-12.2,32.9Z"/>
              <path class="st7" d="M1490.2,438.2s-2.9,13.2-12.2,17.1c-9.2,3.9-27.3-3.2-37.9,4.5,8.2-9.3,17.1-18.5,27.9-16.8,10.8,1.6,17.1-.4,22.2-4.7Z"/>
              <path class="st7" d="M1451.3,446.8s19.1-16.8,31-14.4c12,2.4,10.4-11.6,1.9-12.6-8.6-1-21.8,8.9-32.9,27Z"/>
              <path class="st7" d="M1418.2,530.6s-8.1-33.1,2.1-54.2c10.2-21.1,29-34.2,23.8-48.7-3.9-11.1-14.1-7-17.3-3.8,10.5-2.4,10.5,14.2,3.5,22.9-9.2,11.4-31.2,37.8-12.1,83.8Z"/>
              <path class="st7" d="M1425.2,427s8.6,7.9,2.6,14.5c-6,6.6-22.5,32.7-18.3,55.2-7.2-9.7-2-54.8,15.7-69.7Z"/>
              <path class="st7" d="M1428.4,471.3s20.5-27.6,26.2-35.9c5.7-8.3,15.7-29.2,5.3-44.9-10.4-15.6-28.3-5.7-26.3,8.1,1.6-4.3,6.1-7.9,11.3-6.3,5.2,1.6,6.7,5-1.1,5,5.1,4.5,10.4,16.1,5.5,20.6-2.9-10.1-8-14.8-12.3-14.3,11.5,12,13.4,26,5.9,41.3-7.5,15.2-15.4,23.8-14.5,26.5Z"/>
              <path class="st7" d="M1407.3,459.7s.3-21.5,11.7-31.8c11.4-10.3,15.1-19.5,12.3-31.3-4.2,7.4-14.1,16-20.2,24.6-6,8.7-4.7,35-3.8,38.4Z"/>
              <path class="st7" d="M1466.4,396.7s-6.7-19.8-19.8-18.7c-13.1,1-13,10.6-18.2,10.6s-8.1-8.9,0-13c8.1-4.1,33.1-7.8,38.1,21.2Z"/>
              <path class="st7" d="M1453.3,372.7s-17.3-32-38.3-24.2c-7.5,3.5-2.6,14.4,4.3,13,6.9-1.4,17.1-6.1,34,11.3Z"/>
              <path class="st7" d="M1446.4,370.6s-20.7-9.9-34.5,0c-13.8,9.9-.3,21.9,3.9,17.1,4.1-4.9,4.9-22.9,30.6-17.1Z"/>
              <path class="st7" d="M1440.1,352.6s-26.9-20.3-17.8-48.1c7.7,7.3,12.3,10.2,11.3,18.1-1,7.9-1.6,17.6,6.5,30Z"/>
              <path class="st7" d="M1461.3,428.2s14.7-21.7,6-39.4c-8.6-17.7-34.8-37.9-28.5-60.3,6.3-22.4,21.5-26,36.4-24.1,14.9,2,19.8,19.6,15.8,25.2-4,5.7-15.5,2.4-13.9-5.1,1.6-7.6-5-14.9-14.1-14.6-9.2.3-19.9,23.5-12.8,33,7.1,9.5,27,33.2,24.1,45.8,3.1-4.2,7.3-17.2,4.7-21.2,6,10,6.9,33-17.5,60.6Z"/>
              <path class="st7" d="M1477.1,372.7s-1.5-12.5-12.6-20.2c-11-7.7-14.4-22.3-8.7-31.3,5.8-8.9,15.2-3.2,15.3,3.2.1,6.5-6.2,4.2-8.3,3.2-2.1-.9-5.6,5.7,1.6,13.5,7.2,7.8,12.8,18.2,12.6,31.4Z"/>
            </g>
            <path class="st7" d="M1437.9,531.6s9.3-12.4,8.7-20.9c-.6-8.5,1.2-24.6,8.1-26.2-9-1.8-25.9,7.7-22.4,21.1,3.5,13.4,8.4,17.7,5.6,26Z"/>
          </g>
        </g>
        <g>
          <g>
            <g>
              <path class="st7" d="M1421.8,759.8s-4.4,24.1,7.6,40.5c12,16.4,40.1,18.1,51.1-3.2,11-21.3-4.2-38.2-17.7-36.4-13.6,1.8-12.8,15.9-7.4,19.9,5.4,4,9.9-3,6.3-6.2-3.7-3.2-1.4-10.5,4.2-10.2,5.6.3,18.3,14.1,12.7,29.5-5.6,15.4-22,17.1-29.6,15.4-7.6-1.8-30.7-12.9-27.1-49.3Z"/>
              <path class="st7" d="M1427.6,760.6s-4.5,21.7,8,36.6c12.5,14.9,29.3,11.3,30.6,3,1.3-8.4-3.3-8.2-6.7-6.5-3.4,1.7-12.3,5.9-19.8-.4-7.5-6.3-13.5-18.7-12.2-32.7Z"/>
              <path class="st7" d="M1490.2,835.9s-2.9-13.1-12.2-17c-9.2-3.8-27.3,3.2-37.9-4.4,8.2,9.3,17.1,18.4,27.9,16.8,10.8-1.6,17.1.4,22.2,4.7Z"/>
              <path class="st7" d="M1451.3,827.4s19.1,16.8,31,14.3c12-2.4,10.4,11.5,1.9,12.5-8.6,1-21.8-8.9-32.9-26.9Z"/>
              <path class="st7" d="M1418.2,744s-8.1,32.9,2.1,54c10.2,21,29,34,23.8,48.5-3.9,11-14.1,7-17.3,3.8,10.5,2.4,10.5-14.1,3.5-22.8-9.2-11.4-31.2-37.6-12.1-83.5Z"/>
              <path class="st7" d="M1425.2,847.1s8.6-7.8,2.6-14.4c-6-6.6-22.5-32.5-18.3-55-7.2,9.7-2,54.6,15.7,69.4Z"/>
              <path class="st7" d="M1428.4,803s20.5,27.5,26.2,35.8c5.7,8.3,15.7,29.1,5.3,44.7-10.4,15.6-28.3,5.7-26.3-8.1,1.6,4.2,6.1,7.9,11.3,6.3,5.2-1.6,6.7-5-1.1-5,5.1-4.4,10.4-16,5.5-20.5-2.9,10.1-8,14.7-12.3,14.3,11.5-11.9,13.4-25.9,5.9-41.1-7.5-15.2-15.4-23.7-14.5-26.3Z"/>
              <path class="st7" d="M1407.3,814.5s.3,21.4,11.7,31.7c11.4,10.2,15.1,19.4,12.3,31.1-4.2-7.4-14.1-15.9-20.2-24.5-6-8.6-4.7-34.8-3.8-38.3Z"/>
              <path class="st7" d="M1466.4,877.3s-6.7,19.7-19.8,18.7c-13.1-1-13-10.5-18.2-10.5s-8.1,8.9,0,12.9c8.1,4,33.1,7.7,38.1-21.1Z"/>
              <path class="st7" d="M1453.3,901.1s-17.3,31.8-38.3,24.1c-7.5-3.4-2.6-14.3,4.3-12.9,6.9,1.4,17.1,6.1,34-11.2Z"/>
              <path class="st7" d="M1446.4,903.2s-20.7,9.9-34.5,0c-13.8-9.9-.3-21.8,3.9-17,4.1,4.9,4.9,22.8,30.6,17Z"/>
              <path class="st7" d="M1440.1,921.2s-26.9,20.2-17.8,47.9c7.7-7.3,12.3-10.1,11.3-18-1-7.9-1.6-17.5,6.5-29.9Z"/>
              <path class="st7" d="M1461.3,845.9s14.7,21.6,6,39.2c-8.6,17.6-34.8,37.8-28.5,60,6.3,22.3,21.5,25.9,36.4,23.9,14.9-2,19.8-19.5,15.8-25.1-4-5.7-15.5-2.4-13.9,5.1,1.6,7.5-5,14.8-14.1,14.5-9.2-.3-19.9-23.4-12.8-32.9,7.1-9.4,27-33.1,24.1-45.6,3.1,4.2,7.3,17.1,4.7,21.1,6-10,6.9-32.9-17.5-60.3Z"/>
              <path class="st7" d="M1477.1,901.1s-1.5,12.4-12.6,20.1c-11,7.7-14.4,22.2-8.7,31.1,5.8,8.9,15.2,3.2,15.3-3.2.1-6.5-6.2-4.2-8.3-3.2-2.1.9-5.6-5.7,1.6-13.5,7.2-7.8,12.8-18.1,12.6-31.3Z"/>
            </g>
            <path class="st7" d="M1437.9,743s9.3,12.3,8.7,20.8c-.6,8.5,1.2,24.5,8.1,26.1-9,1.8-25.9-7.7-22.4-21,3.5-13.3,8.4-17.6,5.6-25.9Z"/>
          </g>
          <g>
            <g>
              <path class="st7" d="M1421.8,547.5s-4.4,24.1,7.6,40.5c12,16.4,40.1,18.1,51.1-3.2,11-21.3-4.2-38.2-17.7-36.4-13.6,1.8-12.8,15.9-7.4,19.9,5.4,4,9.9-3,6.3-6.2-3.7-3.2-1.4-10.5,4.2-10.2,5.6.3,18.3,14.1,12.7,29.5-5.6,15.4-22,17.1-29.6,15.4-7.6-1.8-30.7-12.9-27.1-49.3Z"/>
              <path class="st7" d="M1427.6,548.3s-4.5,21.7,8,36.6c12.5,14.9,29.3,11.3,30.6,3,1.3-8.4-3.3-8.2-6.7-6.5-3.4,1.8-12.3,5.9-19.8-.4-7.5-6.3-13.5-18.7-12.2-32.7Z"/>
              <path class="st7" d="M1490.2,623.6s-2.9-13.1-12.2-17c-9.2-3.8-27.3,3.2-37.9-4.4,8.2,9.3,17.1,18.4,27.9,16.8,10.8-1.6,17.1.4,22.2,4.6Z"/>
              <path class="st7" d="M1451.3,615.2s19.1,16.8,31,14.3c12-2.4,10.4,11.5,1.9,12.5-8.6,1-21.8-8.9-32.9-26.9Z"/>
              <path class="st7" d="M1418.2,531.7s-8.1,32.9,2.1,53.9c10.2,21,29,34,23.8,48.5-3.9,11-14.1,7-17.3,3.8,10.5,2.4,10.5-14.1,3.5-22.8-9.2-11.4-31.2-37.6-12.1-83.5Z"/>
              <path class="st7" d="M1425.2,634.8s8.6-7.8,2.6-14.4c-6-6.6-22.5-32.5-18.3-55-7.2,9.7-2,54.6,15.7,69.4Z"/>
              <path class="st7" d="M1428.4,590.7s20.5,27.5,26.2,35.8c5.7,8.3,15.7,29.1,5.3,44.7-10.4,15.6-28.3,5.7-26.3-8.1,1.6,4.2,6.1,7.9,11.3,6.3,5.2-1.6,6.7-5-1.1-5,5.1-4.4,10.4-16,5.5-20.5-2.9,10.1-8,14.7-12.3,14.3,11.5-11.9,13.4-25.9,5.9-41.1-7.5-15.2-15.4-23.7-14.5-26.3Z"/>
              <path class="st7" d="M1407.3,602.2s.3,21.4,11.7,31.7c11.4,10.2,15.1,19.4,12.3,31.1-4.2-7.4-14.1-15.9-20.2-24.5-6-8.6-4.7-34.8-3.8-38.3Z"/>
              <path class="st7" d="M1466.4,665s-6.7,19.7-19.8,18.7c-13.1-1-13-10.5-18.2-10.5s-8.1,8.9,0,12.9c8.1,4,33.1,7.7,38.1-21.1Z"/>
              <path class="st7" d="M1453.3,688.8s-17.3,31.8-38.3,24.1c-7.5-3.4-2.6-14.3,4.3-12.9,6.9,1.4,17.1,6.1,34-11.2Z"/>
              <path class="st7" d="M1446.4,690.9s-20.7,9.9-34.5,0c-13.8-9.9-.3-21.8,3.9-17,4.1,4.9,4.9,22.8,30.6,17Z"/>
              <path class="st7" d="M1440.1,708.9s-26.9,20.2-17.8,47.9c7.7-7.3,12.3-10.1,11.3-18-1-7.9-1.6-17.5,6.5-29.9Z"/>
              <path class="st7" d="M1461.3,633.6s14.7,21.6,6,39.2c-8.6,17.6-34.8,37.8-28.5,60,6.3,22.3,21.5,25.9,36.4,23.9,14.9-2,19.8-19.5,15.8-25.1-4-5.7-15.5-2.4-13.9,5.1,1.6,7.5-5,14.8-14.1,14.5-9.2-.3-19.9-23.4-12.8-32.9,7.1-9.4,27-33.1,24.1-45.6,3.1,4.1,7.3,17.1,4.7,21.1,6-10,6.9-32.9-17.5-60.4Z"/>
              <path class="st7" d="M1477.1,688.8s-1.5,12.4-12.6,20.1c-11,7.7-14.4,22.2-8.7,31.1,5.8,8.9,15.2,3.2,15.3-3.2.1-6.5-6.2-4.2-8.3-3.2-2.1.9-5.6-5.7,1.6-13.5,7.2-7.8,12.8-18.1,12.6-31.3Z"/>
            </g>
            <path class="st7" d="M1437.9,530.7s9.3,12.3,8.7,20.8c-.6,8.5,1.2,24.5,8.1,26.1-9,1.8-25.9-7.7-22.4-21,3.5-13.3,8.4-17.6,5.6-25.9Z"/>
          </g>
        </g>
      </g>
      <g>
        <g>
          <g>
            <g>
              <path class="st7" d="M78.2,301.4s4.5-24.2-7.6-40.7c-12-16.5-40.1-18.1-51.1,3.2-11,21.4,4.2,38.4,17.7,36.5,13.6-1.8,12.8-16,7.4-20-5.4-4.1-10,3-6.3,6.2,3.7,3.2,1.4,10.6-4.2,10.3-5.6-.3-18.3-14.2-12.7-29.6,5.6-15.4,22-17.2,29.6-15.4,7.6,1.8,30.7,13,27.1,49.5Z"/>
              <path class="st7" d="M72.4,300.6s4.5-21.8-8-36.8c-12.5-15-29.3-11.4-30.6-3-1.3,8.4,3.3,8.3,6.7,6.5,3.4-1.8,12.3-6,19.8.4,7.5,6.4,13.5,18.8,12.2,32.9Z"/>
              <path class="st7" d="M9.8,224.9s2.9,13.2,12.2,17.1c9.2,3.9,27.3-3.2,37.9,4.5-8.2-9.3-17.1-18.5-27.9-16.8-10.8,1.6-17.1-.4-22.2-4.7Z"/>
              <path class="st7" d="M48.7,233.5s-19.1-16.8-31-14.4c-12,2.4-10.4-11.6-1.9-12.6,8.6-1,21.8,8.9,32.9,27Z"/>
              <path class="st7" d="M81.8,317.3s8.1-33.1-2.1-54.2c-10.2-21.1-29-34.2-23.8-48.7,3.9-11.1,14.1-7,17.3-3.8-10.5-2.4-10.5,14.2-3.5,22.9,9.2,11.4,31.2,37.8,12.1,83.8Z"/>
              <path class="st7" d="M74.8,213.7s-8.6,7.9-2.6,14.5c6,6.6,22.6,32.7,18.3,55.2,7.2-9.7,2-54.8-15.7-69.7Z"/>
              <path class="st7" d="M71.6,258s-20.5-27.6-26.2-35.9c-5.7-8.3-15.7-29.2-5.3-44.9,10.4-15.6,28.3-5.7,26.3,8.1-1.6-4.3-6.1-7.9-11.3-6.3-5.2,1.6-6.7,5,1.1,5-5.1,4.5-10.4,16.1-5.5,20.6,2.9-10.1,8-14.8,12.3-14.3-11.5,12-13.4,26.1-5.9,41.3,7.5,15.2,15.4,23.8,14.5,26.5Z"/>
              <path class="st7" d="M92.7,246.5s-.3-21.5-11.7-31.8c-11.4-10.3-15.1-19.5-12.3-31.3,4.2,7.4,14.1,16,20.2,24.6,6,8.7,4.7,35,3.8,38.4Z"/>
              <path class="st7" d="M33.6,183.4s6.7-19.8,19.8-18.7c13.1,1,13,10.6,18.2,10.6s8.1-8.9,0-13c-8.1-4.1-33.1-7.8-38.1,21.2Z"/>
              <path class="st7" d="M46.7,159.5s17.3-32,38.3-24.2c7.5,3.5,2.6,14.4-4.3,13-6.9-1.4-17.1-6.1-34,11.3Z"/>
              <path class="st7" d="M53.6,157.3s20.7-9.9,34.5,0c13.8,9.9.3,21.9-3.9,17.1-4.1-4.9-4.9-22.9-30.6-17.1Z"/>
              <path class="st7" d="M59.9,139.3s26.9-20.3,17.8-48.1c-7.8,7.3-12.3,10.2-11.3,18.1,1,7.9,1.6,17.6-6.5,30Z"/>
              <path class="st7" d="M38.7,214.9s-14.7-21.7-6-39.4c8.6-17.7,34.8-37.9,28.5-60.3-6.3-22.4-21.5-26-36.4-24.1-14.9,2-19.8,19.6-15.8,25.2,4,5.7,15.5,2.4,13.9-5.1-1.6-7.6,5-14.9,14.1-14.6,9.2.3,19.9,23.5,12.8,33-7.1,9.5-27,33.2-24.1,45.8-3.1-4.2-7.3-17.2-4.7-21.2-6,10-6.9,33,17.5,60.6Z"/>
              <path class="st7" d="M22.9,159.5s1.5-12.5,12.6-20.2c11-7.7,14.4-22.3,8.7-31.3-5.8-8.9-15.2-3.2-15.3,3.2-.1,6.5,6.2,4.2,8.2,3.2,2.1-.9,5.6,5.7-1.6,13.5-7.2,7.8-12.8,18.2-12.6,31.4Z"/>
            </g>
            <path class="st7" d="M62.1,318.3s-9.3-12.4-8.7-20.9c.6-8.5-1.2-24.6-8.1-26.2,9-1.8,25.9,7.7,22.4,21.1-3.5,13.4-8.4,17.7-5.6,26Z"/>
          </g>
          <g>
            <g>
              <path class="st7" d="M78.2,514.7s4.5-24.2-7.6-40.7c-12-16.5-40.1-18.1-51.1,3.2-11,21.4,4.2,38.4,17.7,36.5,13.6-1.8,12.8-16,7.4-20-5.4-4.1-10,3-6.3,6.2,3.7,3.2,1.4,10.6-4.2,10.3-5.6-.3-18.3-14.2-12.7-29.6,5.6-15.4,22-17.2,29.6-15.4,7.6,1.8,30.7,13,27.1,49.5Z"/>
              <path class="st7" d="M72.4,513.9s4.5-21.8-8-36.8c-12.5-15-29.3-11.4-30.6-3-1.3,8.4,3.3,8.3,6.7,6.5,3.4-1.8,12.3-6,19.8.4,7.5,6.4,13.5,18.8,12.2,32.9Z"/>
              <path class="st7" d="M9.8,438.2s2.9,13.2,12.2,17.1c9.2,3.9,27.3-3.2,37.9,4.5-8.2-9.3-17.1-18.5-27.9-16.8-10.8,1.6-17.1-.4-22.2-4.7Z"/>
              <path class="st7" d="M48.7,446.8s-19.1-16.8-31-14.4c-12,2.4-10.4-11.6-1.9-12.6,8.6-1,21.8,8.9,32.9,27Z"/>
              <path class="st7" d="M81.8,530.6s8.1-33.1-2.1-54.2c-10.2-21.1-29-34.2-23.8-48.7,3.9-11.1,14.1-7,17.3-3.8-10.5-2.4-10.5,14.2-3.5,22.9,9.2,11.4,31.2,37.8,12.1,83.8Z"/>
              <path class="st7" d="M74.8,427s-8.6,7.9-2.6,14.5c6,6.6,22.6,32.7,18.3,55.2,7.2-9.7,2-54.8-15.7-69.7Z"/>
              <path class="st7" d="M71.6,471.3s-20.5-27.6-26.2-35.9c-5.7-8.3-15.7-29.2-5.3-44.9,10.4-15.6,28.3-5.7,26.3,8.1-1.6-4.3-6.1-7.9-11.3-6.3-5.2,1.6-6.7,5,1.1,5-5.1,4.5-10.4,16.1-5.5,20.6,2.9-10.1,8-14.8,12.3-14.3-11.5,12-13.4,26-5.9,41.3,7.5,15.2,15.4,23.8,14.5,26.5Z"/>
              <path class="st7" d="M92.7,459.7s-.3-21.5-11.7-31.8c-11.4-10.3-15.1-19.5-12.3-31.3,4.2,7.4,14.1,16,20.2,24.6,6,8.7,4.7,35,3.8,38.4Z"/>
              <path class="st7" d="M33.6,396.7s6.7-19.8,19.8-18.7c13.1,1,13,10.6,18.2,10.6s8.1-8.9,0-13c-8.1-4.1-33.1-7.8-38.1,21.2Z"/>
              <path class="st7" d="M46.7,372.7s17.3-32,38.3-24.2c7.5,3.5,2.6,14.4-4.3,13-6.9-1.4-17.1-6.1-34,11.3Z"/>
              <path class="st7" d="M53.6,370.6s20.7-9.9,34.5,0c13.8,9.9.3,21.9-3.9,17.1-4.1-4.9-4.9-22.9-30.6-17.1Z"/>
              <path class="st7" d="M59.9,352.6s26.9-20.3,17.8-48.1c-7.8,7.3-12.3,10.2-11.3,18.1,1,7.9,1.6,17.6-6.5,30Z"/>
              <path class="st7" d="M38.7,428.2s-14.7-21.7-6-39.4c8.6-17.7,34.8-37.9,28.5-60.3-6.3-22.4-21.5-26-36.4-24.1-14.9,2-19.8,19.6-15.8,25.2,4,5.7,15.5,2.4,13.9-5.1-1.6-7.6,5-14.9,14.1-14.6,9.2.3,19.9,23.5,12.8,33-7.1,9.5-27,33.2-24.1,45.8-3.1-4.2-7.3-17.2-4.7-21.2-6,10-6.9,33,17.5,60.6Z"/>
              <path class="st7" d="M22.9,372.7s1.5-12.5,12.6-20.2c11-7.7,14.4-22.3,8.7-31.3-5.8-8.9-15.2-3.2-15.3,3.2-.1,6.5,6.2,4.2,8.2,3.2,2.1-.9,5.6,5.7-1.6,13.5-7.2,7.8-12.8,18.2-12.6,31.4Z"/>
            </g>
            <path class="st7" d="M62.1,531.6s-9.3-12.4-8.7-20.9c.6-8.5-1.2-24.6-8.1-26.2,9-1.8,25.9,7.7,22.4,21.1-3.5,13.4-8.4,17.7-5.6,26Z"/>
          </g>
        </g>
        <g>
          <g>
            <g>
              <path class="st7" d="M78.2,759.8s4.5,24.1-7.6,40.5c-12,16.4-40.1,18.1-51.1-3.2-11-21.3,4.2-38.2,17.7-36.4,13.6,1.8,12.8,15.9,7.4,19.9-5.4,4-10-3-6.3-6.2,3.7-3.2,1.4-10.5-4.2-10.2-5.6.3-18.3,14.1-12.7,29.5,5.6,15.4,22,17.1,29.6,15.4,7.6-1.8,30.7-12.9,27.1-49.3Z"/>
              <path class="st7" d="M72.4,760.6s4.5,21.7-8,36.6c-12.5,14.9-29.3,11.3-30.6,3-1.3-8.4,3.3-8.2,6.7-6.5,3.4,1.7,12.3,5.9,19.8-.4,7.5-6.3,13.5-18.7,12.2-32.7Z"/>
              <path class="st7" d="M9.8,835.9s2.9-13.1,12.2-17c9.2-3.8,27.3,3.2,37.9-4.4-8.2,9.3-17.1,18.4-27.9,16.8-10.8-1.6-17.1.4-22.2,4.7Z"/>
              <path class="st7" d="M48.7,827.4s-19.1,16.8-31,14.3c-12-2.4-10.4,11.5-1.9,12.5,8.6,1,21.8-8.9,32.9-26.9Z"/>
              <path class="st7" d="M81.8,744s8.1,32.9-2.1,54c-10.2,21-29,34-23.8,48.5,3.9,11,14.1,7,17.3,3.8-10.5,2.4-10.5-14.1-3.5-22.8,9.2-11.4,31.2-37.6,12.1-83.5Z"/>
              <path class="st7" d="M74.8,847.1s-8.6-7.8-2.6-14.4c6-6.6,22.6-32.5,18.3-55,7.2,9.7,2,54.6-15.7,69.4Z"/>
              <path class="st7" d="M71.6,803s-20.5,27.5-26.2,35.8c-5.7,8.3-15.7,29.1-5.3,44.7,10.4,15.6,28.3,5.7,26.3-8.1-1.6,4.2-6.1,7.9-11.3,6.3-5.2-1.6-6.7-5,1.1-5-5.1-4.4-10.4-16-5.5-20.5,2.9,10.1,8,14.7,12.3,14.3-11.5-11.9-13.4-25.9-5.9-41.1,7.5-15.2,15.4-23.7,14.5-26.3Z"/>
              <path class="st7" d="M92.7,814.5s-.3,21.4-11.7,31.7c-11.4,10.2-15.1,19.4-12.3,31.1,4.2-7.4,14.1-15.9,20.2-24.5,6-8.6,4.7-34.8,3.8-38.3Z"/>
              <path class="st7" d="M33.6,877.3s6.7,19.7,19.8,18.7c13.1-1,13-10.5,18.2-10.5s8.1,8.9,0,12.9c-8.1,4-33.1,7.7-38.1-21.1Z"/>
              <path class="st7" d="M46.7,901.1s17.3,31.8,38.3,24.1c7.5-3.4,2.6-14.3-4.3-12.9-6.9,1.4-17.1,6.1-34-11.2Z"/>
              <path class="st7" d="M53.6,903.2s20.7,9.9,34.5,0c13.8-9.9.3-21.8-3.9-17-4.1,4.9-4.9,22.8-30.6,17Z"/>
              <path class="st7" d="M59.9,921.2s26.9,20.2,17.8,47.9c-7.8-7.3-12.3-10.1-11.3-18,1-7.9,1.6-17.5-6.5-29.9Z"/>
              <path class="st7" d="M38.7,845.9s-14.7,21.6-6,39.2c8.6,17.6,34.8,37.8,28.5,60-6.3,22.3-21.5,25.9-36.4,23.9-14.9-2-19.8-19.5-15.8-25.1,4-5.7,15.5-2.4,13.9,5.1-1.6,7.5,5,14.8,14.1,14.5,9.2-.3,19.9-23.4,12.8-32.9-7.1-9.4-27-33.1-24.1-45.6-3.1,4.2-7.3,17.1-4.7,21.1-6-10-6.9-32.9,17.5-60.3Z"/>
              <path class="st7" d="M22.9,901.1s1.5,12.4,12.6,20.1c11,7.7,14.4,22.2,8.7,31.1-5.8,8.9-15.2,3.2-15.3-3.2-.1-6.5,6.2-4.2,8.2-3.2,2.1.9,5.6-5.7-1.6-13.5-7.2-7.8-12.8-18.1-12.6-31.3Z"/>
            </g>
            <path class="st7" d="M62.1,743s-9.3,12.3-8.7,20.8c.6,8.5-1.2,24.5-8.1,26.1,9,1.8,25.9-7.7,22.4-21-3.5-13.3-8.4-17.6-5.6-25.9Z"/>
          </g>
          <g>
            <g>
              <path class="st7" d="M78.2,547.5s4.5,24.1-7.6,40.5c-12,16.4-40.1,18.1-51.1-3.2-11-21.3,4.2-38.2,17.7-36.4,13.6,1.8,12.8,15.9,7.4,19.9-5.4,4-10-3-6.3-6.2,3.7-3.2,1.4-10.5-4.2-10.2-5.6.3-18.3,14.1-12.7,29.5,5.6,15.4,22,17.1,29.6,15.4,7.6-1.8,30.7-12.9,27.1-49.3Z"/>
              <path class="st7" d="M72.4,548.3s4.5,21.7-8,36.6c-12.5,14.9-29.3,11.3-30.6,3-1.3-8.4,3.3-8.2,6.7-6.5,3.4,1.8,12.3,5.9,19.8-.4,7.5-6.3,13.5-18.7,12.2-32.7Z"/>
              <path class="st7" d="M9.8,623.6s2.9-13.1,12.2-17c9.2-3.8,27.3,3.2,37.9-4.4-8.2,9.3-17.1,18.4-27.9,16.8-10.8-1.6-17.1.4-22.2,4.6Z"/>
              <path class="st7" d="M48.7,615.2s-19.1,16.8-31,14.3c-12-2.4-10.4,11.5-1.9,12.5,8.6,1,21.8-8.9,32.9-26.9Z"/>
              <path class="st7" d="M81.8,531.7s8.1,32.9-2.1,53.9c-10.2,21-29,34-23.8,48.5,3.9,11,14.1,7,17.3,3.8-10.5,2.4-10.5-14.1-3.5-22.8,9.2-11.4,31.2-37.6,12.1-83.5Z"/>
              <path class="st7" d="M74.8,634.8s-8.6-7.8-2.6-14.4c6-6.6,22.6-32.5,18.3-55,7.2,9.7,2,54.6-15.7,69.4Z"/>
              <path class="st7" d="M71.6,590.7s-20.5,27.5-26.2,35.8c-5.7,8.3-15.7,29.1-5.3,44.7,10.4,15.6,28.3,5.7,26.3-8.1-1.6,4.2-6.1,7.9-11.3,6.3-5.2-1.6-6.7-5,1.1-5-5.1-4.4-10.4-16-5.5-20.5,2.9,10.1,8,14.7,12.3,14.3-11.5-11.9-13.4-25.9-5.9-41.1,7.5-15.2,15.4-23.7,14.5-26.3Z"/>
              <path class="st7" d="M92.7,602.2s-.3,21.4-11.7,31.7c-11.4,10.2-15.1,19.4-12.3,31.1,4.2-7.4,14.1-15.9,20.2-24.5,6-8.6,4.7-34.8,3.8-38.3Z"/>
              <path class="st7" d="M33.6,665s6.7,19.7,19.8,18.7c13.1-1,13-10.5,18.2-10.5s8.1,8.9,0,12.9c-8.1,4-33.1,7.7-38.1-21.1Z"/>
              <path class="st7" d="M46.7,688.8s17.3,31.8,38.3,24.1c7.5-3.4,2.6-14.3-4.3-12.9-6.9,1.4-17.1,6.1-34-11.2Z"/>
              <path class="st7" d="M53.6,690.9s20.7,9.9,34.5,0c13.8-9.9.3-21.8-3.9-17-4.1,4.9-4.9,22.8-30.6,17Z"/>
              <path class="st7" d="M59.9,708.9s26.9,20.2,17.8,47.9c-7.8-7.3-12.3-10.1-11.3-18,1-7.9,1.6-17.5-6.5-29.9Z"/>
              <path class="st7" d="M38.7,633.6s-14.7,21.6-6,39.2c8.6,17.6,34.8,37.8,28.5,60-6.3,22.3-21.5,25.9-36.4,23.9-14.9-2-19.8-19.5-15.8-25.1,4-5.7,15.5-2.4,13.9,5.1-1.6,7.5,5,14.8,14.1,14.5,9.2-.3,19.9-23.4,12.8-32.9-7.1-9.4-27-33.1-24.1-45.6-3.1,4.1-7.3,17.1-4.7,21.1-6-10-6.9-32.9,17.5-60.4Z"/>
              <path class="st7" d="M22.9,688.8s1.5,12.4,12.6,20.1c11,7.7,14.4,22.2,8.7,31.1-5.8,8.9-15.2,3.2-15.3-3.2-.1-6.5,6.2-4.2,8.2-3.2,2.1.9,5.6-5.7-1.6-13.5-7.2-7.8-12.8-18.1-12.6-31.3Z"/>
            </g>
            <path class="st7" d="M62.1,530.7s-9.3,12.3-8.7,20.8c.6,8.5-1.2,24.5-8.1,26.1,9,1.8,25.9-7.7,22.4-21-3.5-13.3-8.4-17.6-5.6-25.9Z"/>
          </g>
        </g>
      </g>
    </g>
    <g>
      <g>
        <path class="st7" d="M1432.2,82.9s-11.8-8.1-13.5-19.9c-1.7-11.9,9.5-24.4,23-20.3,13.4,4.1,14,17.5,7.5,22.5-6.5,5-12-1.1-11.4-5.1.6-3.9,5.4-3,5.2-.1-.2,2.9,3.7,4.9,6,2.4,2.3-2.5,1.9-13.6-6.8-17.5-8.7-3.9-16.4,2.3-18.9,6.2-2.5,3.9-7.7,18.4,8.8,31.8Z"/>
        <path class="st7" d="M1434.3,80.1s-10.9-7.1-11.7-18.5c-.9-11.4,7.8-17.1,11.8-14.2,4,2.9,2,4.8-.2,5.5-2.2.7-7.7,2.8-8.2,8.6-.6,5.8,2,13.4,8.3,18.7Z"/>
        <path class="st7" d="M1430.5,81.2s8,11.8,19.9,13.5c11.9,1.7,24.4-9.6,20.3-23-4.1-13.4-17.5-14-22.5-7.5-5,6.5,1.1,12,5.1,11.4,3.9-.6,3-5.4.1-5.2-2.9.2-4.9-3.7-2.4-6,2.5-2.3,13.6-1.9,17.5,6.8,3.9,8.7-2.3,16.4-6.2,18.9-3.9,2.5-18.4,7.7-31.8-8.8Z"/>
        <path class="st7" d="M1433.3,79.1s7,10.9,18.5,11.7c11.4.9,17.1-7.8,14.2-11.8-2.9-4-4.8-2-5.5.2-.7,2.2-2.8,7.7-8.5,8.2-5.8.6-13.4-2-18.7-8.3Z"/>
      </g>
      <g>
        <path class="st7" d="M67.4,82.9s11.8-8.1,13.5-19.9c1.7-11.9-9.6-24.4-23-20.3-13.4,4.1-14,17.5-7.5,22.5,6.5,5,12-1.1,11.4-5.1-.6-3.9-5.4-3-5.2-.1.2,2.9-3.7,4.9-6,2.4-2.3-2.5-1.9-13.6,6.8-17.5,8.7-3.9,16.4,2.3,18.9,6.2,2.5,3.9,7.7,18.4-8.8,31.8Z"/>
        <path class="st7" d="M65.3,80.1s10.9-7.1,11.7-18.5c.9-11.4-7.8-17.1-11.8-14.2-4,2.9-2,4.8.2,5.5,2.2.7,7.7,2.8,8.2,8.6.6,5.8-2,13.4-8.3,18.7Z"/>
        <path class="st7" d="M69,81.2s-8.1,11.8-19.9,13.5c-11.9,1.7-24.4-9.6-20.3-23,4.1-13.4,17.5-14,22.5-7.5,5,6.5-1.1,12-5.1,11.4-3.9-.6-3-5.4-.1-5.2,2.9.2,4.9-3.7,2.4-6s-13.6-1.9-17.6,6.8c-3.9,8.7,2.3,16.4,6.2,18.9,3.9,2.5,18.4,7.7,31.8-8.8Z"/>
        <path class="st7" d="M66.2,79.1s-7.1,10.9-18.5,11.7c-11.4.9-17.1-7.8-14.2-11.8,2.9-4,4.8-2,5.5.2.7,2.2,2.8,7.7,8.5,8.2,5.8.6,13.4-2,18.7-8.3Z"/>
      </g>
    </g>
    <g>
      <g>
        <path class="st7" d="M1432.2,977.1s-11.8,8.1-13.5,19.9c-1.7,11.9,9.5,24.4,23,20.3s14-17.5,7.5-22.5c-6.5-5-12,1.1-11.4,5.1.6,3.9,5.4,3,5.2.1-.2-2.9,3.7-4.9,6-2.4,2.3,2.5,1.9,13.6-6.8,17.6-8.7,3.9-16.4-2.3-18.9-6.2-2.5-3.9-7.7-18.4,8.8-31.8Z"/>
        <path class="st7" d="M1434.3,979.8s-10.9,7.1-11.7,18.5c-.9,11.4,7.8,17.1,11.8,14.2,4-2.9,2-4.8-.2-5.5-2.2-.7-7.7-2.8-8.2-8.6-.6-5.8,2-13.4,8.3-18.7Z"/>
        <path class="st7" d="M1430.5,978.7s8-11.8,19.9-13.5c11.9-1.7,24.4,9.6,20.3,23-4.1,13.4-17.5,14-22.5,7.5-5-6.5,1.1-12,5.1-11.4,3.9.6,3,5.4.1,5.2-2.9-.2-4.9,3.7-2.4,6,2.5,2.3,13.6,1.9,17.5-6.8,3.9-8.7-2.3-16.4-6.2-18.9-3.9-2.5-18.4-7.7-31.8,8.8Z"/>
        <path class="st7" d="M1433.3,980.8s7-10.9,18.5-11.7c11.4-.9,17.1,7.8,14.2,11.8-2.9,4-4.8,2-5.5-.2-.7-2.2-2.8-7.7-8.5-8.2-5.8-.6-13.4,2-18.7,8.3Z"/>
      </g>
      <g>
        <path class="st7" d="M67.4,977.1s11.8,8.1,13.5,19.9c1.7,11.9-9.6,24.4-23,20.3-13.4-4.1-14-17.5-7.5-22.5,6.5-5,12,1.1,11.4,5.1-.6,3.9-5.4,3-5.2.1.2-2.9-3.7-4.9-6-2.4-2.3,2.5-1.9,13.6,6.8,17.6,8.7,3.9,16.4-2.3,18.9-6.2,2.5-3.9,7.7-18.4-8.8-31.8Z"/>
        <path class="st7" d="M65.3,979.8s10.9,7.1,11.7,18.5c.9,11.4-7.8,17.1-11.8,14.2-4-2.9-2-4.8.2-5.5,2.2-.7,7.7-2.8,8.2-8.6.6-5.8-2-13.4-8.3-18.7Z"/>
        <path class="st7" d="M69,978.7s-8.1-11.8-19.9-13.5c-11.9-1.7-24.4,9.6-20.3,23,4.1,13.4,17.5,14,22.5,7.5,5-6.5-1.1-12-5.1-11.4-3.9.6-3,5.4-.1,5.2,2.9-.2,4.9,3.7,2.4,6-2.5,2.3-13.6,1.9-17.6-6.8-3.9-8.7,2.3-16.4,6.2-18.9,3.9-2.5,18.4-7.7,31.8,8.8Z"/>
        <path class="st7" d="M66.2,980.8s-7.1-10.9-18.5-11.7c-11.4-.9-17.1,7.8-14.2,11.8,2.9,4,4.8,2,5.5-.2.7-2.2,2.8-7.7,8.5-8.2,5.8-.6,13.4,2,18.7,8.3Z"/>
      </g>
    </g>
  </g>
  <g>
    <path class="st3" d="M629.5,40.6c.7,0,1.3.3,1.7.8.5.5.7,1.1.7,1.8v.2c-.3,17.9.7,21.9,3.1,27.3,3.6,7.3,13.6,6.4,19.1-.4,2.7-3.1,6-8.9,9.5-20.6,0-.2,0-.4.2-.5.2-.5.6-.9,1.1-1.2.5-.2,1-.3,1.6-.2.5.1,1,.4,1.4.8.3.4.5,1,.6,1.5,0,.2,0,.3,0,.5l-1.3,4.3c-2.4,6.9-6.5,19-16.2,24-4.4,2.2-13.9,3.8-19.2-4.7-1.2-2-2.4-4.2-3.5-9.7-.8-3.9-1.1-9.3-1-17,0-1.3,0-2.8,0-4.2v-.3c0-.6.3-1.2.8-1.6.4-.4,1-.6,1.6-.7Z"/>
    <path class="st2" d="M625.8,35.8c.8,0,1.6.4,2.1.9.6.6.9,1.4.8,2.2,0,0,0,.1,0,.2-.4,22,.9,27,3.8,33.6,4.4,9.1,16.7,7.8,23.4-.5,3.2-3.8,7.3-11,11.6-25.4,0-.2.1-.5.2-.7.2-.4.4-.7.7-1,.3-.3.6-.5,1-.6.4-.1.8-.2,1.2-.2.4,0,.8.1,1.1.3.5.3.9.6,1.2,1.1.3.5.5,1,.5,1.6,0,.2,0,.4,0,.6l-1.6,5.2c-2.9,8.4-7.9,23.5-19.9,29.5-5.5,2.8-17.1,4.7-23.6-5.7-1.5-2.5-3-5.2-4.3-11.9-.9-4.7-1.4-11.5-1.3-21v-5.6c0-.7.4-1.4,1-1.9s1.3-.8,2-.8Z"/>
    <path class="st5" d="M621.8,30.5c1,0,1.9.4,2.6,1.1.7.7,1,1.6,1,2.6v.2c-.4,26.8,1.1,32.9,4.6,40.9,5.4,11.1,20.4,9.5,28.6-.6,4-4.6,9-13.4,14.2-30.9,0-.3.2-.6.3-.8.3-.8.9-1.4,1.7-1.7.7-.4,1.6-.5,2.4-.3.8.2,1.5.6,2.1,1.3.5.6.8,1.4.8,2.3s0,.5,0,.7l-2,6.3c-3.5,10.4-9.6,28.7-24.2,36-6.7,3.4-20.8,5.7-28.8-6.9-1.8-3-3.6-6.3-5.2-14.5-1.2-5.8-1.7-13.9-1.5-25.6,0-2,0-4.1,0-6.4v-.4h0c0-.9.5-1.7,1.1-2.3.7-.6,1.5-1,2.4-1Z"/>
    <path class="st8" d="M662.1,70.6c0,3.8-1.2,6.7-3.5,8.7-2.3,2-5.7,3-10.2,3s-7.9-1-10.2-3c-2.3-2-3.5-4.9-3.5-8.7v-19.7h8v19.2c0,2.1.4,3.7,1.3,4.8.9,1,2.3,1.6,4.4,1.6s3.4-.5,4.3-1.5c.9-1,1.4-2.6,1.4-4.8v-19.2h8v19.6ZM691.2,81.7h-7.5v-11.5c0-.9,0-1.9-.1-2.8,0-.9-.3-1.6-.5-2.1-.3-.5-.7-.9-1.2-1.1-.5-.2-1.3-.4-2.2-.4s-1.4.1-2.1.3c-.7.2-1.4.6-2.3,1.1v16.5h-7.4v-23.2h7.4v2.6c1.3-1,2.6-1.8,3.8-2.4,1.2-.6,2.6-.8,4.1-.8,2.5,0,4.5.7,5.9,2.2,1.4,1.5,2.1,3.6,2.1,6.6v15.1ZM704.2,81.7h-7.4v-23.2h7.4v23.2ZM704.4,55.2h-7.9v-5.6h7.9v5.6ZM724,75.7v-4.8c-1,0-2.1.2-3.3.4-1.2.1-2.1.3-2.7.5-.7.2-1.3.6-1.7,1-.4.4-.6,1-.6,1.8s0,.9.1,1.2c0,.3.3.6.6.9.3.3.7.5,1.1.6.4.1,1.1.2,2.1.2s1.5-.2,2.3-.5c.8-.3,1.4-.7,2-1.2ZM724,79.3c-.4.3-.9.7-1.5,1.1-.6.4-1.2.8-1.7,1-.7.3-1.5.6-2.3.7-.8.2-1.6.2-2.6.2-2.2,0-4.1-.7-5.5-2-1.5-1.4-2.2-3.1-2.2-5.2s.4-3.1,1.1-4.2c.8-1.1,1.8-1.9,3.2-2.5,1.4-.6,3.1-1.1,5.1-1.3,2-.3,4.2-.5,6.3-.6h0c0-1.4-.5-2.3-1.6-2.8-1-.5-2.6-.7-4.6-.7s-2.5.2-3.9.7c-1.4.4-2.4.8-3,1h-.7v-5.6c.8-.2,2.1-.4,3.8-.7,1.8-.3,3.6-.4,5.3-.4,4.2,0,7.3.7,9.2,2,1.9,1.3,2.8,3.3,2.8,6.1v15.8h-7.4v-2.5ZM760.3,81.7h-7.5v-11.5c0-.9,0-1.9-.1-2.8,0-.9-.3-1.6-.5-2.1-.3-.5-.7-.9-1.2-1.1-.5-.2-1.3-.4-2.2-.4s-1.4.1-2.1.3c-.7.2-1.4.6-2.3,1.1v16.5h-7.4v-23.2h7.4v2.6c1.3-1,2.6-1.8,3.8-2.4,1.2-.6,2.6-.8,4.1-.8,2.5,0,4.5.7,5.9,2.2,1.4,1.5,2.1,3.6,2.1,6.6v15.1ZM788.5,81.7h-7.4v-2.4c-1.3,1-2.5,1.8-3.6,2.3-1.1.5-2.4.7-3.9.7-2.8,0-5.1-1.1-6.8-3.3-1.7-2.2-2.5-5.1-2.5-8.8s.3-3.7.8-5.2c.6-1.5,1.4-2.8,2.4-3.9.9-1,2.1-1.8,3.4-2.4,1.3-.6,2.7-.9,4-.9s2.5.2,3.4.5c.9.3,1.8.7,2.7,1.1v-9.9h7.4v32.2ZM781,75.3v-11.4c-.5-.2-1.1-.4-1.7-.5-.6,0-1.1-.1-1.6-.1-2,0-3.4.6-4.4,1.8-1,1.2-1.5,2.9-1.5,5.1s.4,3.9,1.2,5c.8,1,2,1.5,3.8,1.5s1.4-.1,2.2-.4c.8-.3,1.4-.6,2-1ZM811.1,65.6h-.7c-.3-.1-.8-.2-1.5-.2-.7,0-1.3,0-1.8,0-1.1,0-2,0-2.8.2-.8.1-1.7.4-2.6.7v15.5h-7.4v-23.2h7.4v3.4c1.6-1.4,3.1-2.3,4.3-2.8,1.2-.5,2.3-.7,3.3-.7s.6,0,.9,0c.3,0,.6,0,.9,0v7.1ZM828.1,75.7v-4.8c-1,0-2.1.2-3.3.4-1.2.1-2.1.3-2.7.5-.7.2-1.3.6-1.7,1-.4.4-.6,1-.6,1.8s0,.9.1,1.2c0,.3.3.6.6.9.3.3.7.5,1.1.6.4.1,1.1.2,2.1.2s1.5-.2,2.3-.5c.8-.3,1.4-.7,2-1.2ZM828.1,79.3c-.4.3-.9.7-1.5,1.1-.6.4-1.2.8-1.7,1-.7.3-1.5.6-2.3.7-.8.2-1.6.2-2.6.2-2.2,0-4.1-.7-5.5-2s-2.2-3.1-2.2-5.2.4-3.1,1.1-4.2c.8-1.1,1.8-1.9,3.2-2.5,1.4-.6,3.1-1.1,5.1-1.3,2-.3,4.2-.5,6.3-.6h0c0-1.4-.5-2.3-1.6-2.8-1-.5-2.6-.7-4.6-.7s-2.5.2-3.9.7c-1.4.4-2.4.8-3,1h-.7v-5.6c.8-.2,2.1-.4,3.8-.7,1.8-.3,3.6-.4,5.3-.4,4.2,0,7.3.7,9.2,2,1.9,1.3,2.8,3.3,2.8,6.1v15.8h-7.4v-2.5ZM863.6,81.7h-7.4v-2.4c-1.3,1-2.5,1.8-3.6,2.3-1.1.5-2.4.7-3.9.7-2.8,0-5.1-1.1-6.8-3.3-1.7-2.2-2.5-5.1-2.5-8.8s.3-3.7.8-5.2c.6-1.5,1.4-2.8,2.4-3.9.9-1,2.1-1.8,3.4-2.4,1.3-.6,2.7-.9,4-.9s2.5.2,3.4.5c.9.3,1.8.7,2.7,1.1v-9.9h7.4v32.2ZM856.2,75.3v-11.4c-.5-.2-1.1-.4-1.7-.5-.6,0-1.1-.1-1.6-.1-2,0-3.4.6-4.4,1.8-1,1.2-1.5,2.9-1.5,5.1s.4,3.9,1.2,5c.8,1,2,1.5,3.8,1.5s1.4-.1,2.2-.4c.8-.3,1.4-.6,2-1ZM892.2,71.5h-17c.1,1.8.8,3.2,2.1,4.2,1.3,1,3.2,1.4,5.6,1.4s3.1-.3,4.6-.8c1.5-.6,2.6-1.2,3.5-1.8h.8v6c-1.7.7-3.3,1.2-4.8,1.5-1.5.3-3.1.5-4.9.5-4.7,0-8.2-1-10.7-3.1-2.5-2.1-3.7-5.1-3.7-9s1.2-6.9,3.5-9.1c2.4-2.2,5.6-3.4,9.7-3.4s6.6,1,8.5,2.9c1.9,1.9,2.9,4.6,2.9,8.2v2.6ZM884.8,67.1c0-1.6-.4-2.7-1.2-3.5-.7-.8-1.9-1.2-3.4-1.2s-2.6.4-3.5,1.1c-.9.7-1.4,1.9-1.6,3.6h9.7Z"/>
    <path class="st8" d="M671.8,90.8c-.5,0-.9,0-1.3-.2-.4-.1-.7-.3-1-.6-.3-.3-.5-.6-.7-1-.2-.4-.2-.9-.2-1.4s0-.9.2-1.3c.1-.4.4-.7.6-1,.3-.3.6-.5,1-.6.4-.2.8-.2,1.3-.2s.5,0,.7,0c.2,0,.4,0,.6.1.2,0,.4.1.5.2.2,0,.3.1.4.2v1.5h-.2c0,0-.2-.1-.3-.2-.1,0-.3-.2-.4-.3-.2,0-.3-.2-.5-.2-.2,0-.4,0-.6,0s-.4,0-.6.1c-.2,0-.4.2-.6.4-.2.2-.3.4-.4.6,0,.3-.2.6-.2,1s0,.7.2,1c.1.3.3.5.4.6.2.2.4.3.6.3.2,0,.4,0,.6,0s.4,0,.6,0c.2,0,.4-.1.5-.2.1,0,.3-.2.4-.3.1,0,.2-.2.3-.2h.2v1.5c-.2,0-.3.1-.4.2-.1,0-.3.1-.4.2-.2,0-.4.1-.6.1-.2,0-.4,0-.7,0ZM679.5,90.7h-4.5v-6.2h4.5v1.2h-2.9v1.1h2.7v1.2h-2.7v1.5h2.9v1.2ZM686.3,90.7h-1.5l-2.6-4.3v4.3h-1.5v-6.2h1.9l2.3,3.6v-3.6h1.5v6.2ZM692.6,85.7h-1.9v5h-1.6v-5h-1.9v-1.2h5.5v1.2ZM696.9,86.4c0-.2,0-.3,0-.4,0-.1-.2-.2-.3-.3-.1,0-.2,0-.4,0-.1,0-.3,0-.5,0h-.6v1.7h.5c.3,0,.5,0,.6,0,.2,0,.3,0,.4-.2.1,0,.2-.2.2-.3,0-.1,0-.2,0-.4ZM699.4,90.7h-2l-1.7-2.3h-.7v2.3h-1.6v-6.2h2.7c.4,0,.7,0,.9,0,.3,0,.5.1.7.3.2.1.4.3.6.5.1.2.2.5.2.8s-.1.8-.3,1.1c-.2.3-.5.5-.9.7l2.1,2.7ZM706,87.6c0,1-.3,1.8-.9,2.4-.6.6-1.4.9-2.4.9s-1.8-.3-2.4-.9c-.6-.6-.9-1.4-.9-2.4s.3-1.8.9-2.4c.6-.6,1.4-.9,2.4-.9s1.8.3,2.4.9c.6.6.9,1.4.9,2.4ZM703.8,89.2c.2-.2.3-.4.3-.7,0-.3.1-.6.1-.9s0-.7-.1-1c0-.3-.2-.5-.3-.6-.1-.2-.3-.3-.5-.4-.2,0-.4-.1-.6-.1s-.4,0-.6.1c-.2,0-.3.2-.5.4-.1.2-.3.4-.3.6,0,.3-.1.6-.1,1s0,.7.1.9c0,.3.2.5.3.6.1.2.3.3.5.4.2,0,.4.1.6.1s.4,0,.6-.1c.2,0,.3-.2.5-.4ZM715.2,88.5c0,.8-.2,1.4-.7,1.8s-1.2.6-2.1.6-1.6-.2-2.1-.6c-.5-.4-.7-1-.7-1.8v-4h1.6v3.9c0,.4,0,.8.3,1,.2.2.5.3.9.3s.7-.1.9-.3c.2-.2.3-.5.3-1v-3.9h1.6v4ZM722.2,90.7h-1.5l-2.6-4.3v4.3h-1.5v-6.2h1.9l2.3,3.6v-3.6h1.5v6.2ZM727,90.7h-3.6v-1.1h1v-4h-1v-1.1h3.6v1.1h-1v4h1v1.1ZM733.8,84.5l-2.3,6.2h-1.8l-2.3-6.2h1.7l1.5,4.4,1.5-4.4h1.6ZM739,90.7h-4.5v-6.2h4.5v1.2h-2.9v1.1h2.7v1.2h-2.7v1.5h2.9v1.2ZM743.7,86.4c0-.2,0-.3,0-.4,0-.1-.2-.2-.3-.3-.1,0-.2,0-.4,0-.1,0-.3,0-.5,0h-.6v1.7h.5c.3,0,.5,0,.6,0,.2,0,.3,0,.4-.2.1,0,.2-.2.2-.3,0-.1,0-.2,0-.4ZM746.2,90.7h-2l-1.7-2.3h-.7v2.3h-1.6v-6.2h2.7c.4,0,.7,0,.9,0,.3,0,.5.1.7.3.2.1.4.3.6.5.1.2.2.5.2.8s-.1.8-.3,1.1c-.2.3-.5.5-.9.7l2.1,2.7ZM751.7,88.8c0,.6-.3,1.1-.8,1.5-.5.4-1.2.6-2.1.6s-1,0-1.3-.1c-.4,0-.7-.2-1.1-.3v-1.5h.2c.3.3.7.5,1.1.6.4.1.8.2,1.2.2s.2,0,.4,0c.2,0,.3,0,.4,0,.1,0,.2-.1.3-.2,0,0,.1-.2.1-.3s0-.3-.2-.4c-.1-.1-.3-.2-.5-.2-.2,0-.5-.1-.7-.2-.3,0-.5-.1-.7-.2-.5-.2-.9-.4-1.1-.7-.2-.3-.3-.7-.3-1.1s.3-1.1.8-1.4c.5-.4,1.2-.6,2-.6s.8,0,1.2.1c.4,0,.7.2,1,.3v1.4h-.2c-.3-.2-.6-.4-.9-.5-.4-.1-.7-.2-1.1-.2s-.3,0-.4,0c-.1,0-.3,0-.4.1-.1,0-.2.1-.3.2,0,0-.1.2-.1.3,0,.2,0,.3.2.4.1,0,.4.2.7.2.2,0,.4,0,.7.1.2,0,.4.1.7.2.5.2.8.4,1.1.6.2.3.3.6.3,1ZM756,90.7h-3.6v-1.1h1v-4h-1v-1.1h3.6v1.1h-1v4h1v1.1ZM762,85.7h-1.9v5h-1.6v-5h-1.9v-1.2h5.5v1.2ZM768.5,90.7h-1.7l-.4-1.3h-2.3l-.4,1.3h-1.6l2.3-6.2h1.8l2.3,6.2ZM766,88.3l-.8-2.2-.8,2.2h1.5ZM766.7,82.2h0c0,0-1.5,1.6-1.5,1.6h-1l1-1.6h1.5ZM772.7,86.4c0-.2,0-.3,0-.4,0-.1-.2-.2-.3-.3-.1,0-.2,0-.4,0-.1,0-.3,0-.5,0h-.6v1.7h.5c.3,0,.5,0,.6,0,.2,0,.3,0,.4-.2.1,0,.2-.2.2-.3,0-.1,0-.2,0-.4ZM775.2,90.7h-2l-1.7-2.3h-.7v2.3h-1.6v-6.2h2.7c.4,0,.7,0,.9,0,.3,0,.5.1.7.3.2.1.4.3.6.5.1.2.2.5.2.8s-.1.8-.3,1.1c-.2.3-.5.5-.9.7l2.1,2.7ZM779.1,90.7h-3.6v-1.1h1v-4h-1v-1.1h3.6v1.1h-1v4h1v1.1ZM786.3,87.6c0,1-.3,1.8-.9,2.4-.6.6-1.4.9-2.4.9s-1.8-.3-2.4-.9c-.6-.6-.9-1.4-.9-2.4s.3-1.8.9-2.4c.6-.6,1.4-.9,2.4-.9s1.8.3,2.4.9c.6.6.9,1.4.9,2.4ZM784.2,89.2c.2-.2.3-.4.3-.7,0-.3.1-.6.1-.9s0-.7-.1-1c0-.3-.2-.5-.3-.6-.1-.2-.3-.3-.5-.4-.2,0-.4-.1-.6-.1s-.4,0-.6.1c-.2,0-.3.2-.5.4-.1.2-.3.4-.3.6,0,.3-.1.6-.1,1s0,.7.1.9c0,.3.2.5.3.6.1.2.3.3.5.4.2,0,.4.1.6.1s.4,0,.6-.1c.2,0,.3-.2.5-.4ZM792.9,90.8c-.5,0-.9,0-1.3-.2-.4-.1-.7-.3-1-.6-.3-.3-.5-.6-.7-1-.2-.4-.2-.9-.2-1.4s0-.9.2-1.3c.1-.4.4-.7.6-1,.3-.3.6-.5,1-.6.4-.2.8-.2,1.3-.2s.5,0,.7,0c.2,0,.4,0,.6.1.2,0,.4.1.5.2.2,0,.3.1.4.2v1.5h-.2c0,0-.2-.1-.3-.2-.1,0-.3-.2-.4-.3-.2,0-.3-.2-.5-.2-.2,0-.4,0-.6,0s-.4,0-.6.1c-.2,0-.4.2-.6.4-.2.2-.3.4-.4.6-.1.3-.2.6-.2,1s0,.7.2,1c.1.3.3.5.4.6.2.2.4.3.6.3.2,0,.4,0,.6,0s.4,0,.6,0c.2,0,.4-.1.5-.2.1,0,.3-.2.4-.3s.2-.2.3-.2h.2v1.5c-.2,0-.3.1-.4.2-.1,0-.3.1-.4.2-.2,0-.4.1-.6.1-.2,0-.4,0-.7,0ZM801.9,90.7h-1.7l-.4-1.3h-2.3l-.4,1.3h-1.6l2.3-6.2h1.8l2.3,6.2ZM799.4,88.3l-.8-2.2-.8,2.2h1.5ZM809.2,90.7h-1.6v-4.2l-1.2,2.7h-1.1l-1.2-2.7v4.2h-1.5v-6.2h1.9l1.4,3.1,1.4-3.1h1.9v6.2ZM815.7,86.5c0,.3,0,.6-.1.8,0,.3-.2.5-.4.7-.2.2-.5.4-.8.6-.3.1-.7.2-1.1.2h-1v2h-1.6v-6.2h2.6c.4,0,.7,0,1,.1.3,0,.5.2.7.3.3.2.4.4.6.6.1.3.2.6.2.9ZM814,86.5c0-.2,0-.3-.1-.5,0-.1-.2-.2-.3-.3-.2,0-.3-.1-.5-.1-.2,0-.4,0-.6,0h-.3v1.9h.5c.3,0,.5,0,.7,0,.2,0,.3-.1.4-.2.1,0,.2-.2.2-.3,0-.1,0-.3,0-.5ZM822.7,87.6c0,1-.3,1.8-.9,2.4-.6.6-1.4.9-2.4.9s-1.8-.3-2.4-.9c-.6-.6-.9-1.4-.9-2.4s.3-1.8.9-2.4c.6-.6,1.4-.9,2.4-.9s1.8.3,2.4.9c.6.6.9,1.4.9,2.4ZM820.6,89.2c.2-.2.3-.4.3-.7,0-.3.1-.6.1-.9s0-.7-.1-1c0-.3-.2-.5-.3-.6-.1-.2-.3-.3-.5-.4-.2,0-.4-.1-.6-.1s-.4,0-.6.1c-.2,0-.3.2-.5.4-.1.2-.3.4-.3.6,0,.3-.1.6-.1,1s0,.7.1.9c0,.3.2.5.3.6.1.2.3.3.5.4.2,0,.4.1.6.1s.4,0,.6-.1c.2,0,.3-.2.5-.4ZM828.8,88.8c0,.6-.3,1.1-.8,1.5-.5.4-1.2.6-2.1.6s-1,0-1.3-.1c-.4,0-.7-.2-1.1-.3v-1.5h.2c.3.3.7.5,1.1.6.4.1.8.2,1.2.2s.2,0,.4,0c.2,0,.3,0,.4,0,.1,0,.2-.1.3-.2,0,0,.1-.2.1-.3s0-.3-.2-.4c-.1-.1-.3-.2-.5-.2-.2,0-.5-.1-.7-.2-.3,0-.5-.1-.7-.2-.5-.2-.9-.4-1.1-.7-.2-.3-.3-.7-.3-1.1s.3-1.1.8-1.4c.5-.4,1.2-.6,2-.6s.8,0,1.2.1c.4,0,.7.2,1,.3v1.4h-.2c-.3-.2-.6-.4-.9-.5-.4-.1-.7-.2-1.1-.2s-.3,0-.4,0c-.1,0-.3,0-.4.1-.1,0-.2.1-.3.2,0,0-.1.2-.1.3,0,.2,0,.3.2.4.1,0,.4.2.7.2.2,0,.4,0,.7.1.2,0,.4.1.7.2.5.2.8.4,1.1.6.2.3.3.6.3,1ZM838.3,87.6c0,.6-.1,1.1-.4,1.6-.3.5-.6.8-1,1.1-.3.2-.6.3-1,.4-.4,0-.8.1-1.3.1h-2.2v-6.2h2.3c.5,0,.9,0,1.3.1.4,0,.7.2.9.4.4.3.8.6,1,1.1.2.4.4,1,.4,1.6ZM836.7,87.6c0-.4,0-.8-.2-1-.1-.3-.4-.5-.7-.7-.2,0-.3-.1-.5-.2-.2,0-.4,0-.8,0h-.4v3.9h.4c.4,0,.7,0,.8,0,.2,0,.4,0,.5-.2.3-.2.5-.4.6-.7.1-.3.2-.6.2-1ZM843.9,90.7h-4.5v-6.2h4.5v1.2h-2.9v1.1h2.7v1.2h-2.7v1.5h2.9v1.2ZM853.6,90.7h-1.7l-.4-1.3h-2.3l-.4,1.3h-1.6l2.3-6.2h1.8l2.3,6.2ZM851.1,88.3l-.8-2.2-.8,2.2h1.5ZM859.9,90.7h-1.5l-2.6-4.3v4.3h-1.5v-6.2h1.9l2.3,3.6v-3.6h1.5v6.2ZM867.2,87.6c0,.6-.1,1.1-.4,1.6-.3.5-.6.8-1,1.1-.3.2-.6.3-1,.4-.4,0-.8.1-1.3.1h-2.2v-6.2h2.3c.5,0,.9,0,1.3.1.4,0,.7.2.9.4.4.3.8.6,1,1.1.2.4.4,1,.4,1.6ZM865.6,87.6c0-.4,0-.8-.2-1-.1-.3-.4-.5-.7-.7-.2,0-.3-.1-.5-.2-.2,0-.4,0-.8,0h-.4v3.9h.4c.4,0,.7,0,.8,0,.2,0,.4,0,.5-.2.3-.2.5-.4.6-.7.1-.3.2-.6.2-1ZM871.8,86.4c0-.2,0-.3,0-.4,0-.1-.2-.2-.3-.3-.1,0-.2,0-.4,0-.1,0-.3,0-.5,0h-.6v1.7h.5c.3,0,.5,0,.6,0,.2,0,.3,0,.4-.2.1,0,.2-.2.2-.3,0-.1,0-.2,0-.4ZM874.3,90.7h-2l-1.7-2.3h-.7v2.3h-1.6v-6.2h2.7c.4,0,.7,0,.9,0,.3,0,.5.1.7.3.2.1.4.3.6.5.1.2.2.5.2.8s-.1.8-.3,1.1c-.2.3-.5.5-.9.7l2.1,2.7ZM880.6,90.7h-1.7l-.4-1.3h-2.3l-.4,1.3h-1.6l2.3-6.2h1.8l2.3,6.2ZM878.1,88.3l-.8-2.2-.8,2.2h1.5ZM887.2,87.6c0,.6-.1,1.1-.4,1.6-.3.5-.6.8-1,1.1-.3.2-.6.3-1,.4-.4,0-.8.1-1.3.1h-2.2v-6.2h2.3c.5,0,.9,0,1.3.1.4,0,.7.2.9.4.4.3.8.6,1,1.1.2.4.4,1,.4,1.6ZM885.5,87.6c0-.4,0-.8-.2-1-.1-.3-.4-.5-.7-.7-.2,0-.3-.1-.5-.2-.2,0-.4,0-.8,0h-.4v3.9h.4c.4,0,.7,0,.8,0,.2,0,.4,0,.5-.2.3-.2.5-.4.6-.7.1-.3.2-.6.2-1ZM892.7,90.7h-4.5v-6.2h4.5v1.2h-2.9v1.1h2.7v1.2h-2.7v1.5h2.9v1.2Z"/>
  </g>
  <g class="st6">
    <path class="st3" d="M415.6,478.5c1.7,0,3.3.7,4.4,1.9,1.2,1.2,1.8,2.8,1.8,4.5v.4c-.7,45.9,1.8,56.3,8,70.1,9.2,18.9,34.8,16.3,48.9-1.1,6.9-8,15.4-22.9,24.3-52.9.1-.5.2-.9.4-1.4.6-1.3,1.6-2.3,2.8-3,1.3-.6,2.7-.8,4.1-.6,1.4.3,2.6,1,3.5,2.1.9,1.1,1.4,2.4,1.4,3.9,0,.4,0,.8,0,1.2l-3.4,11c-6,17.6-16.6,48.9-41.6,61.7-11.4,5.7-35.7,9.7-49.3-12-3-5.1-6.2-10.8-9-24.8-2-10-2.8-23.9-2.6-43.8,0-3.4,0-7.1,0-10.9v-.8c.1-1.6.9-3,2-4.1,1.1-1.1,2.6-1.7,4.2-1.7Z"/>
    <path class="st2" d="M406.1,466.2c2.1,0,4,.9,5.4,2.4,1.4,1.5,2.2,3.5,2.2,5.5,0,.1,0,.3,0,.4-.9,56.4,2.2,69.3,9.9,86.3,11.3,23.3,42.9,20.1,60.2-1.4,8.3-9.8,18.9-28.2,29.8-65.1.1-.6.3-1.2.6-1.7.4-.9,1-1.8,1.8-2.5.7-.7,1.6-1.2,2.6-1.6,1-.4,2-.5,3-.5,1,0,2,.3,2.9.7,1.3.6,2.4,1.6,3.1,2.9.8,1.2,1.2,2.6,1.2,4.1,0,.5,0,1.1-.2,1.6l-4.2,13.4c-7.4,21.7-20.3,60.2-51,75.8-14,7.1-43.8,12.1-60.7-14.6-3.8-6.4-7.7-13.3-10.9-30.5-2.4-12.2-3.6-29.4-3.3-53.9v-14.3c.2-1.9,1-3.7,2.5-5s3.3-2,5.2-2Z"/>
    <path class="st5" d="M395.8,452.4c2.5,0,4.9,1.1,6.6,2.9,1.7,1.8,2.7,4.2,2.6,6.7v.6c-1,68.8,2.8,84.4,11.9,105.1,13.8,28.4,52.3,24.5,73.3-1.6,10.3-11.8,23-34.4,36.4-79.2.2-.7.4-1.4.7-2.1.9-1.9,2.4-3.5,4.2-4.5,1.9-1,4.1-1.3,6.1-.8,2.1.4,3.9,1.6,5.3,3.2,1.3,1.6,2.1,3.7,2.1,5.8s0,1.3-.2,1.9l-5.2,16.2c-9,26.6-24.7,73.6-62,92.5-17.2,8.6-53.4,14.7-73.9-17.8-4.6-7.7-9.3-16.3-13.3-37.3-3-14.9-4.2-35.8-4-65.6,0-5.2,0-10.5.1-16.3v-1h0c.2-2.3,1.2-4.4,2.9-6,1.7-1.6,3.9-2.5,6.2-2.6Z"/>
    <path class="st8" d="M499.3,555.5c0,9.8-3,17.3-8.9,22.5-5.9,5.2-14.7,7.8-26.3,7.8s-20.3-2.6-26.3-7.8c-5.9-5.2-8.9-12.7-8.9-22.4v-50.5h20.5v49.3c0,5.5,1.2,9.6,3.5,12.3,2.3,2.7,6,4,11.2,4s8.8-1.3,11.1-3.9c2.4-2.6,3.6-6.7,3.6-12.4v-49.3h20.5v50.4ZM574,584.1h-19.2v-29.6c0-2.4-.1-4.8-.4-7.2-.2-2.4-.7-4.2-1.3-5.3-.7-1.3-1.8-2.3-3.1-2.9-1.3-.6-3.2-.9-5.7-.9s-3.5.3-5.3.8c-1.8.6-3.7,1.5-5.8,2.7v42.3h-19.1v-59.6h19.1v6.6c3.4-2.7,6.7-4.7,9.8-6.1,3.2-1.4,6.6-2.1,10.5-2.1,6.4,0,11.5,1.9,15.1,5.6,3.6,3.8,5.5,9.4,5.5,16.8v38.8ZM607.5,584.1h-19.1v-59.6h19.1v59.6ZM608,516h-20.2v-14.5h20.2v14.5ZM658.4,568.5v-12.4c-2.6.2-5.4.5-8.4.9-3,.4-5.3.8-6.8,1.3-1.9.6-3.4,1.5-4.4,2.7-1,1.1-1.5,2.6-1.5,4.5s.1,2.2.3,3c.2.8.7,1.5,1.6,2.2.8.7,1.8,1.2,2.9,1.6,1.1.3,2.9.5,5.3.5s3.8-.4,5.8-1.2c2-.8,3.7-1.8,5.2-3.1ZM658.4,577.8c-1,.8-2.3,1.7-3.8,2.8-1.5,1.1-3,2-4.3,2.6-1.9.8-3.8,1.5-5.8,1.9-2,.4-4.2.6-6.6.6-5.7,0-10.4-1.8-14.2-5.3-3.8-3.5-5.7-8-5.7-13.4s1-7.9,2.9-10.7c1.9-2.8,4.7-4.9,8.3-6.5,3.5-1.6,7.9-2.7,13.2-3.4,5.2-.7,10.7-1.2,16.3-1.5v-.3c0-3.3-1.3-5.6-4-6.8-2.7-1.3-6.7-1.9-11.9-1.9s-6.5.6-10.1,1.7c-3.6,1.1-6.1,1.9-7.7,2.5h-1.8v-14.4c2-.5,5.3-1.2,9.8-1.9,4.6-.7,9.1-1.1,13.7-1.1,10.9,0,18.7,1.7,23.5,5,4.8,3.3,7.3,8.6,7.3,15.7v40.6h-19v-6.3ZM751.5,584.1h-19.2v-29.6c0-2.4-.1-4.8-.4-7.2-.2-2.4-.7-4.2-1.3-5.3-.7-1.3-1.8-2.3-3.1-2.9-1.3-.6-3.2-.9-5.7-.9s-3.5.3-5.3.8c-1.8.6-3.7,1.5-5.8,2.7v42.3h-19.1v-59.6h19.1v6.6c3.4-2.7,6.7-4.7,9.8-6.1,3.1-1.4,6.6-2.1,10.5-2.1,6.4,0,11.5,1.9,15.1,5.6,3.6,3.8,5.5,9.4,5.5,16.8v38.8ZM823.8,584.1h-19.1v-6.2c-3.3,2.7-6.4,4.7-9.2,5.9-2.9,1.3-6.2,1.9-9.9,1.9-7.3,0-13.1-2.8-17.4-8.4-4.4-5.6-6.5-13.1-6.5-22.6s.7-9.5,2.2-13.4c1.5-3.9,3.5-7.3,6.1-10.1,2.4-2.7,5.3-4.7,8.8-6.2,3.4-1.5,6.9-2.2,10.3-2.2s6.5.4,8.8,1.2c2.3.7,4.7,1.7,7.1,2.9v-25.4h19.1v82.6ZM804.7,567.6v-29.2c-1.3-.6-2.8-1-4.2-1.2-1.5-.2-2.8-.4-4.1-.4-5,0-8.8,1.6-11.3,4.7-2.5,3.1-3.8,7.4-3.8,13s1,10.1,3,12.7c2,2.6,5.3,3.9,9.7,3.9s3.6-.3,5.5-1c1.9-.7,3.7-1.5,5.1-2.6ZM881.8,542.7h-1.7c-.8-.3-2.1-.5-3.9-.6-1.8-.1-3.3-.2-4.5-.2-2.7,0-5.1.2-7.2.5-2.1.4-4.3,1-6.7,1.8v39.9h-19.1v-59.6h19.1v8.8c4.2-3.6,7.9-6,11-7.2,3.1-1.2,6-1.8,8.6-1.8s1.4,0,2.3,0c.9,0,1.6,0,2.2.2v18.2ZM925.5,568.5v-12.4c-2.6.2-5.4.5-8.4.9-3,.4-5.3.8-6.8,1.3-1.9.6-3.4,1.5-4.4,2.7-1,1.1-1.5,2.6-1.5,4.5s.1,2.2.3,3c.2.8.7,1.5,1.6,2.2.8.7,1.8,1.2,2.9,1.6,1.1.3,2.9.5,5.3.5s3.8-.4,5.8-1.2c2-.8,3.7-1.8,5.2-3.1ZM925.5,577.8c-1,.8-2.3,1.7-3.8,2.8-1.5,1.1-3,2-4.3,2.6-1.9.8-3.8,1.5-5.8,1.9-2,.4-4.2.6-6.6.6-5.7,0-10.4-1.8-14.2-5.3-3.8-3.5-5.7-8-5.7-13.4s1-7.9,2.9-10.7c1.9-2.8,4.7-4.9,8.3-6.5,3.5-1.6,7.9-2.7,13.2-3.4,5.2-.7,10.7-1.2,16.3-1.5v-.3c0-3.3-1.3-5.6-4-6.8-2.7-1.3-6.7-1.9-11.9-1.9s-6.5.6-10.1,1.7c-3.6,1.1-6.1,1.9-7.7,2.5h-1.8v-14.4c2-.5,5.3-1.2,9.8-1.9,4.6-.7,9.1-1.1,13.7-1.1,10.9,0,18.7,1.7,23.5,5,4.8,3.3,7.3,8.6,7.3,15.7v40.6h-19v-6.3ZM1016.7,584.1h-19.1v-6.2c-3.3,2.7-6.4,4.7-9.2,5.9-2.9,1.3-6.2,1.9-9.9,1.9-7.3,0-13.1-2.8-17.4-8.4-4.4-5.6-6.5-13.1-6.5-22.6s.7-9.5,2.2-13.4c1.5-3.9,3.5-7.3,6.1-10.1,2.4-2.7,5.3-4.7,8.8-6.2,3.4-1.5,6.9-2.2,10.3-2.2s6.5.4,8.8,1.2c2.3.7,4.7,1.7,7.1,2.9v-25.4h19.1v82.6ZM997.6,567.6v-29.2c-1.3-.6-2.8-1-4.2-1.2-1.5-.2-2.8-.4-4.1-.4-5,0-8.8,1.6-11.3,4.7-2.5,3.1-3.8,7.4-3.8,13s1,10.1,3,12.7c2,2.6,5.3,3.9,9.7,3.9s3.6-.3,5.5-1c1.9-.7,3.7-1.5,5.1-2.6ZM1090.2,557.8h-43.7c.3,4.7,2.1,8.2,5.3,10.7,3.3,2.5,8.1,3.7,14.5,3.7s7.9-.7,11.7-2.2c3.8-1.5,6.8-3,9-4.7h2.1v15.3c-4.3,1.7-8.4,3-12.2,3.8-3.8.8-8.1,1.2-12.7,1.2-12,0-21.1-2.7-27.5-8.1-6.4-5.4-9.6-13-9.6-23s3-17.6,9-23.4c6.1-5.8,14.3-8.7,24.8-8.7s17,2.5,21.9,7.4c4.9,4.9,7.3,11.9,7.3,21.1v6.7ZM1071.2,546.6c-.1-4-1.1-7-3-9-1.9-2-4.8-3-8.8-3s-6.7,1-9.1,2.9c-2.4,1.9-3.7,5-4,9.2h24.8Z"/>
    <path class="st8" d="M524.1,607.5c-1.2,0-2.3-.2-3.3-.5-1-.4-1.9-.9-2.6-1.6-.7-.7-1.3-1.6-1.7-2.6-.4-1-.6-2.2-.6-3.6s.2-2.4.6-3.4c.4-1,.9-1.9,1.7-2.7.7-.7,1.6-1.3,2.6-1.6,1-.4,2.2-.6,3.4-.6s1.3,0,1.8.1c.5,0,1,.2,1.5.3.5.1.9.3,1.3.5.4.2.7.3,1,.5v3.9h-.5c-.2-.2-.5-.4-.8-.6-.3-.2-.6-.5-1-.7-.4-.2-.8-.4-1.3-.6-.5-.2-.9-.2-1.5-.2s-1.1,0-1.7.3c-.5.2-1,.5-1.4.9-.4.4-.8.9-1,1.6-.3.7-.4,1.5-.4,2.4s.1,1.8.4,2.5c.3.7.6,1.2,1.1,1.6.4.4.9.7,1.5.8.5.2,1.1.2,1.6.2s1,0,1.5-.2c.5-.2.9-.4,1.4-.6.4-.2.7-.4,1-.7.3-.2.5-.4.7-.6h.4v3.8c-.4.2-.8.3-1.1.5-.4.2-.7.3-1.1.4-.5.2-1,.3-1.5.3-.5,0-1.1.1-1.9.1ZM543.9,607.2h-11.6v-16h11.6v3.1h-7.5v2.8h6.9v3.1h-6.9v3.9h7.5v3.1ZM561.5,607.2h-4l-6.8-11v11h-3.8v-16h4.9l5.8,9.2v-9.2h3.8v16ZM577.6,594.3h-5v12.9h-4.1v-12.9h-5v-3.1h14.1v3.1ZM588.6,596.1c0-.4,0-.7-.2-1-.2-.3-.4-.5-.8-.7-.3-.1-.6-.2-1-.2-.4,0-.8,0-1.3,0h-1.5v4.3h1.3c.7,0,1.2,0,1.7,0,.4,0,.8-.2,1.1-.4.3-.2.5-.5.6-.7.1-.3.2-.6.2-1.1ZM595,607.2h-5l-4.4-5.9h-1.9v5.9h-4.1v-16h6.9c.9,0,1.8,0,2.4.2.7.1,1.3.3,1.9.7.6.4,1.1.8,1.4,1.4.4.6.5,1.3.5,2.1s-.3,2.1-.8,2.9c-.5.7-1.3,1.4-2.3,1.9l5.3,6.8ZM611.9,599.2c0,2.5-.7,4.6-2.2,6.1-1.5,1.5-3.5,2.2-6.1,2.2s-4.6-.7-6-2.2c-1.5-1.5-2.2-3.5-2.2-6.1s.7-4.6,2.2-6.1c1.5-1.5,3.5-2.2,6-2.2s4.6.7,6,2.2c1.5,1.5,2.2,3.5,2.2,6.1ZM606.5,603.3c.4-.5.7-1.1.9-1.7.2-.7.3-1.4.3-2.3s-.1-1.8-.3-2.4c-.2-.7-.5-1.2-.9-1.6-.4-.4-.8-.7-1.3-.9-.5-.2-1-.3-1.5-.3s-1,0-1.5.3c-.5.2-.9.5-1.3.9-.4.4-.7,1-.9,1.7-.2.7-.3,1.5-.3,2.4s.1,1.8.3,2.4c.2.7.5,1.2.9,1.6.4.4.8.7,1.3.9.5.2,1,.3,1.5.3s1-.1,1.5-.3c.5-.2.9-.5,1.3-1ZM635.7,601.4c0,2-.6,3.5-1.8,4.5s-3,1.6-5.3,1.6-4.1-.5-5.3-1.6c-1.2-1.1-1.8-2.6-1.8-4.5v-10.2h4.1v10c0,1.1.2,1.9.7,2.5.5.5,1.2.8,2.3.8s1.8-.3,2.3-.8c.5-.5.7-1.4.7-2.5v-10h4.1v10.2ZM653.7,607.2h-4l-6.8-11v11h-3.8v-16h4.9l5.8,9.2v-9.2h3.8v16ZM665.9,607.2h-9.4v-2.8h2.6v-10.3h-2.6v-2.8h9.4v2.8h-2.6v10.3h2.6v2.8ZM683.4,591.2l-5.8,16h-4.6l-5.8-16h4.3l3.9,11.2,3.9-11.2h4.2ZM696.8,607.2h-11.6v-16h11.6v3.1h-7.5v2.8h6.9v3.1h-6.9v3.9h7.5v3.1ZM708.8,596.1c0-.4,0-.7-.2-1-.2-.3-.4-.5-.8-.7-.3-.1-.6-.2-1-.2-.4,0-.8,0-1.3,0h-1.5v4.3h1.3c.7,0,1.2,0,1.7,0,.4,0,.8-.2,1.1-.4.3-.2.5-.5.6-.7.1-.3.2-.6.2-1.1ZM715.2,607.2h-5l-4.4-5.9h-1.9v5.9h-4.1v-16h6.9c.9,0,1.8,0,2.4.2.7.1,1.3.3,1.9.7.6.4,1.1.8,1.4,1.4.4.6.5,1.3.5,2.1s-.3,2.1-.8,2.9c-.5.7-1.3,1.4-2.3,1.9l5.3,6.8ZM729.3,602.2c0,1.6-.7,2.9-2,3.8-1.3,1-3.1,1.5-5.4,1.5s-2.5-.1-3.5-.3c-1-.2-1.9-.5-2.8-.9v-3.8h.5c.9.7,1.8,1.2,2.9,1.6,1.1.4,2.1.5,3,.5s.6,0,1,0c.4,0,.7-.1,1-.2.3-.1.6-.3.8-.5.2-.2.3-.5.3-.9s-.2-.6-.5-.9c-.3-.3-.7-.5-1.3-.6-.6-.1-1.2-.3-1.9-.4-.7-.1-1.3-.3-1.9-.5-1.3-.4-2.3-1-2.9-1.8-.6-.8-.9-1.7-.9-2.8s.7-2.7,2-3.6c1.3-.9,3.1-1.4,5.2-1.4s2.1.1,3.1.3c1,.2,1.9.5,2.7.8v3.7h-.4c-.6-.5-1.4-.9-2.4-1.3-.9-.4-1.9-.5-2.9-.5s-.7,0-1,0c-.3,0-.7.1-1,.3-.3.1-.5.3-.7.5-.2.2-.3.5-.3.7,0,.4.2.7.5,1,.3.2.9.4,1.8.6.6.1,1.1.2,1.7.4.5.1,1.1.3,1.7.5,1.2.4,2.1.9,2.7,1.6.6.7.9,1.6.9,2.7ZM740.4,607.2h-9.4v-2.8h2.6v-10.3h-2.6v-2.8h9.4v2.8h-2.6v10.3h2.6v2.8ZM755.8,594.3h-5v12.9h-4.1v-12.9h-5v-3.1h14.1v3.1ZM772.6,607.2h-4.3l-1.1-3.2h-5.9l-1.1,3.2h-4.2l5.9-16h4.7l5.9,16ZM766.2,601l-2-5.7-2,5.7h3.9ZM767.9,585.2v.2l-3.8,4h-2.6l2.7-4.2h3.8ZM783.4,596.1c0-.4,0-.7-.2-1-.2-.3-.4-.5-.8-.7-.3-.1-.6-.2-1-.2-.4,0-.8,0-1.3,0h-1.5v4.3h1.3c.7,0,1.2,0,1.7,0,.4,0,.8-.2,1.1-.4.3-.2.5-.5.6-.7.1-.3.2-.6.2-1.1ZM789.8,607.2h-5l-4.4-5.9h-1.9v5.9h-4.1v-16h6.9c.9,0,1.8,0,2.4.2.7.1,1.3.3,1.9.7.6.4,1.1.8,1.4,1.4.4.6.5,1.3.5,2.1s-.3,2.1-.8,2.9c-.5.7-1.3,1.4-2.3,1.9l5.3,6.8ZM799.8,607.2h-9.4v-2.8h2.6v-10.3h-2.6v-2.8h9.4v2.8h-2.6v10.3h2.6v2.8ZM818.3,599.2c0,2.5-.7,4.6-2.2,6.1-1.5,1.5-3.5,2.2-6.1,2.2s-4.6-.7-6-2.2c-1.5-1.5-2.2-3.5-2.2-6.1s.7-4.6,2.2-6.1c1.5-1.5,3.5-2.2,6-2.2s4.6.7,6,2.2c1.5,1.5,2.2,3.5,2.2,6.1ZM812.8,603.3c.4-.5.7-1.1.9-1.7.2-.7.3-1.4.3-2.3s-.1-1.8-.3-2.4c-.2-.7-.5-1.2-.9-1.6-.4-.4-.8-.7-1.3-.9-.5-.2-1-.3-1.5-.3s-1,0-1.5.3c-.5.2-.9.5-1.3.9-.4.4-.7,1-.9,1.7-.2.7-.3,1.5-.3,2.4s.1,1.8.3,2.4c.2.7.5,1.2.9,1.6.4.4.8.7,1.3.9.5.2,1,.3,1.5.3s1-.1,1.5-.3c.5-.2.9-.5,1.3-1ZM835.3,607.5c-1.2,0-2.3-.2-3.3-.5-1-.4-1.9-.9-2.6-1.6-.7-.7-1.3-1.6-1.7-2.6-.4-1-.6-2.2-.6-3.6s.2-2.4.6-3.4c.4-1,.9-1.9,1.7-2.7.7-.7,1.6-1.3,2.6-1.6,1-.4,2.2-.6,3.4-.6s1.3,0,1.8.1c.5,0,1,.2,1.5.3.5.1.9.3,1.3.5.4.2.7.3,1,.5v3.9h-.5c-.2-.2-.5-.4-.8-.6-.3-.2-.6-.5-1-.7-.4-.2-.8-.4-1.3-.6-.5-.2-.9-.2-1.5-.2s-1.1,0-1.7.3c-.5.2-1,.5-1.4.9-.4.4-.8.9-1,1.6-.3.7-.4,1.5-.4,2.4s.1,1.8.4,2.5c.3.7.6,1.2,1.1,1.6.4.4.9.7,1.5.8.5.2,1.1.2,1.6.2s1,0,1.5-.2c.5-.2.9-.4,1.4-.6.4-.2.7-.4,1-.7s.5-.4.7-.6h.4v3.8c-.4.2-.8.3-1.1.5-.4.2-.7.3-1.1.4-.5.2-1,.3-1.5.3-.5,0-1.1.1-1.9.1ZM858.3,607.2h-4.3l-1.1-3.2h-5.9l-1.1,3.2h-4.2l5.9-16h4.7l5.9,16ZM851.9,601l-2-5.7-2,5.7h3.9ZM876.9,607.2h-4.1v-10.7l-3,6.9h-2.8l-3-6.9v10.7h-3.9v-16h4.8l3.6,8,3.6-8h4.8v16ZM893.7,596.3c0,.7-.1,1.4-.4,2.1-.3.7-.6,1.3-1.1,1.7-.6.6-1.3,1.1-2.1,1.4-.8.3-1.8.5-2.9.5h-2.6v5.2h-4.1v-16h6.8c1,0,1.9,0,2.6.3.7.2,1.3.4,1.9.8.6.4,1.1,1,1.5,1.6.3.7.5,1.4.5,2.4ZM889.5,596.4c0-.5-.1-.8-.4-1.2-.2-.3-.5-.6-.8-.7-.4-.2-.8-.3-1.3-.3-.4,0-1,0-1.6,0h-.7v4.8h1.2c.7,0,1.3,0,1.7-.1.5,0,.8-.3,1.1-.5.3-.2.5-.5.6-.8.1-.3.2-.7.2-1.2ZM911.8,599.2c0,2.5-.7,4.6-2.2,6.1-1.5,1.5-3.5,2.2-6.1,2.2s-4.6-.7-6-2.2c-1.5-1.5-2.2-3.5-2.2-6.1s.7-4.6,2.2-6.1c1.5-1.5,3.5-2.2,6-2.2s4.6.7,6,2.2c1.5,1.5,2.2,3.5,2.2,6.1ZM906.3,603.3c.4-.5.7-1.1.9-1.7.2-.7.3-1.4.3-2.3s-.1-1.8-.3-2.4c-.2-.7-.5-1.2-.9-1.6-.4-.4-.8-.7-1.3-.9-.5-.2-1-.3-1.5-.3s-1,0-1.5.3c-.5.2-.9.5-1.3.9-.4.4-.7,1-.9,1.7-.2.7-.3,1.5-.3,2.4s.1,1.8.3,2.4c.2.7.5,1.2.9,1.6.4.4.8.7,1.3.9.5.2,1,.3,1.5.3s1-.1,1.5-.3c.5-.2.9-.5,1.3-1ZM927.3,602.2c0,1.6-.7,2.9-2,3.8-1.3,1-3.1,1.5-5.4,1.5s-2.5-.1-3.5-.3c-1-.2-1.9-.5-2.8-.9v-3.8h.5c.9.7,1.8,1.2,2.9,1.6,1.1.4,2.1.5,3,.5s.6,0,1,0c.4,0,.7-.1,1-.2.3-.1.6-.3.8-.5.2-.2.3-.5.3-.9s-.2-.6-.5-.9c-.3-.3-.7-.5-1.3-.6-.6-.1-1.2-.3-1.9-.4-.7-.1-1.3-.3-1.9-.5-1.3-.4-2.3-1-2.9-1.8-.6-.8-.9-1.7-.9-2.8s.7-2.7,2-3.6c1.3-.9,3.1-1.4,5.2-1.4s2.1.1,3.1.3c1,.2,1.9.5,2.7.8v3.7h-.4c-.6-.5-1.4-.9-2.4-1.3-.9-.4-1.9-.5-2.9-.5s-.7,0-1,0c-.3,0-.7.1-1,.3-.3.1-.5.3-.7.5-.2.2-.3.5-.3.7,0,.4.2.7.5,1,.3.2.9.4,1.8.6.6.1,1.1.2,1.7.4.5.1,1.1.3,1.7.5,1.2.4,2.1.9,2.7,1.6.6.7.9,1.6.9,2.7ZM951.8,599.2c0,1.5-.3,2.8-1,4-.7,1.2-1.5,2.1-2.6,2.7-.8.5-1.6.8-2.6,1-.9.2-2,.3-3.3.3h-5.6v-16h5.8c1.3,0,2.4.1,3.4.3.9.2,1.7.5,2.4.9,1.1.7,2,1.6,2.6,2.7.6,1.1,1,2.5,1,4ZM947.6,599.2c0-1.1-.2-1.9-.6-2.7-.4-.8-1-1.3-1.8-1.8-.4-.2-.9-.3-1.3-.4-.4,0-1.1-.1-2-.1h-1v10h1c1,0,1.7,0,2.2-.1.5,0,.9-.3,1.3-.5.8-.4,1.3-1,1.7-1.7.4-.7.5-1.6.5-2.7ZM966.1,607.2h-11.6v-16h11.6v3.1h-7.5v2.8h6.9v3.1h-6.9v3.9h7.5v3.1ZM991,607.2h-4.3l-1.1-3.2h-5.9l-1.1,3.2h-4.2l5.9-16h4.7l5.9,16ZM984.6,601l-2-5.7-2,5.7h3.9ZM1007.3,607.2h-4l-6.8-11v11h-3.8v-16h4.9l5.8,9.2v-9.2h3.8v16ZM1026.1,599.2c0,1.5-.3,2.8-1,4-.7,1.2-1.5,2.1-2.6,2.7-.8.5-1.6.8-2.6,1-.9.2-2,.3-3.3.3h-5.6v-16h5.8c1.3,0,2.4.1,3.4.3.9.2,1.7.5,2.4.9,1.1.7,2,1.6,2.6,2.7.6,1.1,1,2.5,1,4ZM1021.8,599.2c0-1.1-.2-1.9-.6-2.7-.4-.8-1-1.3-1.8-1.8-.4-.2-.9-.3-1.3-.4-.4,0-1.1-.1-2-.1h-1v10h1c1,0,1.7,0,2.2-.1.5,0,.9-.3,1.3-.5.8-.4,1.3-1,1.7-1.7.4-.7.5-1.6.5-2.7ZM1037.7,596.1c0-.4,0-.7-.2-1-.2-.3-.4-.5-.8-.7-.3-.1-.6-.2-1-.2-.4,0-.8,0-1.3,0h-1.5v4.3h1.3c.7,0,1.2,0,1.7,0,.4,0,.8-.2,1.1-.4.3-.2.5-.5.6-.7.1-.3.2-.6.2-1.1ZM1044.2,607.2h-5l-4.4-5.9h-1.9v5.9h-4.1v-16h6.9c.9,0,1.8,0,2.4.2.7.1,1.3.3,1.9.7.6.4,1.1.8,1.4,1.4.4.6.5,1.3.5,2.1s-.3,2.1-.8,2.9c-.5.7-1.3,1.4-2.3,1.9l5.3,6.8ZM1060.3,607.2h-4.3l-1.1-3.2h-5.9l-1.1,3.2h-4.2l5.9-16h4.7l5.9,16ZM1053.9,601l-2-5.7-2,5.7h3.9ZM1077.2,599.2c0,1.5-.3,2.8-1,4-.7,1.2-1.5,2.1-2.6,2.7-.8.5-1.6.8-2.6,1-.9.2-2,.3-3.3.3h-5.6v-16h5.8c1.3,0,2.4.1,3.4.3.9.2,1.7.5,2.4.9,1.1.7,2,1.6,2.6,2.7.6,1.1,1,2.5,1,4ZM1073,599.2c0-1.1-.2-1.9-.6-2.7-.4-.8-1-1.3-1.8-1.8-.4-.2-.9-.3-1.3-.4-.4,0-1.1-.1-2-.1h-1v10h1c1,0,1.7,0,2.2-.1.5,0,.9-.3,1.3-.5.8-.4,1.3-1,1.7-1.7.4-.7.5-1.6.5-2.7ZM1091.5,607.2h-11.6v-16h11.6v3.1h-7.5v2.8h6.9v3.1h-6.9v3.9h7.5v3.1Z"/>
  </g>
  <g id="BRASIL">
    <path class="st1" d="M230.8,190.5c33.6,0,61,27.4,61,61s-27.4,61-61,61-61-27.4-61-61,27.4-61,61-61h0Z"/>
    <path class="st4" d="M249.6,226.9l.9,2.2,2.4.2-1.8,1.5.6,2.3-2-1.3-2,1.3.6-2.3-1.8-1.5,2.4-.2.9-2.2h0ZM245.3,245.4l.6,1.6h1.7c0,.1-1.3,1.2-1.3,1.2l.4,1.7-1.4-.9-1.4.9.4-1.7-1.3-1.1h1.7c0-.1.6-1.7.6-1.7h0ZM181.3,238.2l.9,2.2,2.4.2-1.8,1.5.6,2.3-2-1.3-2,1.3.6-2.3-1.8-1.5,2.4-.2.9-2.2h0ZM207.1,251.2l.7,1.9h2c0,.1-1.5,1.4-1.5,1.4l.5,1.9-1.7-1.1-1.7,1.1.5-1.9-1.5-1.3h2c0-.1.7-2,.7-2ZM191.9,261.1l.5,1.2h1.3c0,0-1,.9-1,.9l.3,1.2-1.1-.7-1.1.7.3-1.2-1-.8h1.3c0,0,.5-1.3.5-1.3h0ZM186.3,263.5l.9,2.2,2.4.2-1.8,1.5.6,2.3-2-1.3-2,1.3.6-2.3-1.8-1.5,2.4-.2.9-2.2ZM179.9,269.3l.7,1.9h2c0,.1-1.5,1.4-1.5,1.4l.5,1.9-1.7-1.1-1.7,1.1.5-1.9-1.5-1.3h2c0-.1.7-2,.7-2h0ZM198.7,269.8l.7,1.9h2c0,.1-1.5,1.4-1.5,1.4l.5,1.9-1.7-1.1-1.7,1.1.5-1.9-1.5-1.3h2c0-.1.7-2,.7-2h0ZM196.5,276.6l.6,1.6h1.7c0,.1-1.3,1.2-1.3,1.2l.4,1.7-1.4-.9-1.4.9.4-1.7-1.3-1.1h1.7c0-.1.6-1.7.6-1.7h0ZM205.4,282l.9,2.2h2.4c0,.1-1.8,1.7-1.8,1.7l.6,2.3-2-1.3-2,1.3.6-2.3-1.8-1.5h2.4c0-.1.9-2.4.9-2.4h0ZM231.3,298.7l.3.8h.9c0,0-.7.6-.7.6l.2.9-.8-.5-.8.5.2-.9-.7-.6h.9c0,0,.3-.9.3-.9h0ZM231.4,259.4l.7,1.9h2c0,.1-1.5,1.4-1.5,1.4l.5,1.9-1.7-1.1-1.7,1.1.5-1.9-1.5-1.3h2c0-.1.7-2,.7-2ZM237,264.6l.7,1.9h2c0,.1-1.5,1.4-1.5,1.4l.5,1.9-1.7-1.1-1.7,1.1.5-1.9-1.5-1.3h2c0-.1.7-2,.7-2ZM227.4,269.6l.5,1.2h1.3c0,0-1,.9-1,.9l.3,1.2-1.1-.7-1.1.7.3-1.2-1-.8h1.3c0,0,.5-1.3.5-1.3ZM223,265.7l.6,1.6h1.7c0,.1-1.3,1.2-1.3,1.2l.4,1.6-1.4-.9-1.4.9.4-1.6-1.3-1.1h1.7c0-.1.6-1.7.6-1.7h0ZM231.1,276.7l.9,2.2,2.4.2-1.8,1.5.6,2.3-2-1.3-2,1.3.6-2.3-1.8-1.5,2.4-.2.9-2.2h0ZM243.7,283.8l.6,1.6h1.7c0,.1-1.3,1.2-1.3,1.2l.4,1.7-1.4-.9-1.4.9.4-1.7-1.3-1.1h1.7c0-.1.6-1.7.6-1.7h0ZM248.7,290.9l.7,1.9h2c0,.1-1.5,1.4-1.5,1.4l.5,1.9-1.7-1.1-1.7,1.1.5-1.9-1.5-1.3h2c0-.1.7-2,.7-2ZM254.2,285.4l.6,1.6h1.7c0,.1-1.3,1.2-1.3,1.2l.4,1.7-1.4-.9-1.4.9.4-1.7-1.3-1.1h1.7c0-.1.6-1.7.6-1.7h0ZM261.5,296.3l.6,1.6h1.7c0,.1-1.3,1.2-1.3,1.2l.4,1.6-1.4-.9-1.4.9.4-1.6-1.3-1.1h1.7c0-.1.6-1.7.6-1.7h0ZM261.6,289.5l.7,1.9h2c0,.1-1.5,1.4-1.5,1.4l.5,1.9-1.7-1.1-1.7,1.1.5-1.9-1.5-1.3h2c0-.1.7-2,.7-2ZM261.4,283.9l.6,1.6h1.7c0,.1-1.3,1.2-1.3,1.2l.4,1.7-1.4-.9-1.4.9.4-1.7-1.3-1.1h1.7c0-.1.6-1.7.6-1.7h0ZM267.5,284l.6,1.6h1.7c0,.1-1.3,1.2-1.3,1.2l.4,1.7-1.4-.9-1.4.9.4-1.7-1.3-1.1h1.7c0-.1.6-1.7.6-1.7h0ZM273.2,281l.7,1.9h2c0,.1-1.5,1.4-1.5,1.4l.5,1.9-1.7-1.1-1.7,1.1.5-1.9-1.5-1.3h2c0-.1.7-2,.7-2ZM276.1,276.2l.7,1.9h2c0,.1-1.5,1.4-1.5,1.4l.5,1.9-1.7-1.1-1.7,1.1.5-1.9-1.5-1.3h2c0-.1.7-2,.7-2ZM273.6,269.6l.9,2.2h2.4c0,.1-1.8,1.7-1.8,1.7l.6,2.3-2-1.3-2,1.3.6-2.3-1.8-1.5h2.4c0-.1.9-2.4.9-2.4h0ZM282.6,271.1l.6,1.6h1.7c0,.1-1.3,1.2-1.3,1.2l.4,1.7-1.4-.9-1.4.9.4-1.7-1.3-1.1h1.7c0-.1.6-1.7.6-1.7Z"/>
    <path class="st1" d="M194.4,232.6c36.3,0,69.5,13.3,95.1,35.3.9-3,1.5-6.1,1.9-9.2-26.5-21.5-60.3-34.4-96.9-34.4s-12.6.4-18.8,1.2c-1.3,2.8-2.4,5.8-3.3,8.8,7.3-1.1,14.7-1.7,22.1-1.7h0Z"/>
    <path class="st4" d="M178.8,229.4c0,.6.2,1,.5,1.4.3.3.7.4,1.2.4.5,0,.8-.2,1.1-.6s.3-.8.3-1.4c0-.6-.2-1-.5-1.4-.3-.3-.7-.4-1.2-.4-.5,0-.8.2-1.1.6-.2.4-.3.8-.3,1.4h0ZM177.6,229.5c0-.9.1-1.6.5-2.1.4-.6,1.1-.9,1.9-.9.8,0,1.5.1,2,.6.5.5.8,1.1.9,2,0,.9-.1,1.6-.5,2.1s-1.1.9-1.9.9c-.8,0-1.5-.1-2-.6-.5-.5-.8-1.1-.9-2h0ZM186.5,228.5h1.3c.3,0,.5-.1.6-.2.1-.1.2-.3.2-.6,0-.2,0-.4-.2-.5-.1-.1-.3-.2-.6-.2h-1.4s0,1.5,0,1.5h0ZM185.5,231.6l-.2-5.4h2.6c.6-.1,1,0,1.3.2.3.2.5.6.5,1.1,0,.3,0,.6-.2.8-.1.2-.3.4-.6.5.2,0,.4.2.5.4.1.2.2.4.2.8v.6s0,0,0,0c0,.3,0,.5.2.6v.2s-1.2,0-1.2,0c0,0,0-.2,0-.3,0-.1,0-.3,0-.4v-.6c0-.3-.1-.6-.2-.7-.1-.1-.3-.2-.6-.2h-1.2s0,2.2,0,2.2h-1.1s0,0,0,0ZM193.5,230.4h.9c.5,0,.9-.1,1.1-.4.2-.3.4-.7.4-1.3,0-.6,0-1.1-.3-1.3-.2-.3-.5-.4-1-.4h-1s0,3.5,0,3.5ZM192.4,231.4v-5.4c.1,0,2.2,0,2.2,0,.8,0,1.5.3,1.9.7.4.5.6,1.1.6,2.1,0,.5,0,.9-.3,1.3-.1.4-.4.7-.7.9-.2.2-.5.3-.7.4-.3,0-.7,0-1.2,0h-1.8s0,0,0,0ZM199.3,231.5l.3-5.4,3.9.2v.9c0,0-2.9-.2-2.9-.2v1.2c0,0,2.5.1,2.5.1v.9c0,0-2.6-.1-2.6-.1v1.4c0,0,2.9.2,2.9.2v1c0,0-4.1-.2-4.1-.2h0ZM205.7,231.9l.6-5.4,1.6.2.6,4.2,1.5-4,1.7.2-.6,5.4h-1c0-.1.5-4.5.5-4.5l-1.6,4.2h-1.1c0-.1-.6-4.6-.6-4.6l-.5,4.4h-1q0-.1,0-.1ZM220.1,233.7l1.1-5.3,3.9.8-.2.9-2.8-.6-.2,1.1,2.5.5-.2.9-2.5-.5-.3,1.4,2.9.6-.2,1-4-.9h0ZM234.5,234.1l1,.3c.3,0,.5,0,.7,0,.2,0,.3-.3.3-.5,0-.2,0-.5,0-.6,0-.2-.3-.3-.5-.3l-1.1-.3-.4,1.5ZM234.2,235l-.5,1.9-1.1-.3,1.4-5.3,2.3.6c.6.1.9.4,1.1.8.2.4.2.8,0,1.4-.1.5-.4.9-.8,1.1-.4.2-.8.3-1.3.1l-1.3-.4h0ZM240.8,235.9l1.3.4c.3,0,.5,0,.7,0,.2,0,.3-.2.4-.5,0-.2,0-.4,0-.6,0-.2-.3-.3-.5-.3l-1.3-.4-.4,1.4ZM238.8,238.5l1.6-5.2,2.5.8c.6.2.9.4,1.1.8.2.3.2.7,0,1.2,0,.3-.2.6-.4.7-.2.2-.4.3-.7.3.2.2.3.3.4.5s0,.5,0,.8l-.2.6h0c0,.3,0,.5,0,.6v.2c0,0-1.2-.4-1.2-.4,0,0,0-.2,0-.3,0-.1,0-.2,0-.4l.2-.6c0-.3,0-.6,0-.7,0-.1-.3-.3-.5-.4l-1.1-.3-.6,2-1.1-.3h0ZM247.1,238.4c-.2.6-.2,1-.1,1.4s.4.7.9.9c.5.2.9.1,1.2,0s.7-.6.9-1.2c.2-.6.2-1,0-1.4-.1-.4-.4-.7-.9-.9-.4-.2-.9-.1-1.2,0-.4.2-.6.6-.9,1.2h0ZM246,238.1c.3-.8.8-1.4,1.4-1.7.6-.3,1.3-.3,2.1,0s1.3.7,1.6,1.4c.3.7.3,1.4,0,2.2-.3.8-.8,1.4-1.4,1.7-.6.3-1.3.3-2.1,0s-1.3-.7-1.6-1.4c-.3-.6-.3-1.4,0-2.2h0ZM256.1,244.4c-.3.2-.6.3-.9.3-.3,0-.6,0-.9-.2-.7-.3-1.2-.8-1.4-1.5s-.2-1.4.2-2.2c.3-.8.8-1.3,1.5-1.6.6-.3,1.3-.3,2,0,.6.3,1.1.6,1.3,1.1s.3,1,.2,1.5l-1-.4c0-.3,0-.5-.1-.8s-.4-.4-.7-.5c-.4-.2-.8-.2-1.2,0-.4.2-.7.6-.9,1.1-.2.5-.3,1-.2,1.4.1.4.4.7.8.9.3.1.6.2.9,0,.3,0,.5-.3.7-.6l-1.1-.5.4-.9,2.1.9-1.2,2.7-.7-.3v-.6q.1,0,.1,0ZM261.3,244.3l1.2.6c.3.1.5.2.6.1.2,0,.3-.2.4-.4.1-.2.1-.4,0-.6,0-.2-.2-.3-.4-.4l-1.2-.6-.6,1.3h0ZM258.9,246.6l2.4-4.9,2.4,1.2c.5.3.9.6,1,.9.1.4.1.8-.1,1.2-.1.3-.3.5-.6.7-.2.1-.5.2-.7.1.2.2.3.4.3.6,0,.2,0,.5-.2.8l-.3.6s0,0,0,0c-.1.3-.2.5,0,.6h0c0,.1-1.1-.4-1.1-.4,0,0,0-.2,0-.3,0-.1,0-.2.1-.4l.2-.5c.1-.3.2-.5.1-.7,0-.2-.2-.3-.5-.4l-1.1-.5-.9,1.9-1-.5h0ZM265,249.7l2.6-4.8,3.5,1.9-.5.8-2.5-1.4-.6,1,2.3,1.3-.5.8-2.3-1.3-.7,1.2,2.6,1.4-.5.9-3.6-2h0ZM271.1,251.4l.9.6c-.1.3-.1.5,0,.8,0,.2.3.4.6.6.3.2.5.2.7.2.2,0,.4-.1.5-.3.2-.3,0-.8-.8-1.4h0s0,0,0-.1c-.4-.4-.6-.7-.7-.9-.1-.2-.1-.4-.1-.7,0-.2.1-.5.2-.7.3-.5.6-.7,1.1-.8.5,0,1,0,1.6.4.5.3.9.7,1,1.2s0,.9-.2,1.4l-.9-.6c.1-.2.1-.5,0-.7,0-.2-.3-.4-.6-.6-.3-.2-.5-.2-.7-.2-.2,0-.4.1-.5.3-.1.2,0,.6.5,1,.3.3.6.6.9.9.1.1.2.3.3.4.1.2.2.4.2.7,0,.2,0,.5-.2.7-.3.5-.7.8-1.2.8s-1,0-1.6-.4c-.6-.4-1-.8-1.1-1.2-.2-.5-.1-1,.2-1.5h0ZM276.9,255l.9.6c-.1.3-.2.5,0,.8,0,.2.3.5.6.7.3.2.5.3.7.3.2,0,.4,0,.5-.3.2-.3,0-.8-.7-1.5,0,0,0,0,0,0,0,0,0,0,0,0-.4-.4-.6-.7-.7-.9,0-.2-.1-.4,0-.7,0-.2.1-.5.3-.7.3-.4.7-.7,1.1-.7.5,0,1,.1,1.5.5.5.4.9.8,1,1.2s0,.9-.2,1.4l-.9-.6c.1-.2.2-.5,0-.7s-.2-.4-.5-.6c-.2-.2-.5-.2-.7-.2s-.4,0-.5.3c-.2.2,0,.6.4,1.1l.3.3c.3.3.5.5.6.7.1.1.2.3.3.4.1.2.2.5.1.7,0,.3-.1.5-.3.7-.3.5-.7.7-1.2.8-.5,0-1-.1-1.6-.5-.6-.4-.9-.8-1.1-1.3-.1-.5,0-1,.2-1.5h0ZM283.8,258.6c-.4.5-.5.9-.5,1.4s.2.8.6,1.1c.4.3.8.4,1.2.3.4-.1.8-.4,1.2-.9.4-.5.5-.9.5-1.4s-.2-.8-.6-1.1c-.4-.3-.8-.4-1.2-.3-.4.1-.8.4-1.2.9h0ZM282.9,257.9c.5-.7,1.1-1.1,1.8-1.2.7-.1,1.4,0,2,.6.6.5,1,1.1,1.1,1.8,0,.7-.2,1.4-.7,2.1-.5.7-1.1,1.1-1.8,1.2-.7.1-1.4,0-2-.6-.6-.5-1-1.1-1.1-1.8,0-.7.2-1.4.7-2.1h0Z"/>
    <path class="st0" d="M229.7,171.3c44.2,0,80.3,36.1,80.3,80.3s-36.1,80.3-80.3,80.3-80.3-36.1-80.3-80.3,36.1-80.3,80.3-80.3h0Z"/>
    <path class="st4" d="M182.1,303.3l-1.9-1.9c-.4-.4-.8-.6-1.2-.6-.4,0-.7.1-1.1.5-.3.3-.5.7-.5,1.1s.2.7.6,1.1l2,2,2.1-2.1h0ZM188.1,300.5l-7.8,7.8-3.8-3.8c-.9-.8-1.3-1.7-1.4-2.4,0-.8.3-1.5,1-2.3.5-.5,1-.8,1.5-.9.5-.1,1.1,0,1.5.2-.2-.5-.3-.9-.2-1.3.1-.4.4-.9.9-1.4l.9-1h0c.5-.5.6-.9.5-1.2l.2-.2,1.8,1.8c0,.2-.2.4-.3.5-.2.2-.3.4-.5.6l-.8.8c-.5.5-.7.9-.7,1.3,0,.3.2.7.6,1.1l1.7,1.7,3-3.1,1.6,1.6ZM180.1,292.1l-9,6.4-4.6-6.6,1.6-1.1,3.3,4.7,1.9-1.4-3-4.3,1.5-1.1,3.1,4.3,2.3-1.6-3.5-4.9,1.7-1.2,4.8,6.8h0ZM167.8,283.8l-1-2c-.3-.5-.6-.9-.9-1-.3-.1-.8,0-1.3.2-.5.2-.8.5-.9.9-.1.4,0,.8.2,1.2l1,2.1,2.9-1.4h0ZM169.6,282.9l3.5-1.7,1,2-9.9,4.9-2.2-4.4c-.5-1-.6-2-.4-2.8.3-.8.9-1.5,2-2,1-.5,1.9-.6,2.8-.4.8.2,1.5.9,1.9,1.8l1.2,2.5h0ZM158.7,276.3l-.6-2.2,6.7-1.8c.8-.2,1.4-.6,1.7-1s.3-1,.1-1.7c-.2-.7-.5-1.2-1-1.4-.5-.2-1.1-.2-1.9,0l-6.7,1.8-.6-2.2,6.9-1.9c1.3-.4,2.4-.3,3.3.3.9.5,1.5,1.5,1.9,2.9.4,1.4.3,2.5-.2,3.5-.5.9-1.4,1.6-2.7,1.9l-6.9,1.9h0ZM153.4,270.9l3.3,1.5.3,1-3.1-.7-.5-1.9ZM164.3,260.1l-.2-2.7c0-.6-.2-1.1-.4-1.4-.3-.3-.6-.4-1.1-.4-.5,0-.9.2-1.1.5-.2.3-.3.8-.2,1.4l.2,2.7,2.9-.2h0ZM159.6,260.4l-.2-2.6c0-.6-.2-1-.4-1.2-.2-.2-.5-.4-.9-.3-.4,0-.7.2-.9.4-.2.3-.2.7-.2,1.3l.2,2.6,2.4-.2ZM166.5,262.1l-11,.8-.4-5.2c0-1.1,0-2,.5-2.6.4-.6,1.1-1,2-1,.6,0,1,0,1.4.2.4.2.7.5.9.9.2-.6.5-1,.9-1.3.4-.3.9-.5,1.6-.5,1.1,0,1.9.2,2.6.9.6.7,1,1.6,1.1,2.9l.4,5h0ZM165.8,250.5l-11-.9.2-2.3,9,.8.5-5.4,2,.2-.6,7.6h0ZM166.7,241l-10.9-2.1.4-2.2,10.9,2.1-.4,2.2ZM167.1,225.4c1.2.5,2,1.3,2.4,2.3s.4,2.3,0,3.6c-.5,1.5-1.4,2.6-2.7,3.1-1.3.5-2.8.5-4.5,0-1.8-.6-3-1.5-3.6-2.7s-.7-2.6-.1-4.3c.5-1.3,1.1-2.3,2.1-2.8.9-.6,2-.7,3.2-.3l-.7,2.1c-.6-.1-1.2,0-1.6.3-.4.3-.8.8-1,1.4-.3.9-.3,1.8.2,2.5.4.7,1.3,1.3,2.4,1.7,1.1.4,2.1.4,2.9.2.8-.3,1.3-.9,1.6-1.8.2-.7.2-1.2,0-1.8-.2-.5-.6-1-1.2-1.3l.7-2.1h0ZM165.8,216.5l3.4,3.6,1.4-2.7-4.9-.8ZM163.2,216.7l1.2-2.3,11.6,1.6-1.1,2.1-2.4-.4-2,3.8,1.7,1.7-1.1,2.1-7.9-8.6ZM187.3,203l-6.7-8.8,6.1-4.7,1.2,1.5-4.4,3.3,1.5,2,3.8-2.9,1.2,1.5-3.8,2.9,2.8,3.7-1.8,1.4h0ZM195.3,196.9l-5.4-9.7,7-3.9.9,1.7-5,2.8,1.2,2.1,4.6-2.6.9,1.7-4.6,2.6,1.4,2.5,5.3-3,1,1.8-7.2,4h0ZM206.4,189l1.7-.6c1-.3,1.6-.8,1.9-1.5.3-.7.2-1.6-.2-2.8-.4-1.2-.9-2-1.5-2.4-.6-.4-1.3-.5-2.2-.2l-2,.7,2.2,6.8h0ZM204.9,191.6l-3.5-10.5,4.1-1.4c1.6-.5,3-.5,4,.1,1.1.6,1.9,1.8,2.5,3.6.3,1,.4,1.9.4,2.7,0,.8-.3,1.6-.7,2.2-.3.5-.7.9-1.2,1.2-.5.3-1.2.6-2.2,1l-3.5,1.2h0ZM216.4,188l-2-10.9,7.9-1.4.3,1.9-5.7,1,.4,2.3,5.2-.9.3,1.9-5.2.9.5,2.8,6-1.1.4,2-8.2,1.5h0ZM229.6,180.1h2.7c.6.1,1,0,1.3-.2.3-.2.4-.6.4-1.1,0-.5-.1-.8-.4-1.1-.3-.3-.6-.4-1.2-.4h-2.8c0,0,0,2.8,0,2.8h0ZM227.1,186.3l.3-11.1,5.4.2c1.2,0,2.1.3,2.7.9.6.5.8,1.3.8,2.4,0,.7-.2,1.2-.5,1.7-.3.4-.7.8-1.2.9.5.2.8.5,1,.8.2.4.3.9.3,1.6v1.3s0,0,0,0c0,.7.1,1.1.4,1.2v.3s-2.5,0-2.5,0c0-.2-.1-.4-.2-.6,0-.3,0-.5,0-.8v-1.2c0-.7-.1-1.2-.3-1.4-.2-.2-.6-.4-1.2-.4h-2.4c0,0-.1,4.2-.1,4.2h-2.3q0,0,0,0ZM244.5,178.9l-2.3,4.4,3,.5-.7-4.9h0ZM243.6,176.5l2.6.4,2,11.6-2.4-.4-.4-2.4-4.2-.7-1.1,2.1-2.4-.4,5.8-10.2h0ZM251.7,189.9l2.8-8.6-3.1-1,.6-1.9,8.4,2.7-.6,1.9-3.1-1-2.8,8.6-2.2-.7h0ZM258.9,193l5-9.9,2,1-5,9.9-2-1ZM266.1,196.9l2.6-11.4,2.1,1.3-2.4,8.3,6.4-5.8,2.1,1.3-9,7.4-1.8-1.1ZM281.4,197.7l-4.4,2.3,2.2,2.1,2.1-4.5h0ZM281.9,195.2l1.9,1.8-4.8,10.7-1.7-1.7,1-2.2-3.1-3-2.1,1.1-1.7-1.7,10.5-5.3h0ZM289.4,219l.8,1.6c.5.9,1.1,1.5,1.8,1.7.7.2,1.6,0,2.7-.6,1.1-.6,1.8-1.2,2.1-1.8.3-.7.3-1.4-.2-2.2l-1-1.9-6.3,3.3h0ZM286.6,217.9l9.8-5.1,2,3.9c.8,1.5.9,2.8.5,4-.4,1.2-1.5,2.2-3.1,3-.9.5-1.8.7-2.6.8-.8,0-1.6,0-2.3-.3-.5-.2-1-.6-1.4-1-.4-.4-.8-1.1-1.3-2l-1.7-3.3h0ZM297.6,228.9c-1.2.3-2,.9-2.5,1.6-.5.7-.6,1.5-.3,2.5.3.9.8,1.6,1.6,1.9s1.8.3,3,0c1.2-.3,2-.9,2.5-1.6s.6-1.5.3-2.5c-.3-.9-.8-1.6-1.6-1.9s-1.8-.3-2.9,0h0ZM297,226.7c1.7-.5,3.2-.4,4.5.2,1.3.6,2.1,1.8,2.6,3.3.5,1.6.3,3-.4,4.2s-2,2.1-3.7,2.6c-1.7.5-3.2.4-4.5-.2-1.3-.6-2.2-1.8-2.6-3.3-.5-1.6-.3-3,.4-4.2.7-1.2,2-2.1,3.7-2.6h0ZM297.8,254.1l-.2,2.7c0,.6,0,1.1.3,1.4.2.3.6.5,1.1.5.5,0,.9,0,1.1-.4s.4-.7.4-1.4l.2-2.7-2.9-.2h0ZM302.6,254.4l-.2,2.6c0,.6,0,1,.2,1.2.2.3.5.4.9.4.4,0,.7,0,.9-.3.2-.2.3-.7.4-1.2l.2-2.6-2.4-.2h0ZM296,251.8l11,.7-.3,5.2c0,1.1-.4,2-.9,2.5-.5.6-1.2.8-2.1.7-.6,0-1-.2-1.4-.4-.4-.2-.6-.6-.8-1-.3.6-.6,1-1.1,1.2-.4.3-1,.4-1.6.3-1.1,0-1.9-.5-2.4-1.2-.5-.7-.8-1.7-.7-3l.3-5h0ZM300.2,267.8l-.7,2.6c-.1.6-.1,1,0,1.3.2.3.5.5,1,.7.5.1.8,0,1.2-.1.3-.2.5-.5.7-1l.7-2.7-2.8-.7ZM294.7,264l10.7,2.8-1.4,5.2c-.3,1.2-.8,2-1.4,2.4-.6.4-1.5.5-2.5.2-.7-.2-1.2-.5-1.5-.8-.4-.4-.6-.9-.6-1.4-.3.4-.6.7-1,.8-.4.1-.9,0-1.7,0l-1.3-.3h0c-.6-.2-1.1-.1-1.3,0h-.3c0,0,.6-2.5.6-2.5.2,0,.4,0,.6,0,.2,0,.5,0,.8.1l1.1.3c.7.1,1.2.1,1.4,0,.3-.2.5-.5.7-1.1l.6-2.3-4.2-1.1.6-2.2h0ZM297.2,283.7l-3.5-3.5-1.4,2.7,4.9.8ZM299.8,283.5l-1.2,2.3-11.7-1.4,1.1-2.1,2.4.4,1.9-3.8-1.7-1.7,1.1-2.1,8.1,8.5h0ZM288.5,288.2l-1.3,1.8c-.5-.3-1.1-.3-1.5-.2s-.9.6-1.4,1.2c-.4.5-.6,1-.6,1.4,0,.4.2.7.6,1,.6.4,1.6,0,3-1.4,0,0,0,0,0,0,0,0,0,0,.2-.2.8-.7,1.4-1.2,1.9-1.4.4-.2.9-.2,1.3-.2.5,0,.9.3,1.4.6.9.6,1.4,1.4,1.4,2.3s-.3,2-1.1,3.1c-.7,1.1-1.6,1.7-2.5,2-.9.2-1.8,0-2.8-.5l1.2-1.8c.5.3.9.3,1.4.2.4-.1.9-.5,1.2-1.1.3-.5.5-.9.5-1.3,0-.4-.2-.7-.5-1-.5-.3-1.2,0-2.2.8l-.6.5c-.4.4-.9.8-1.4,1.1-.3.2-.6.4-.8.5-.5.2-.9.3-1.4.3-.5,0-.9-.2-1.4-.6-.9-.7-1.5-1.5-1.5-2.5s.3-2.1,1.1-3.2c.8-1.1,1.7-1.9,2.7-2.1,1-.3,2-.1,3,.5h0ZM278.1,295.9l8,7.7-1.6,1.6-8-7.7,1.6-1.6ZM273.7,300.3l6.8,8.7-1.8,1.4-5.6-7.1-4.2,3.3-1.3-1.6,6-4.7h0Z"/>
  </g>
</svg>